SplineFontDB: 3.0
FontName: seti
FullName: seti
FamilyName: seti
Weight: Book
Version: 1.0
ItalicAngle: 0
UnderlinePosition: 10
UnderlineWidth: 0
Ascent: 1000
Descent: 0
InvalidEm: 0
sfntRevision: 0x00010000
woffMajor: 1
woffMinor: 0
LayerCount: 2
Layer: 0 1 "Back" 1
Layer: 1 1 "Fore" 0
XUID: [1021 291 224459122 6847729]
StyleMap: 0x0040
FSType: 0
OS2Version: 1
OS2_WeightWidthSlopeOnly: 0
OS2_UseTypoMetrics: 0
CreationTime: 1588773693
ModificationTime: 1589230613
PfmFamily: 17
TTFWeight: 400
TTFWidth: 5
LineGap: 0
VLineGap: 0
Panose: 2 0 5 3 0 0 0 0 0 0
OS2TypoAscent: 1000
OS2TypoAOffset: 0
OS2TypoDescent: 0
OS2TypoDOffset: 0
OS2TypoLinegap: 90
OS2WinAscent: 1000
OS2WinAOffset: 0
OS2WinDescent: 0
OS2WinDOffset: 0
HheadAscent: 1000
HheadAOffset: 0
HheadDescent: 0
HheadDOffset: 0
OS2SubXSize: 761
OS2SubYSize: 700
OS2SubXOff: 0
OS2SubYOff: 140
OS2SupXSize: 761
OS2SupYSize: 700
OS2SupXOff: 0
OS2SupYOff: 480
OS2StrikeYSize: 49
OS2StrikeYPos: 258
OS2Vendor: 'PfEd'
OS2CodePages: 00000001.00000000
OS2UnicodeRanges: 00000000.00000000.00000000.00000000
Lookup: 4 0 1 "'liga' Standard Ligatures in Latin lookup 0" { "'liga' Standard Ligatures in Latin lookup 0 subtable"  } [' RQD' ('DFLT' <'dflt' > 'latn' <'dflt' > ) 'liga' ('DFLT' <'dflt' > 'latn' <'dflt' > ) ]
DEI: 91125
ShortTable: maxp 16
  1
  0
  148
  2564
  207
  0
  0
  2
  0
  10
  10
  0
  255
  0
  0
  0
EndShort
LangName: 1033 "" "" "Regular" "seti" "" "Version 1.0" "" "" "" "" "Generated by svg2ttf from Fontello project." "http://fontello.com"
Encoding: UnicodeFull
UnicodeInterp: none
NameList: AGL For New Fonts
DisplaySize: -48
AntiAlias: 1
FitToEm: 0
WinInfo: 57266 38 14
BeginChars: 1114113 149

StartChar: R
Encoding: 57345 57345 1
Width: 1000
Flags: W
LayerCount: 2
Fore
SplineSet
500 341 m 256,0,1
 424 341 424 341 360 366 c 128,-1,2
 296 391 296 391 258 434 c 128,-1,3
 220 477 220 477 220 528 c 128,-1,4
 220 579 220 579 258 622 c 128,-1,5
 296 665 296 665 360 690.5 c 128,-1,6
 424 716 424 716 500 716 c 128,-1,7
 576 716 576 716 640 690.5 c 128,-1,8
 704 665 704 665 742 622 c 128,-1,9
 780 579 780 579 780 528 c 128,-1,10
 780 477 780 477 742 434 c 128,-1,11
 704 391 704 391 640 366 c 128,-1,12
 576 341 576 341 500 341 c 256,0,1
543 642 m 0,13,14
 485 642 485 642 436 625 c 128,-1,15
 387 608 387 608 358.5 578.5 c 128,-1,16
 330 549 330 549 330 514.5 c 128,-1,17
 330 480 330 480 358.5 450.5 c 128,-1,18
 387 421 387 421 436 403.5 c 128,-1,19
 485 386 485 386 543 386 c 0,20,21
 636 386 636 386 689 417 c 0,22,23
 747 450 747 450 747 514 c 128,-1,24
 747 578 747 578 689 612 c 0,25,26
 636 642 636 642 543 642 c 0,13,14
646 426 m 2,27,28
 651 424 651 424 656 422 c 0,29,30
 667 419 667 419 673 415 c 0,31,32
 681 411 681 411 687 406 c 0,33,34
 689 403 689 403 691 400 c 2,35,-1
 760 285 l 1,36,-1
 652 285 l 1,37,-1
 601 379 l 1,38,-1
 595 389 l 2,39,40
 589 399 589 399 585 402 c 0,41,42
 577 408 577 408 572 408 c 2,43,-1
 546 408 l 1,44,-1
 546 284 l 1,45,-1
 451 284 l 1,46,-1
 451 599 l 1,47,-1
 643 599 l 1,48,-1
 656 598 l 2,49,50
 673 595 673 595 686 588 c 0,51,52
 705 579 705 579 716 563 c 0,53,54
 730 543 730 543 730 514.5 c 128,-1,55
 730 486 730 486 717 466 c 0,56,57
 706 449 706 449 688 439 c 0,58,59
 675 432 675 432 659 428 c 2,60,-1
 646 426 l 2,27,28
605 531 m 1,61,-1
 547 531 l 1,62,-1
 547 477 l 1,63,-1
 605 478 l 1,64,-1
 612 479 l 2,65,66
 620 481 620 481 625 486 c 0,67,68
 632 493 632 493 631 505 c 0,69,70
 632 522 632 522 618 528 c 0,71,72
 611 531 611 531 605 531 c 1,73,-1
 605 531 l 1,61,-1
EndSplineSet
EndChar

StartChar: apple
Encoding: 57346 57346 2
Width: 1000
Flags: W
LayerCount: 2
Fore
SplineSet
769 356 m 1,0,1
 766 350 766 350 766 344 c 0,2,3
 748 296 748 296 713 250 c 0,4,5
 698 230 698 230 678 216 c 0,6,7
 673 213 673 213 665.5 206.5 c 128,-1,8
 658 200 658 200 653 197 c 0,9,10
 641 191 641 191 631 191 c 2,11,-1
 612 191 l 2,12,13
 600 191 600 191 587 197 c 2,14,-1
 559 206 l 1,15,-1
 544 212 l 2,16,17
 537 216 537 216 522 216 c 0,18,19
 503 216 503 216 494 212 c 0,20,21
 469 206 469 206 456 200 c 2,22,-1
 441 194 l 2,23,24
 422 187 422 187 413 188 c 2,25,-1
 400 188 l 2,26,27
 384 188 384 188 375 197 c 1,28,29
 356 206 356 206 341 222 c 0,30,31
 322 241 322 241 316 253 c 0,32,33
 294 280 294 280 278 316 c 0,34,35
 259 354 259 354 250 394 c 0,36,37
 244 419 244 419 244 434 c 0,38,39
 244 439 244 439 242.5 448.5 c 128,-1,40
 241 458 241 458 241 463 c 2,41,-1
 241 491 l 2,42,43
 241 503 241 503 244 513 c 0,44,45
 244 525 244 525 250 544 c 0,46,47
 258 582 258 582 287 615.5 c 128,-1,48
 316 649 316 649 356 659 c 0,49,50
 381 666 381 666 397 666 c 2,51,-1
 428 666 l 2,52,53
 438 666 438 666 456 659 c 2,54,-1
 478 650 l 2,55,56
 491 644 491 644 497 644 c 0,57,58
 503 641 503 641 519 641 c 0,59,60
 528 641 528 641 541 647 c 2,61,-1
 569 656 l 2,62,63
 592 666 592 666 622.5 666 c 128,-1,64
 653 666 653 666 666 663 c 128,-1,65
 679 660 679 660 687 657 c 0,66,67
 698 653 698 653 706 647 c 0,68,69
 732 636 732 636 759 603 c 1,70,71
 750 597 750 597 731 578 c 128,-1,72
 712 559 712 559 703 541 c 2,73,-1
 700 534 l 2,74,75
 691 510 691 510 691 497 c 2,76,-1
 691 475 l 2,77,78
 691 470 691 470 692.5 462.5 c 128,-1,79
 694 455 694 455 694 450 c 0,80,81
 702 417 702 417 731 388 c 0,82,83
 745 373 745 373 769 359 c 1,84,-1
 765 359 l 1,85,86
 765 359 765 359 766 358 c 2,87,-1
 769 356 l 1,0,1
625 813 m 1,88,-1
 625 788 l 2,89,90
 625 758 625 758 603 725 c 0,91,92
 583 695 583 695 556 681 c 0,93,94
 548 675 548 675 536 671 c 0,95,96
 528 669 528 669 512 666 c 2,97,-1
 497 666 l 1,98,-1
 497 681 l 2,99,100
 497 703 497 703 500 716 c 0,101,102
 502 726 502 726 509 737 c 0,103,104
 513 744 513 744 522 756 c 0,105,106
 542 781 542 781 563 794 c 0,107,108
 578 803 578 803 586 807 c 0,109,110
 600 814 600 814 613 816 c 0,111,112
 616 813 616 813 625 813 c 1,88,-1
EndSplineSet
EndChar

StartChar: argdown
Encoding: 57347 57347 3
Width: 1000
Flags: W
LayerCount: 2
Fore
SplineSet
639 480 m 1,0,-1
 750 480 l 1,1,-1
 500 199 l 1,2,-1
 250 480 l 1,3,-1
 361 480 l 1,4,-1
 361 801 l 1,5,-1
 455 742 l 1,6,-1
 455 375 l 1,7,-1
 500 324 l 1,8,-1
 545 375 l 1,9,-1
 545 742 l 1,10,-1
 639 801 l 1,11,-1
 639 480 l 1,0,-1
EndSplineSet
EndChar

StartChar: asm
Encoding: 57348 57348 4
Width: 1000
Flags: W
LayerCount: 2
Fore
SplineSet
187 387 m 1,0,-1
 269 614 l 1,1,-1
 312 614 l 1,2,-1
 394 387 l 1,3,-1
 350 387 l 1,4,-1
 327 448 l 1,5,-1
 241 448 l 1,6,-1
 219 387 l 1,7,-1
 187 387 l 1,0,-1
251 476 m 1,8,-1
 316 476 l 1,9,-1
 284 568 l 1,10,-1
 251 476 l 1,8,-1
405 389 m 1,11,-1
 405 427 l 1,12,13
 453 411 453 411 480 411 c 0,14,15
 500 411 500 411 515 419 c 0,16,17
 522 424 522 424 525 429 c 128,-1,18
 528 434 528 434 528 442 c 0,19,20
 528 454 528 454 521 460 c 0,21,22
 512 470 512 470 491 478 c 2,23,-1
 472 486 l 2,24,25
 441 502 441 502 420 521 c 0,26,27
 405 537 405 537 405 557 c 0,28,29
 405 587 405 587 430 602 c 0,30,31
 455 620 455 620 497 620 c 0,32,33
 535 620 535 620 569 612 c 1,34,-1
 569 576 l 1,35,36
 527 588 527 588 502 588 c 0,37,38
 484 588 484 588 472 582 c 0,39,40
 461 573 461 573 461 563 c 128,-1,41
 461 553 461 553 469 547 c 0,42,43
 480 539 480 539 499 529 c 2,44,-1
 517 521 l 2,45,46
 556 502 556 502 571 486 c 128,-1,47
 586 470 586 470 586 448 c 0,48,49
 586 432 586 432 579 419 c 128,-1,50
 572 406 572 406 558 399 c 0,51,52
 533 381 533 381 482 381 c 0,53,54
 445 381 445 381 405 389 c 1,11,-1
603 387 m 1,55,-1
 603 612 l 1,56,-1
 661 612 l 1,57,-1
 711 452 l 1,58,-1
 763 612 l 1,59,-1
 813 612 l 1,60,-1
 813 387 l 1,61,-1
 772 387 l 1,62,-1
 772 559 l 1,63,-1
 722 403 l 1,64,-1
 687 403 l 1,65,-1
 636 561 l 1,66,-1
 636 387 l 1,67,-1
 603 387 l 1,55,-1
EndSplineSet
EndChar

StartChar: audio
Encoding: 57349 57349 5
Width: 1000
Flags: W
LayerCount: 2
Fore
SplineSet
509 256 m 2,0,1
 505 256 505 256 497 262 c 2,2,-1
 491 266 l 1,3,4
 397 347 397 347 347 388 c 1,5,-1
 344 390 l 1,6,-1
 341 391 l 1,7,-1
 209 391 l 2,8,9
 193 391 193 391 188 406 c 1,10,-1
 188 584 l 2,11,12
 188 596 188 596 194.5 602.5 c 128,-1,13
 201 609 201 609 213 609 c 2,14,-1
 344 609 l 2,15,16
 350 609 350 609 350 613 c 2,17,-1
 494 738 l 2,18,19
 503 745 503 745 512 744.5 c 128,-1,20
 521 744 521 744 528 734 c 0,21,22
 531 731 531 731 531 722 c 2,23,-1
 531 281 l 2,24,25
 531 264 531 264 519 259 c 1,26,-1
 516 259 l 1,27,-1
 513 256 l 1,28,-1
 509 256 l 2,0,1
813 497 m 1,29,30
 813 478 813 478 809 469 c 0,31,32
 805 412 805 412 781 356 c 0,33,34
 761 306 761 306 731 272 c 0,35,36
 727 264 727 264 713 259 c 1,37,38
 700 259 700 259 691 269 c 0,39,40
 686 273 686 273 686 279.5 c 128,-1,41
 686 286 686 286 691 291 c 0,42,43
 692 294 692 294 697 300 c 128,-1,44
 702 306 702 306 703 309 c 0,45,46
 750 375 750 375 759 450 c 0,47,48
 778 592 778 592 691 703 c 0,49,50
 679 720 679 720 691 731 c 0,51,52
 698 741 698 741 708.5 741 c 128,-1,53
 719 741 719 741 728 731 c 0,54,55
 766 683 766 683 781 641 c 0,56,57
 805 585 805 585 809 522 c 1,58,-1
 809 500 l 2,59,60
 811 500 811 500 812 498 c 2,61,-1
 812 497 l 1,62,-1
 813 497 l 1,29,30
728 503 m 0,63,64
 728 409 728 409 675 331 c 0,65,66
 671 324 671 324 656 319 c 0,67,68
 644 319 644 319 634 328 c 0,69,70
 630 333 630 333 630 339.5 c 128,-1,71
 630 346 630 346 634 353 c 0,72,73
 634 355 634 355 636 356.5 c 128,-1,74
 638 358 638 358 637 359 c 0,75,76
 672 406 672 406 681 469 c 0,77,78
 695 566 695 566 634 650 c 0,79,80
 628 663 628 663 628 669 c 0,81,82
 631 677 631 677 634 681 c 128,-1,83
 637 685 637 685 644 688 c 0,84,85
 659 693 659 693 668.5 679.5 c 128,-1,86
 678 666 678 666 697 634 c 0,87,88
 725 573 725 573 725 525 c 0,89,90
 728 512 728 512 728 503 c 0,63,64
641 500 m 0,91,92
 641 438 641 438 609 394 c 0,93,94
 605 385 605 385 596.5 382.5 c 128,-1,95
 588 380 588 380 579 385 c 128,-1,96
 570 390 570 390 567.5 398.5 c 128,-1,97
 565 407 565 407 572 416 c 0,98,99
 588 440 588 440 594 478 c 0,100,101
 598 505 598 505 592 532.5 c 128,-1,102
 586 560 586 560 572 584 c 0,103,104
 567 594 567 594 569 602.5 c 128,-1,105
 571 611 571 611 578 615.5 c 128,-1,106
 585 620 585 620 595 618 c 128,-1,107
 605 616 605 616 609 609 c 0,108,109
 623 588 623 588 634 550 c 2,110,-1
 636 542 l 2,111,112
 641 513 641 513 641 500 c 0,91,92
EndSplineSet
EndChar

StartChar: babel
Encoding: 57350 57350 6
Width: 1000
Flags: W
LayerCount: 2
Fore
SplineSet
699 613 m 1,0,-1
 757 666 l 1,1,2
 781 704 781 704 781 749 c 2,3,-1
 781 756 l 2,4,5
 781 765 781 765 777 773 c 0,6,7
 761 805 761 805 723 820 c 1,8,9
 693 840 693 840 605 844 c 1,10,11
 505 830 505 830 425 795 c 1,12,13
 389 770 389 770 356 751 c 1,14,-1
 356 747 l 2,15,16
 357 747 357 747 359 748 c 128,-1,17
 361 749 361 749 362 749 c 0,18,19
 366 749 366 749 366 747 c 2,20,-1
 371 749 l 1,21,-1
 373 749 l 1,22,-1
 373 747 l 1,23,-1
 371 744 l 2,24,25
 368 741 368 741 362 738 c 128,-1,26
 356 735 356 735 336 720 c 2,27,-1
 323 710 l 1,28,-1
 330 705 l 1,29,-1
 325 708 l 2,30,31
 325 705 325 705 319 705 c 1,32,-1
 319 703 l 1,33,-1
 323 697 l 2,34,35
 319 697 319 697 316 699 c 0,36,37
 297 696 297 696 286 677 c 1,38,-1
 286 668 l 1,39,-1
 286 668 l 1,40,41
 295 677 295 677 301 681 c 1,42,-1
 301 675 l 1,43,-1
 299 675 l 1,44,-1
 295 672 l 1,45,-1
 295 670 l 1,46,-1
 299 664 l 1,47,-1
 299 661 l 2,48,49
 301 666 301 666 306 670 c 2,50,-1
 323 688 l 1,51,-1
 334 694 l 1,52,53
 343 691 343 691 343 688 c 2,54,-1
 347 688 l 1,55,56
 399 726 399 726 451 745 c 1,57,-1
 451 741 l 2,58,59
 449 736 449 736 442 730 c 0,60,61
 440 727 440 727 438 727 c 1,62,63
 438 723 438 723 442 719 c 1,64,65
 421 651 421 651 395 600 c 1,66,67
 320 402 320 402 219 218 c 0,68,69
 219 217 219 217 220 214.5 c 128,-1,70
 221 212 221 212 221 211 c 2,71,-1
 227 213 l 2,72,73
 234 216 234 216 243 220 c 1,74,-1
 245 220 l 1,75,-1
 245 216 l 1,76,-1
 249 216 l 1,77,-1
 253 218 l 1,78,-1
 258 218 l 1,79,-1
 258 209 l 1,80,-1
 251 194 l 2,81,82
 238 172 238 172 236 158 c 2,83,-1
 236 156 l 1,84,-1
 243 156 l 1,85,-1
 249 165 l 1,86,87
 275 195 275 195 286 220 c 1,88,-1
 308 227 l 2,89,90
 331 233 331 233 347 240 c 2,91,-1
 351 242 l 1,92,93
 395 259 395 259 416 270 c 1,94,95
 434 270 434 270 452.5 276.5 c 128,-1,96
 471 283 471 283 486 295 c 1,97,-1
 486 297 l 1,98,-1
 475 292 l 1,99,-1
 473 292 l 1,100,-1
 473 297 l 1,101,102
 501 300 501 300 518 312 c 0,103,104
 584 362 584 362 616 385 c 0,105,106
 717 460 717 460 714 530 c 1,107,108
 695 561 695 561 675 578 c 1,109,-1
 668 587 l 1,110,111
 668 595 668 595 699 613 c 1,0,-1
594 446 m 1,112,-1
 534 398 l 1,113,-1
 534 398 l 1,114,115
 486 367 486 367 462 354 c 0,116,117
 403 318 403 318 338 295 c 2,118,-1
 330 292 l 1,119,-1
 327 292 l 1,120,121
 329 299 329 299 377 396 c 2,122,-1
 423 488 l 1,123,124
 488 498 488 498 549 525 c 1,125,-1
 564 527 l 2,126,127
 582 531 582 531 599 526 c 128,-1,128
 616 521 616 521 629 510 c 1,129,-1
 629 501 l 1,130,131
 613 456 613 456 594 446 c 1,112,-1
631 646 m 0,132,133
 609 623 609 623 579 607 c 1,134,135
 520 588 520 588 477 565 c 0,136,137
 475 565 475 565 473 567 c 2,138,-1
 466 567 l 1,139,-1
 466 571 l 2,140,141
 466 590 466 590 477 604 c 1,142,143
 484 643 484 643 492 646 c 1,144,-1
 542 758 l 2,145,146
 542 763 542 763 550.5 767.5 c 128,-1,147
 559 772 559 772 575 773 c 2,148,-1
 581 773 l 1,149,-1
 581 767 l 1,150,151
 603 771 603 771 621 771 c 0,152,153
 647 774 647 774 662.5 769 c 128,-1,154
 678 764 678 764 681 751 c 2,155,-1
 681 747 l 1,156,-1
 686 747 l 1,157,-1
 686 762 l 1,158,-1
 690 762 l 1,159,160
 704 755 704 755 707 743 c 2,161,-1
 707 738 l 2,162,163
 707 725 707 725 697 714 c 0,164,165
 692 714 692 714 692 721 c 1,166,-1
 688 721 l 1,167,-1
 688 708 l 1,168,169
 659 661 659 661 644 661 c 1,170,171
 638 653 638 653 631 646 c 0,132,133
EndSplineSet
EndChar

StartChar: bower
Encoding: 57351 57351 7
Width: 1000
Flags: W
LayerCount: 2
Fore
SplineSet
784 516 m 0,0,1
 781 517 781 517 773 521 c 0,2,3
 761 526 761 526 753 528 c 0,4,5
 711 540 711 540 627 553 c 2,6,-1
 584 559 l 2,7,8
 580 559 580 559 570 561 c 128,-1,9
 560 563 560 563 553 562 c 1,10,11
 556 575 556 575 562 580 c 128,-1,12
 568 585 568 585 584 588 c 0,13,14
 586 586 586 586 587.5 581.5 c 128,-1,15
 589 577 589 577 590 574.5 c 128,-1,16
 591 572 591 572 593 571 c 128,-1,17
 595 570 595 570 597 572 c 2,18,-1
 619 572 l 1,19,20
 647 577 647 577 666 592 c 128,-1,21
 685 607 685 607 697 634 c 1,22,23
 703 659 703 659 706 669 c 0,24,25
 712 712 712 712 737 738 c 2,26,-1
 744 744 l 1,27,28
 721 750 721 750 691 742.5 c 128,-1,29
 661 735 661 735 634 716 c 0,30,31
 605 694 605 694 591 663 c 0,32,33
 588 664 588 664 580 665.5 c 128,-1,34
 572 667 572 667 569 668 c 128,-1,35
 566 669 566 669 564.5 671 c 128,-1,36
 563 673 563 673 563 675 c 0,37,38
 543 728 543 728 494 759 c 0,39,40
 476 770 476 770 451 774 c 0,41,42
 429 778 429 778 406 775 c 0,43,44
 309 761 309 761 247 684 c 0,45,46
 217 647 217 647 202.5 602 c 128,-1,47
 188 557 188 557 191 509 c 0,48,49
 195 412 195 412 253 325 c 0,50,51
 263 311 263 311 291 284 c 2,52,-1
 303 272 l 1,53,54
 320 262 320 262 339 263.5 c 128,-1,55
 358 265 358 265 372 278 c 0,56,57
 373 280 373 280 376.5 284.5 c 128,-1,58
 380 289 380 289 381 291 c 1,59,60
 381 289 381 289 382.5 287.5 c 128,-1,61
 384 286 384 286 384 284 c 0,62,63
 387 279 387 279 392 265 c 0,64,65
 397 249 397 249 400 244 c 0,66,67
 405 234 405 234 418.5 229 c 128,-1,68
 432 224 432 224 444 228 c 0,69,70
 448 233 448 233 453 228 c 0,71,72
 472 219 472 219 491 228 c 0,73,74
 493 229 493 229 497 233 c 0,75,76
 502 237 502 237 506 238.5 c 128,-1,77
 510 240 510 240 519 238 c 2,78,-1
 525 237 l 1,79,80
 539 240 539 240 546 246 c 0,81,82
 556 254 556 254 556 269 c 1,83,-1
 557 270 l 2,84,85
 557 272 557 272 559 272 c 0,86,87
 564 274 564 274 568 278.5 c 128,-1,88
 572 283 572 283 572 288 c 0,89,90
 576 301 576 301 572 319 c 1,91,-1
 562 336 l 2,92,93
 549 362 549 362 541 372 c 2,94,-1
 538 375 l 1,95,96
 556 369 556 369 569 366 c 0,97,98
 597 360 597 360 612 375 c 0,99,100
 614 375 614 375 615.5 373.5 c 128,-1,101
 617 372 617 372 619 372 c 0,102,103
 637 360 637 360 660 364 c 128,-1,104
 683 368 683 368 697 384 c 1,105,-1
 703 384 l 1,106,107
 732 380 732 380 753 397 c 0,108,109
 759 403 759 403 762 407 c 0,110,111
 766 413 766 413 766 419 c 2,112,-1
 766 422 l 1,113,114
 790 424 790 424 801 435 c 128,-1,115
 812 446 812 446 812 469 c 0,116,117
 810 487 810 487 804 498 c 128,-1,118
 798 509 798 509 784 516 c 0,0,1
647 600 m 0,119,120
 628 591 628 591 603 591 c 2,121,-1
 602 591 l 2,122,123
 600 592 600 592 599 594.5 c 128,-1,124
 598 597 598 597 596.5 603 c 128,-1,125
 595 609 595 609 594.5 612 c 128,-1,126
 594 615 594 615 594.5 615.5 c 128,-1,127
 595 616 595 616 597 616 c 0,128,129
 605 616 605 616 607 614 c 128,-1,130
 609 612 609 612 609 603 c 1,131,132
 614 610 614 610 616 611 c 128,-1,133
 618 612 618 612 625 609 c 0,134,135
 628 608 628 608 634.5 606.5 c 128,-1,136
 641 605 641 605 644 603 c 2,137,-1
 649 600 l 1,138,139
 649 600 649 600 647 600 c 0,119,120
606 666 m 0,140,141
 619 689 619 689 653 716 c 1,142,143
 679 731 679 731 703 731 c 1,144,145
 697 725 697 725 694 719 c 0,146,147
 687 710 687 710 683 687 c 2,148,-1
 681 675 l 2,149,150
 675 644 675 644 669 628 c 0,151,152
 669 624 669 624 665 620 c 0,153,154
 663 617 663 617 663 616 c 1,155,156
 655 623 655 623 639 635 c 2,157,-1
 631 641 l 1,158,-1
 631 647 l 1,159,-1
 635 654 l 2,160,161
 647 674 647 674 654 684 c 0,162,163
 665 700 665 700 678 709 c 1,164,165
 657 701 657 701 643 684 c 0,166,167
 633 673 633 673 619 647 c 1,168,-1
 603 656 l 2,169,170
 603 658 603 658 604.5 661 c 128,-1,171
 606 664 606 664 606 666 c 0,140,141
522 613 m 0,172,173
 522 640 522 640 534 656 c 0,174,175
 534 658 534 658 538 659 c 2,176,-1
 541 659 l 1,177,178
 586 655 586 655 622 628 c 0,179,180
 625 627 625 627 629.5 622 c 128,-1,181
 634 617 634 617 637 616 c 1,182,183
 634 617 634 617 626.5 618.5 c 128,-1,184
 619 620 619 620 616 622 c 0,185,186
 588 628 588 628 566 619 c 1,187,188
 550 607 550 607 522 613 c 1,189,190
 528 606 528 606 535.5 605 c 128,-1,191
 543 604 543 604 553 606 c 0,192,193
 561 606 561 606 573 611 c 2,194,-1
 578 612 l 2,195,196
 578 611 578 611 577 608 c 2,197,-1
 575 606 l 2,198,199
 565 599 565 599 537 588 c 2,200,-1
 528 584 l 1,201,-1
 525 584 l 1,202,203
 522 594 522 594 522 613 c 0,172,173
428 688 m 0,204,205
 450 688 450 688 467 671 c 128,-1,206
 484 654 484 654 484 631 c 128,-1,207
 484 608 484 608 468 591.5 c 128,-1,208
 452 575 452 575 428.5 575 c 128,-1,209
 405 575 405 575 388.5 591.5 c 128,-1,210
 372 608 372 608 372 632 c 128,-1,211
 372 656 372 656 388 672 c 128,-1,212
 404 688 404 688 428 688 c 0,204,205
572 497 m 1,213,214
 597 491 597 491 616 491 c 2,215,-1
 672 481 l 2,216,217
 677 481 677 481 678 478.5 c 128,-1,218
 679 476 679 476 675 472 c 0,219,220
 670 465 670 465 660 461 c 128,-1,221
 650 457 650 457 641 459 c 2,222,-1
 634 459 l 1,223,224
 637 455 637 455 635 449 c 128,-1,225
 633 443 633 443 628 441 c 0,226,227
 616 428 616 428 597 428 c 0,228,229
 594 428 594 428 586 429.5 c 128,-1,230
 578 431 578 431 575 431 c 0,231,232
 573 422 573 422 563 417 c 128,-1,233
 553 412 553 412 539.5 413 c 128,-1,234
 526 414 526 414 516 422 c 1,235,236
 522 403 522 403 525 391 c 2,237,-1
 525 381 l 1,238,239
 520 346 520 346 495 322.5 c 128,-1,240
 470 299 470 299 434 297 c 0,241,242
 366 292 366 292 309 334 c 0,243,244
 260 366 260 366 234 422 c 0,245,246
 234 423 234 423 232.5 425 c 128,-1,247
 231 427 231 427 231 428 c 1,248,249
 256 422 256 422 266 419 c 0,250,251
 285 416 285 416 298 418 c 0,252,253
 316 421 316 421 331 431 c 1,254,-1
 338 431 l 1,255,256
 374 421 374 421 406 425 c 0,257,258
 431 429 431 429 452 443 c 0,259,260
 471 456 471 456 491 478 c 0,261,262
 500 487 500 487 513 512 c 0,263,264
 519 522 519 522 531 534 c 1,265,-1
 538 534 l 1,266,-1
 616 525 l 1,267,-1
 649 519 l 2,268,269
 694 510 694 510 719 506 c 1,270,-1
 720 506 l 2,271,272
 722 505 722 505 722 503 c 2,273,-1
 690 501 l 2,274,275
 611 494 611 494 572 497 c 1,213,214
428 600 m 256,276,277
 443 600 443 600 452.5 608.5 c 128,-1,278
 462 617 462 617 462.5 631 c 128,-1,279
 463 645 463 645 453 654 c 128,-1,280
 443 663 443 663 428.5 663 c 128,-1,281
 414 663 414 663 404 653 c 128,-1,282
 394 643 394 643 394 631 c 128,-1,283
 394 619 394 619 403.5 609.5 c 128,-1,284
 413 600 413 600 428 600 c 256,276,277
409 656 m 0,285,286
 411 658 411 658 416.5 659.5 c 128,-1,287
 422 661 422 661 425 663 c 2,288,-1
 441 656 l 2,289,290
 445 654 445 654 445 649.5 c 128,-1,291
 445 645 445 645 440.5 640.5 c 128,-1,292
 436 636 436 636 426 636 c 128,-1,293
 416 636 416 636 406 641 c 1,294,295
 401 652 401 652 409 656 c 0,285,286
EndSplineSet
EndChar

StartChar: bsl
Encoding: 57352 57352 8
Width: 1000
Flags: W
LayerCount: 2
Fore
SplineSet
525 406 m 1,0,-1
 525 313 l 1,1,-1
 844 313 l 1,2,-1
 844 406 l 1,3,-1
 525 406 l 1,0,-1
219 688 m 1,4,-1
 313 688 l 1,5,-1
 313 313 l 1,6,-1
 219 313 l 1,7,-1
 219 688 l 1,4,-1
156 656 m 1,8,-1
 219 656 l 1,9,-1
 219 563 l 1,10,-1
 156 563 l 1,11,-1
 156 656 l 1,8,-1
438 500 m 256,12,13
 438 540 438 540 464.5 567 c 128,-1,14
 491 594 491 594 531 594 c 0,15,16
 562 594 562 594 585.5 576.5 c 128,-1,17
 609 559 609 559 619 531 c 1,18,-1
 716 531 l 1,19,20
 708 575 708 575 682 610.5 c 128,-1,21
 656 646 656 646 616.5 667 c 128,-1,22
 577 688 577 688 531 688 c 0,23,24
 481 688 481 688 437.5 662.5 c 128,-1,25
 394 637 394 637 369 594 c 128,-1,26
 344 551 344 551 344 500 c 128,-1,27
 344 449 344 449 369 406 c 128,-1,28
 394 363 394 363 437.5 338 c 128,-1,29
 481 313 481 313 531.5 313 c 128,-1,30
 582 313 582 313 626 338.5 c 128,-1,31
 670 364 670 364 694 406 c 1,32,-1
 531 406 l 2,33,34
 491 406 491 406 464.5 433 c 128,-1,35
 438 460 438 460 438 500 c 256,12,13
EndSplineSet
EndChar

StartChar: c-sharp
Encoding: 57353 57353 9
Width: 1000
Flags: W
LayerCount: 2
Fore
SplineSet
222 503 m 0,0,1
 222 563 222 563 240.5 609.5 c 128,-1,2
 259 656 259 656 290 687 c 128,-1,3
 321 718 321 718 366 738 c 0,4,5
 401 753 401 753 456 753 c 0,6,7
 503 753 503 753 540.5 734.5 c 128,-1,8
 578 716 578 716 603 691 c 1,9,-1
 534 613 l 1,10,-1
 526 619 l 2,11,12
 510 632 510 632 500 634 c 2,13,-1
 490 637 l 2,14,15
 470 644 470 644 456 644 c 0,16,17
 434 644 434 644 416 634 c 0,18,19
 394 624 394 624 381 606.5 c 128,-1,20
 368 589 368 589 359 561.5 c 128,-1,21
 350 534 350 534 350 503 c 0,22,23
 350 431 350 431 381 400 c 0,24,25
 398 381 398 381 417.5 371.5 c 128,-1,26
 437 362 437 362 462 362 c 128,-1,27
 487 362 487 362 506 372 c 0,28,29
 527 382 527 382 541 400 c 1,30,-1
 609 322 l 1,31,32
 580 289 580 289 541 269 c 0,33,34
 503 250 503 250 456 250 c 0,35,36
 413 250 413 250 366 266 c 0,37,38
 323 280 323 280 291 312 c 0,39,40
 276 327 276 327 264 351 c 0,41,42
 256 366 256 366 244 397 c 1,43,44
 222 436 222 436 222 503 c 0,0,1
681 466 m 1,45,-1
 650 466 l 1,46,-1
 638 391 l 1,47,-1
 600 391 l 1,48,-1
 613 466 l 1,49,-1
 575 466 l 1,50,-1
 575 500 l 1,51,-1
 622 500 l 1,52,-1
 628 550 l 1,53,-1
 588 550 l 1,54,-1
 588 584 l 1,55,-1
 634 584 l 1,56,-1
 647 659 l 1,57,-1
 684 659 l 1,58,-1
 672 584 l 1,59,-1
 703 584 l 1,60,-1
 716 659 l 1,61,-1
 753 659 l 1,62,-1
 741 584 l 1,63,-1
 781 584 l 1,64,-1
 781 550 l 1,65,-1
 731 550 l 1,66,-1
 725 500 l 1,67,-1
 766 500 l 1,68,-1
 766 466 l 1,69,-1
 716 466 l 1,70,-1
 703 391 l 1,71,-1
 666 391 l 2,72,73
 666 389 666 389 673 427 c 2,74,-1
 681 466 l 1,45,-1
656 497 m 1,75,-1
 688 497 l 1,76,-1
 694 547 l 1,77,-1
 663 547 l 1,78,-1
 656 497 l 1,75,-1
EndSplineSet
EndChar

StartChar: c
Encoding: 57354 57354 10
Width: 1000
Flags: W
LayerCount: 2
Fore
SplineSet
697 284 m 1,0,1
 663 267 663 267 627.5 257.5 c 128,-1,2
 592 248 592 248 553 248 c 0,3,4
 436 248 436 248 368 316 c 128,-1,5
 300 384 300 384 300 500 c 128,-1,6
 300 616 300 616 368 684 c 128,-1,7
 436 752 436 752 553 752 c 0,8,9
 592 752 592 752 628 743 c 128,-1,10
 664 734 664 734 697 716 c 1,11,-1
 697 615 l 1,12,13
 663 639 663 639 630.5 650 c 128,-1,14
 598 661 598 661 563 661 c 0,15,16
 498 661 498 661 461 618 c 128,-1,17
 424 575 424 575 424 500 c 128,-1,18
 424 425 424 425 461 382 c 128,-1,19
 498 339 498 339 563 339 c 0,20,21
 598 339 598 339 630.5 350 c 128,-1,22
 663 361 663 361 697 385 c 1,23,-1
 697 284 l 1,0,1
EndSplineSet
EndChar

StartChar: cake
Encoding: 57355 57355 11
Width: 1000
Flags: W
LayerCount: 2
Fore
SplineSet
659 469 m 1,0,1
 669 436 669 436 692 350 c 2,2,-1
 713 272 l 1,3,-1
 841 288 l 1,4,-1
 841 491 l 1,5,-1
 659 469 l 1,0,1
441 447 m 1,6,-1
 209 422 l 1,7,-1
 209 209 l 1,8,-1
 481 244 l 1,9,-1
 441 447 l 1,6,-1
634 653 m 0,10,11
 622 628 622 628 612 619 c 1,12,-1
 631 556 l 1,13,-1
 838 581 l 1,14,-1
 822 605 l 2,15,16
 802 633 802 633 780 657 c 0,17,18
 749 690 749 690 719 709 c 0,19,20
 681 733 681 733 644 744 c 1,21,22
 655 703 655 703 634 653 c 0,10,11
409 553 m 0,23,24
 356 558 356 558 322 597 c 1,25,-1
 209 509 l 1,26,-1
 416 534 l 1,27,28
 414 538 414 538 412.5 544 c 128,-1,29
 411 550 411 550 409 553 c 0,23,24
556 616 m 2,30,31
 554 623 554 623 554.5 628 c 128,-1,32
 555 633 555 633 559 638 c 0,33,34
 572 656 572 656 578 669 c 0,35,36
 600 718 600 718 575 756 c 0,37,38
 548 801 548 801 494 791 c 0,39,40
 487 791 487 791 485 785 c 128,-1,41
 483 779 483 779 488 772 c 2,42,-1
 516 716 l 1,43,-1
 516 713 l 2,44,45
 517 711 517 711 516.5 710 c 128,-1,46
 516 709 516 709 513 709 c 0,47,48
 475 684 475 684 459 675 c 0,49,50
 455 670 455 670 450 675 c 0,51,52
 438 688 438 688 419 713 c 0,53,54
 415 716 415 716 409 721 c 2,55,-1
 403 725 l 1,56,-1
 398 726 l 2,57,58
 393 726 393 726 391 722 c 0,59,60
 378 701 378 701 375 675 c 0,61,62
 371 645 371 645 384 625 c 0,63,64
 408 588 408 588 450 588 c 0,65,66
 456 588 456 588 460 586 c 128,-1,67
 464 584 464 584 466 578 c 2,68,-1
 480 515 l 1,69,70
 539 268 539 268 544 237 c 0,71,72
 546 223 546 223 555 213.5 c 128,-1,73
 564 204 564 204 575 206 c 2,74,-1
 585 208 l 2,75,76
 605 210 605 210 614 213 c 0,77,78
 630 218 630 218 641 228 c 0,79,80
 658 245 658 245 653 269 c 1,81,82
 646 282 646 282 579 531 c 2,83,-1
 556 616 l 2,30,31
EndSplineSet
EndChar

StartChar: cake_php
Encoding: 57356 57356 12
Width: 1000
Flags: W
LayerCount: 2
Fore
SplineSet
500 547 m 1,0,-1
 500 450 l 1,1,-1
 463 450 l 2,2,3
 411 453 411 453 385 456 c 0,4,5
 343 461 343 461 309 472 c 0,6,7
 284 478 284 478 241 497 c 0,8,9
 228 500 228 500 209 512 c 0,10,11
 198 522 198 522 193 532 c 128,-1,12
 188 542 188 542 188 556 c 2,13,-1
 188 638 l 2,14,15
 188 656 188 656 203 672 c 0,16,17
 223 692 223 692 263 703 c 0,18,19
 327 726 327 726 397 731 c 2,20,-1
 405 732 l 2,21,22
 484 738 484 738 525 738 c 0,23,24
 636 738 636 738 734 706 c 0,25,26
 747 702 747 702 771 689 c 2,27,-1
 791 678 l 2,28,29
 816 663 816 663 816 631 c 2,30,-1
 816 553 l 2,31,32
 816 522 816 522 794 509 c 0,33,34
 784 502 784 502 763 492 c 2,35,-1
 753 487 l 2,36,37
 751 485 751 485 744 487 c 2,38,-1
 741 487 l 1,39,40
 591 525 591 525 513 544 c 0,41,42
 506 547 506 547 500 547 c 1,0,-1
500 259 m 1,43,-1
 438 259 l 1,44,45
 344 265 344 265 281 284 c 0,46,47
 268 288 268 288 248 297 c 2,48,-1
 216 313 l 2,49,50
 188 331 188 331 188 366 c 2,51,-1
 188 438 l 1,52,53
 206 413 206 413 238 397 c 0,54,55
 256 388 256 388 297 375 c 0,56,57
 384 353 384 353 488 353 c 0,58,59
 495 353 495 353 497.5 350.5 c 128,-1,60
 500 348 500 348 500 341 c 2,61,-1
 500 259 l 1,43,-1
813 441 m 1,62,-1
 813 353 l 2,63,64
 812 336 812 336 794 322 c 0,65,66
 763 303 763 303 747 297 c 0,67,68
 745 295 745 295 738 296 c 2,69,-1
 731 297 l 1,70,-1
 506 353 l 2,71,72
 504 353 504 353 502 356 c 2,73,-1
 500 359 l 1,74,-1
 500 447 l 1,75,76
 511 444 511 444 531.5 439 c 128,-1,77
 552 434 552 434 563 431 c 0,78,79
 592 423 592 423 650 409 c 128,-1,80
 708 395 708 395 738 388 c 1,81,-1
 750 388 l 1,82,-1
 762 395 l 2,83,84
 781 406 781 406 790 413 c 0,85,86
 804 425 804 425 813 441 c 1,62,-1
EndSplineSet
EndChar

StartChar: checkbox-unchecked
Encoding: 57357 57357 13
Width: 1000
Flags: W
LayerCount: 2
Fore
SplineSet
806 734 m 0,0,1
 783 800 783 800 713 809 c 1,2,-1
 294 809 l 2,3,4
 272 809 272 809 266 806 c 0,5,6
 202 779 202 779 188 713 c 1,7,-1
 188 294 l 2,8,9
 189 289 189 289 190.5 279.5 c 128,-1,10
 192 270 192 270 194 266 c 0,11,12
 217 200 217 200 288 191 c 1,13,-1
 706 191 l 2,14,15
 711 192 711 192 720.5 193.5 c 128,-1,16
 730 195 730 195 734 197 c 0,17,18
 800 220 800 220 809 291 c 1,19,-1
 809 709 l 2,20,21
 809 728 809 728 806 734 c 0,0,1
738 328 m 1,22,23
 738 302 738 302 724.5 284.5 c 128,-1,24
 711 267 711 267 688 263 c 1,25,-1
 328 263 l 2,26,27
 302 263 302 263 284.5 276 c 128,-1,28
 267 289 267 289 263 313 c 1,29,-1
 263 672 l 2,30,31
 262 710 262 710 294 728 c 0,32,33
 308 738 308 738 328 738 c 2,34,-1
 675 738 l 2,35,36
 699 738 699 738 716 724.5 c 128,-1,37
 733 711 733 711 737 688 c 1,38,-1
 737 328 l 1,39,-1
 738 328 l 1,22,23
EndSplineSet
EndChar

StartChar: checkbox
Encoding: 57358 57358 14
Width: 1000
Flags: W
LayerCount: 2
Fore
SplineSet
413 378 m 1,0,1
 415 381 415 381 417.5 384.5 c 128,-1,2
 420 388 420 388 422 388 c 0,3,4
 562 596 562 596 697 791 c 0,5,6
 711 810 711 810 724.5 812 c 128,-1,7
 738 814 738 814 759 800 c 0,8,9
 771 793 771 793 795 774 c 2,10,-1
 806 766 l 2,11,12
 821 753 821 753 824 739.5 c 128,-1,13
 827 726 827 726 816 713 c 0,14,15
 758 630 758 630 644 462.5 c 128,-1,16
 530 295 530 295 472 212 c 0,17,18
 453 187 453 187 431 184.5 c 128,-1,19
 409 182 409 182 388 203 c 2,20,-1
 188 403 l 2,21,22
 159 431 159 431 188 459 c 0,23,24
 199 473 199 473 218 491 c 2,25,-1
 228 500 l 2,26,27
 247 519 247 519 259.5 519 c 128,-1,28
 272 519 272 519 291 500 c 2,29,-1
 409 381 l 2,30,31
 409 386 409 386 411 383.5 c 128,-1,32
 413 381 413 381 413 378 c 1,0,1
EndSplineSet
EndChar

StartChar: cjsx
Encoding: 57365 57365 15
AltUni2: 00e014.ffffffff.0 00e00f.ffffffff.0
Width: 1000
Flags: W
LayerCount: 2
Fore
SplineSet
525 716 m 0,0,1
 517 714 517 714 509 710 c 2,2,-1
 453 684 l 2,3,4
 434 675 434 675 412.5 673 c 128,-1,5
 391 671 391 671 384 679 c 128,-1,6
 377 687 377 687 385.5 692 c 128,-1,7
 394 697 394 697 416 697 c 0,8,9
 452 697 452 697 438 706 c 128,-1,10
 424 715 424 715 398.5 710.5 c 128,-1,11
 373 706 373 706 366 694 c 0,12,13
 363 687 363 687 363.5 683 c 128,-1,14
 364 679 364 679 369 672 c 0,15,16
 381 659 381 659 394 655 c 128,-1,17
 407 651 407 651 431 653 c 0,18,19
 450 653 450 653 462.5 656.5 c 128,-1,20
 475 660 475 660 494 672 c 0,21,22
 522 686 522 686 550 692.5 c 128,-1,23
 578 699 578 699 597 697 c 128,-1,24
 616 695 616 695 620 688.5 c 128,-1,25
 624 682 624 682 613 674.5 c 128,-1,26
 602 667 602 667 583.5 666.5 c 128,-1,27
 565 666 565 666 556 675 c 0,28,29
 546 680 546 680 537 679 c 128,-1,30
 528 678 528 678 528 669.5 c 128,-1,31
 528 661 528 661 541.5 655 c 128,-1,32
 555 649 555 649 575.5 647.5 c 128,-1,33
 596 646 596 646 616 650 c 0,34,35
 638 655 638 655 646.5 667.5 c 128,-1,36
 655 680 655 680 646.5 694 c 128,-1,37
 638 708 638 708 616 716 c 0,38,39
 598 719 598 719 573 719 c 0,40,41
 542 720 542 720 525 716 c 0,0,1
259 675 m 0,42,43
 253 671 253 671 248.5 665 c 128,-1,44
 244 659 244 659 244 656 c 0,45,46
 241 647 241 647 258 634.5 c 128,-1,47
 275 622 275 622 303 613.5 c 128,-1,48
 331 605 331 605 346 602 c 0,49,50
 366 598 366 598 403 594 c 0,51,52
 429 591 429 591 515.5 591 c 128,-1,53
 602 591 602 591 625 594 c 0,54,55
 631 595 631 595 645 596.5 c 128,-1,56
 659 598 659 598 662 600 c 0,57,58
 681 603 681 603 713 612 c 0,59,60
 748 622 748 622 756 628 c 0,61,62
 770 635 770 635 776.5 645 c 128,-1,63
 783 655 783 655 778.5 663 c 128,-1,64
 774 671 774 671 766.5 678 c 128,-1,65
 759 685 759 685 754.5 684.5 c 128,-1,66
 750 684 750 684 753 675 c 0,67,68
 756 663 756 663 735.5 651 c 128,-1,69
 715 639 715 639 677.5 630.5 c 128,-1,70
 640 622 640 622 594 619 c 0,71,72
 568 616 568 616 510 616 c 128,-1,73
 452 616 452 616 438 619 c 2,74,-1
 424 620 l 2,75,76
 403 622 403 622 394 622 c 0,77,78
 354 624 354 624 317.5 637.5 c 128,-1,79
 281 651 281 651 278 663 c 0,80,81
 278 675 278 675 281 678 c 0,82,83
 286 693 286 693 259 675 c 0,42,43
250 591 m 0,84,85
 250 582 250 582 256 560 c 2,86,-1
 259 544 l 1,87,-1
 269 519 l 1,88,-1
 256 509 l 2,89,90
 238 491 238 491 231 481 c 0,91,92
 223 466 223 466 221 458 c 0,93,94
 219 448 219 448 219 428 c 0,95,96
 219 399 219 399 226 384 c 128,-1,97
 233 369 233 369 256 353 c 0,98,99
 267 344 267 344 276 342 c 0,100,101
 283 341 283 341 303 341 c 0,102,103
 321 341 321 341 331.5 343.5 c 128,-1,104
 342 346 342 346 340.5 349 c 128,-1,105
 339 352 339 352 325 353 c 0,106,107
 309 355 309 355 289.5 373 c 128,-1,108
 270 391 270 391 263 409 c 0,109,110
 256 425 256 425 257 447 c 128,-1,111
 258 469 258 469 266 481 c 0,112,113
 269 487 269 487 275 494 c 1,114,-1
 275 494 l 1,115,-1
 288 475 l 2,116,117
 313 437 313 437 328 413 c 0,118,119
 342 394 342 394 352.5 375 c 128,-1,120
 363 356 363 356 366 347 c 0,121,122
 375 321 375 321 391.5 307 c 128,-1,123
 408 293 408 293 436.5 287 c 128,-1,124
 465 281 465 281 513 281 c 0,125,126
 582 281 582 281 615 296.5 c 128,-1,127
 648 312 648 312 662 350 c 0,128,129
 666 365 666 365 700 412 c 0,130,131
 737 464 737 464 744 484 c 0,132,133
 756 510 756 510 768.5 550.5 c 128,-1,134
 781 591 781 591 781 603 c 0,135,136
 781 610 781 610 780 610 c 128,-1,137
 779 610 779 610 772 603 c 0,138,139
 760 591 760 591 722.5 580.5 c 128,-1,140
 685 570 685 570 634 566 c 0,141,142
 591 561 591 561 489.5 563 c 128,-1,143
 388 565 388 565 356 572 c 0,144,145
 353 572 353 572 346 573 c 0,146,147
 336 575 336 575 331 575 c 0,148,149
 317 577 317 577 287 589 c 0,150,151
 262 600 262 600 253 606 c 0,152,153
 246 613 246 613 250 591 c 0,84,85
EndSplineSet
EndChar

StartChar: clock
Encoding: 57481 57481 16
AltUni2: 00e010.ffffffff.0
Width: 1000
Flags: W
LayerCount: 2
Fore
SplineSet
484 781 m 2,0,-1
 522 781 l 2,1,2
 530 780 530 780 544 778.5 c 128,-1,3
 558 777 558 777 566 775 c 0,4,5
 622 761 622 761 669 728 c 0,6,7
 707 699 707 699 728 666 c 0,8,9
 769 612 769 612 778 541 c 0,10,11
 778 538 778 538 779.5 531 c 128,-1,12
 781 524 781 524 781 519 c 2,13,-1
 781 478 l 2,14,15
 780 472 780 472 778.5 460.5 c 128,-1,16
 777 449 777 449 775 444 c 0,17,18
 760 383 760 383 728.5 338 c 128,-1,19
 697 293 697 293 644 259 c 0,20,21
 614 243 614 243 591 235 c 0,22,23
 562 224 562 224 534 222 c 0,24,25
 531 222 531 222 525 220.5 c 128,-1,26
 519 219 519 219 516 219 c 2,27,-1
 475 219 l 2,28,29
 469 220 469 220 457.5 221.5 c 128,-1,30
 446 223 446 223 441 225 c 0,31,32
 380 240 380 240 335 271.5 c 128,-1,33
 290 303 290 303 256 356 c 0,34,35
 240 386 240 386 232 409 c 0,36,37
 221 438 221 438 219 466 c 0,38,39
 221 468 221 468 220 474.5 c 128,-1,40
 219 481 219 481 219 484 c 2,41,-1
 219 522 l 2,42,43
 220 530 220 530 221.5 544 c 128,-1,44
 223 558 223 558 225 566 c 0,45,46
 239 622 239 622 272 669 c 0,47,48
 301 711 301 711 356 744 c 0,49,50
 406 774 406 774 459 778 c 0,51,52
 464 778 464 778 472 779.5 c 128,-1,53
 480 781 480 781 484 781 c 2,0,-1
266 494 m 0,54,55
 267 431 267 431 299.5 378 c 128,-1,56
 332 325 332 325 386 293.5 c 128,-1,57
 440 262 440 262 504 262.5 c 128,-1,58
 568 263 568 263 622.5 295.5 c 128,-1,59
 677 328 677 328 708 384 c 128,-1,60
 739 440 739 440 738 506 c 0,61,62
 736 568 736 568 703 621 c 128,-1,63
 670 674 670 674 616 704 c 0,64,65
 559 736 559 736 494 734 c 0,66,67
 432 733 432 733 379 701 c 128,-1,68
 326 669 326 669 296 615 c 0,69,70
 264 559 264 559 266 494 c 0,54,55
513 500 m 2,71,72
 516 503 516 503 523.5 507.5 c 128,-1,73
 531 512 531 512 534 516 c 0,74,75
 591 553 591 553 616 572 c 2,76,-1
 619 574 l 2,77,78
 622 576 622 576 622 578 c 0,79,80
 626 583 626 583 632.5 581.5 c 128,-1,81
 639 580 639 580 643.5 575.5 c 128,-1,82
 648 571 648 571 647 564.5 c 128,-1,83
 646 558 646 558 641 553 c 2,84,-1
 590 518 l 2,85,86
 556 495 556 495 541 481 c 2,87,-1
 506 456 l 2,88,89
 499 452 499 452 491.5 455 c 128,-1,90
 484 458 484 458 484 466 c 2,91,-1
 484 669 l 2,92,93
 484 684 484 684 497 684 c 0,94,95
 502 687 502 687 507.5 683 c 128,-1,96
 513 679 513 679 513 672 c 2,97,-1
 513 500 l 1,98,-1
 513 501 l 1,99,-1
 513 500 l 2,71,72
EndSplineSet
EndChar

StartChar: clojure
Encoding: 57361 57361 17
Width: 1000
Flags: W
LayerCount: 2
Fore
SplineSet
491 488 m 1,0,-1
 481 469 l 2,1,2
 457 421 457 421 453 391 c 0,3,4
 450 384 450 384 450 366 c 2,5,-1
 450 353 l 1,6,7
 473 344 473 344 500 344 c 0,8,9
 516 344 516 344 547 350 c 1,10,-1
 538 359 l 1,11,12
 526 379 526 379 515 411 c 0,13,14
 506 437 506 437 491 488 c 1,0,-1
419 616 m 1,15,16
 390 594 390 594 373 562 c 128,-1,17
 356 530 356 530 356 493.5 c 128,-1,18
 356 457 356 457 373 425.5 c 128,-1,19
 390 394 390 394 419 372 c 1,20,21
 423 389 423 389 433 411 c 0,22,23
 439 425 439 425 456 457 c 0,24,25
 474 493 474 493 484 516 c 0,26,27
 483 519 483 519 481.5 525 c 128,-1,28
 480 531 480 531 478 534 c 0,29,30
 462 577 462 577 444 600 c 1,31,32
 430 605 430 605 419 616 c 1,15,16
634 322 m 0,33,34
 597 328 597 328 584 331 c 1,35,36
 547 313 547 313 506 313 c 0,37,38
 457 313 457 313 416.5 337 c 128,-1,39
 376 361 376 361 352 402 c 128,-1,40
 328 443 328 443 328 491 c 0,41,42
 328 529 328 529 345 565 c 0,43,44
 360 598 360 598 388 625 c 1,45,46
 378 628 378 628 356 628 c 0,47,48
 313 628 313 628 280 604 c 0,49,50
 243 576 243 576 225 519 c 0,51,52
 222 506 222 506 222 488 c 0,53,54
 222 411 222 411 259.5 346.5 c 128,-1,55
 297 282 297 282 361.5 244 c 128,-1,56
 426 206 426 206 503 206 c 0,57,58
 572 206 572 206 634 239 c 0,59,60
 694 270 694 270 734 325 c 1,61,62
 692 316 692 316 656 316 c 1,63,64
 647 322 647 322 634 322 c 0,33,34
503 775 m 0,65,66
 434 775 434 775 373.5 743 c 128,-1,67
 313 711 313 711 275 656 c 1,68,69
 310 678 310 678 353 678 c 0,70,71
 374 678 374 678 396 673 c 0,72,73
 413 668 413 668 425 663 c 0,74,75
 427 661 427 661 430 659.5 c 128,-1,76
 433 658 433 658 434 656 c 0,77,78
 471 672 471 672 506 672 c 0,79,80
 555 672 555 672 596 647.5 c 128,-1,81
 637 623 637 623 660.5 582.5 c 128,-1,82
 684 542 684 542 684 494 c 0,83,84
 684 424 684 424 631 366 c 1,85,-1
 656 366 l 2,86,87
 715 366 715 366 747 394 c 0,88,89
 776 417 776 417 784 459 c 0,90,91
 784 466 784 466 786 479 c 0,92,93
 788 489 788 489 787 494 c 0,94,95
 786 571 786 571 747.5 635.5 c 128,-1,96
 709 700 709 700 646 737 c 0,97,98
 580 775 580 775 503 775 c 0,65,66
EndSplineSet
EndChar

StartChar: code-climate
Encoding: 57362 57362 18
Width: 1200
Flags: W
LayerCount: 2
Fore
SplineSet
723 379 m 2,0,1
 722 377 722 377 719 374 c 2,2,-1
 644 303 l 2,3,4
 641 299 641 299 638 299.5 c 128,-1,5
 635 300 635 300 632 304 c 2,6,-1
 474 455 l 1,7,-1
 320 306 l 2,8,9
 314 301 314 301 310 301 c 128,-1,10
 306 301 306 301 301 306 c 0,11,12
 284 323 284 323 247 358 c 2,13,-1
 222 382 l 1,14,-1
 229 387 l 2,15,16
 238 392 238 392 241 396 c 0,17,18
 363 512 363 512 466 611 c 0,19,20
 471 616 471 616 474.5 616 c 128,-1,21
 478 616 478 616 483 612 c 2,22,-1
 717 387 l 1,23,-1
 723 379 l 2,0,1
728 700 m 1,24,25
 751 678 751 678 797 634 c 2,26,-1
 978 461 l 1,27,-1
 893 379 l 1,28,-1
 728 536 l 1,29,-1
 670 481 l 1,30,-1
 585 563 l 1,31,-1
 728 700 l 1,24,25
EndSplineSet
EndChar

StartChar: code-search
Encoding: 57363 57363 19
Width: 1000
Flags: W
LayerCount: 2
Fore
SplineSet
574 837 m 1,0,1
 509 837 509 837 453.5 800.5 c 128,-1,2
 398 764 398 764 371.5 703.5 c 128,-1,3
 345 643 345 643 354.5 577.5 c 128,-1,4
 364 512 364 512 408 462 c 1,5,-1
 190 212 l 1,6,-1
 220 185 l 1,7,-1
 437 434 l 1,8,9
 480 400 480 400 533 390 c 128,-1,10
 586 380 586 380 637.5 395.5 c 128,-1,11
 689 411 689 411 728 449 c 128,-1,12
 767 487 767 487 784.5 538.5 c 128,-1,13
 802 590 802 590 794.5 643.5 c 128,-1,14
 787 697 787 697 755.5 741.5 c 128,-1,15
 724 786 724 786 676 811 c 128,-1,16
 628 836 628 836 574 836 c 1,17,-1
 574 837 l 1,0,1
574 427 m 0,18,19
 519 427 519 427 473 458.5 c 128,-1,20
 427 490 427 490 406 541.5 c 128,-1,21
 385 593 385 593 396 647.5 c 128,-1,22
 407 702 407 702 446 741.5 c 128,-1,23
 485 781 485 781 539 792 c 128,-1,24
 593 803 593 803 644 781.5 c 128,-1,25
 695 760 695 760 725.5 713.5 c 128,-1,26
 756 667 756 667 756 612 c 0,27,28
 756 575 756 575 742.5 541 c 128,-1,29
 729 507 729 507 703.5 481 c 128,-1,30
 678 455 678 455 644.5 441 c 128,-1,31
 611 427 611 427 574 427 c 0,18,19
575 796 m 1,32,33
 521 796 521 796 475 766.5 c 128,-1,34
 429 737 429 737 406.5 687 c 128,-1,35
 384 637 384 637 392.5 583 c 128,-1,36
 401 529 401 529 437 488 c 1,37,-1
 256 282 l 1,38,-1
 282 259 l 1,39,-1
 461 464 l 1,40,41
 497 436 497 436 541 428 c 128,-1,42
 585 420 585 420 627.5 432.5 c 128,-1,43
 670 445 670 445 702.5 476.5 c 128,-1,44
 735 508 735 508 749.5 550.5 c 128,-1,45
 764 593 764 593 757.5 637.5 c 128,-1,46
 751 682 751 682 725 718.5 c 128,-1,47
 699 755 699 755 659.5 775.5 c 128,-1,48
 620 796 620 796 575 796 c 1,49,-1
 575 796 l 1,32,33
575 459 m 0,50,51
 529 459 529 459 491 484.5 c 128,-1,52
 453 510 453 510 435.5 552.5 c 128,-1,53
 418 595 418 595 427 640 c 128,-1,54
 436 685 436 685 468.5 718 c 128,-1,55
 501 751 501 751 546 760 c 128,-1,56
 591 769 591 769 633 751 c 128,-1,57
 675 733 675 733 701 695 c 0,58,59
 731 650 731 650 725.5 596 c 128,-1,60
 720 542 720 542 682 503 c 0,61,62
 661 482 661 482 633 470.5 c 128,-1,63
 605 459 605 459 575 459 c 0,50,51
176 226 m 1,64,-1
 423 506 l 1,65,-1
 493 444 l 1,66,-1
 247 164 l 1,67,-1
 176 226 l 1,64,-1
EndSplineSet
EndChar

StartChar: coldfusion
Encoding: 57366 57366 20
Width: 1000
Flags: W
LayerCount: 2
Fore
SplineSet
338 547 m 0,0,1
 333 547 333 547 325 548 c 0,2,3
 305 549 305 549 297 547 c 2,4,-1
 287 546 l 2,5,6
 240 540 240 540 220 533 c 0,7,8
 185 521 185 521 166 494 c 0,9,10
 132 451 132 451 126.5 405 c 128,-1,11
 121 359 121 359 144 313 c 0,12,13
 188 224 188 224 297 219 c 1,14,-1
 422 219 l 1,15,16
 538 223 538 223 609 319 c 0,17,18
 647 366 647 366 666 422 c 0,19,20
 673 441 673 441 683.5 448.5 c 128,-1,21
 694 456 694 456 713 456 c 0,22,23
 729 454 729 454 760 456 c 2,24,-1
 784 456 l 2,25,26
 795 456 795 456 799 458 c 0,27,28
 806 461 806 461 806 469 c 2,29,-1
 808 480 l 2,30,31
 811 501 811 501 811 511 c 0,32,33
 810 528 810 528 803 541 c 0,34,35
 799 549 799 549 790 551 c 0,36,37
 785 552 785 552 773 550.5 c 128,-1,38
 761 549 761 549 756 550 c 2,39,-1
 741 550 l 2,40,41
 728 550 728 550 724.5 554.5 c 128,-1,42
 721 559 721 559 725 572 c 0,43,44
 756 644 756 644 822 666 c 0,45,46
 827 668 827 668 839.5 669 c 128,-1,47
 852 670 852 670 857 673 c 0,48,49
 866 676 866 676 869 684 c 0,50,51
 874 691 874 691 875 703 c 0,52,53
 876 710 876 710 875 726 c 2,54,-1
 875 766 l 2,55,56
 875 781 875 781 856 781 c 0,57,58
 806 776 806 776 771 762 c 0,59,60
 729 745 729 745 703 713 c 0,61,62
 675 675 675 675 650 629 c 0,63,64
 630 590 630 590 609 538 c 1,65,-1
 603 519 l 2,66,67
 583 466 583 466 572 441 c 0,68,69
 552 400 552 400 528 372 c 0,70,71
 499 338 499 338 456 328 c 0,72,73
 371 315 371 315 278 334 c 0,74,75
 255 339 255 339 243 354 c 128,-1,76
 231 369 231 369 231 391.5 c 128,-1,77
 231 414 231 414 245 430 c 128,-1,78
 259 446 259 446 284 453 c 0,79,80
 303 457 303 457 340 458 c 0,81,82
 366 458 366 458 379 458.5 c 128,-1,83
 392 459 392 459 397.5 464.5 c 128,-1,84
 403 470 403 470 403 484 c 2,85,-1
 403 502 l 2,86,87
 403 530 403 530 402 537 c 0,88,89
 400 547 400 547 392 549 c 0,90,91
 387 551 387 551 365 550 c 2,92,-1
 341 550 l 2,93,94
 343 548 343 548 342 547.5 c 128,-1,95
 341 547 341 547 338 547 c 0,0,1
EndSplineSet
EndChar

StartChar: config
Encoding: 57367 57367 21
Width: 1000
Flags: W
LayerCount: 2
Fore
SplineSet
766 459 m 0,0,1
 758 461 758 461 743 467 c 2,2,-1
 731 472 l 1,3,4
 731 483 731 483 729.5 503 c 128,-1,5
 728 523 728 523 728 534 c 0,6,7
 728 536 728 536 729.5 537.5 c 128,-1,8
 731 539 731 539 731 541 c 2,9,-1
 766 556 l 2,10,11
 775 561 775 561 778 569.5 c 128,-1,12
 781 578 781 578 778 587 c 2,13,-1
 750 650 l 2,14,15
 745 660 745 660 736.5 663.5 c 128,-1,16
 728 667 728 667 719 662 c 2,17,-1
 684 647 l 2,18,19
 678 647 678 647 678 650 c 0,20,21
 674 656 674 656 663 666 c 2,22,-1
 656 672 l 2,23,24
 653 675 653 675 645.5 681.5 c 128,-1,25
 638 688 638 688 634 691 c 1,26,27
 638 697 638 697 642.5 709.5 c 128,-1,28
 647 722 647 722 650 728 c 0,29,30
 655 740 655 740 650.5 749 c 128,-1,31
 646 758 646 758 634 762 c 0,32,33
 621 765 621 765 591 775 c 2,34,-1
 575 781 l 2,35,36
 563 786 563 786 554 781.5 c 128,-1,37
 545 777 545 777 541 766 c 0,38,39
 539 758 539 758 533 743 c 2,40,-1
 528 731 l 1,41,42
 517 731 517 731 497 729.5 c 128,-1,43
 477 728 477 728 466 728 c 0,44,45
 464 728 464 728 462.5 729.5 c 128,-1,46
 461 731 461 731 459 731 c 2,47,-1
 444 766 l 2,48,49
 439 775 439 775 430.5 778 c 128,-1,50
 422 781 422 781 413 778 c 2,51,-1
 350 750 l 2,52,53
 340 745 340 745 336.5 736.5 c 128,-1,54
 333 728 333 728 338 719 c 2,55,-1
 353 684 l 2,56,57
 353 678 353 678 350 678 c 2,58,-1
 343 672 l 2,59,60
 336 667 336 667 334 663 c 0,61,62
 330 658 330 658 322 648.5 c 128,-1,63
 314 639 314 639 309 634 c 1,64,65
 302 636 302 636 287 642 c 2,66,-1
 275 647 l 2,67,68
 263 652 263 652 254 647.5 c 128,-1,69
 245 643 245 643 241 631 c 2,70,-1
 236 619 l 2,71,72
 224 589 224 589 219 575 c 128,-1,73
 214 561 214 561 217.5 553 c 128,-1,74
 221 545 221 545 234 541 c 0,75,76
 242 539 242 539 257 533 c 2,77,-1
 269 528 l 1,78,79
 269 517 269 517 270.5 497 c 128,-1,80
 272 477 272 477 272 466 c 0,81,82
 272 464 272 464 270.5 462.5 c 128,-1,83
 269 461 269 461 269 459 c 2,84,-1
 234 444 l 2,85,86
 225 439 225 439 222 430.5 c 128,-1,87
 219 422 219 422 222 413 c 2,88,-1
 250 350 l 2,89,90
 255 340 255 340 263.5 336.5 c 128,-1,91
 272 333 272 333 281 338 c 2,92,-1
 316 353 l 2,93,94
 322 353 322 353 322 350 c 0,95,96
 326 344 326 344 337 334 c 2,97,-1
 344 328 l 2,98,99
 347 325 347 325 354.5 319 c 128,-1,100
 362 313 362 313 366 309 c 1,101,102
 363 303 363 303 358 290.5 c 128,-1,103
 353 278 353 278 350 272 c 0,104,105
 345 260 345 260 349.5 251 c 128,-1,106
 354 242 354 242 366 237 c 0,107,108
 373 235 373 235 389 229 c 0,109,110
 412 219 412 219 425.5 215 c 128,-1,111
 439 211 439 211 447 214 c 128,-1,112
 455 217 455 217 459 231 c 0,113,114
 461 239 461 239 467 254 c 2,115,-1
 472 266 l 1,116,117
 483 266 483 266 503 267.5 c 128,-1,118
 523 269 523 269 534 269 c 0,119,120
 536 269 536 269 537.5 267.5 c 128,-1,121
 539 266 539 266 541 266 c 2,122,-1
 556 231 l 2,123,124
 561 222 561 222 569.5 219 c 128,-1,125
 578 216 578 216 587 219 c 2,126,-1
 650 247 l 2,127,128
 660 252 660 252 663.5 260.5 c 128,-1,129
 667 269 667 269 662 278 c 2,130,-1
 647 312 l 2,131,132
 647 319 647 319 650 319 c 0,133,134
 656 323 656 323 666 334 c 2,135,-1
 672 341 l 2,136,137
 675 344 675 344 681 351.5 c 128,-1,138
 687 359 687 359 691 362 c 0,139,140
 698 361 698 361 713 354 c 2,141,-1
 725 350 l 2,142,143
 737 345 737 345 746 349.5 c 128,-1,144
 755 354 755 354 759 366 c 0,145,146
 762 373 762 373 768 389 c 0,147,148
 778 412 778 412 781 425 c 0,149,150
 792 451 792 451 766 459 c 0,0,1
547 394 m 0,151,152
 502 375 502 375 458.5 392 c 128,-1,153
 415 409 415 409 394 453 c 0,154,155
 375 498 375 498 392 541.5 c 128,-1,156
 409 585 409 585 453 606 c 0,157,158
 498 625 498 625 541.5 608 c 128,-1,159
 585 591 585 591 606 547 c 0,160,161
 625 502 625 502 608 458.5 c 128,-1,162
 591 415 591 415 547 394 c 0,151,152
EndSplineSet
EndChar

StartChar: cpp
Encoding: 57368 57368 22
Width: 1000
Flags: W
LayerCount: 2
Fore
SplineSet
259 516 m 0,0,1
 259 575 259 575 278 622 c 128,-1,2
 297 669 297 669 327.5 699.5 c 128,-1,3
 358 730 358 730 403 750 c 0,4,5
 438 766 438 766 494 766 c 0,6,7
 541 766 541 766 578.5 747 c 128,-1,8
 616 728 616 728 641 703 c 1,9,-1
 572 625 l 1,10,-1
 564 631 l 2,11,12
 547 644 547 644 538 647 c 2,13,-1
 527 650 l 2,14,15
 507 656 507 656 494 656 c 0,16,17
 472 656 472 656 453 647 c 0,18,19
 432 636 432 636 419 618.5 c 128,-1,20
 406 601 406 601 397 574 c 128,-1,21
 388 547 388 547 388 516 c 0,22,23
 388 444 388 444 419 413 c 0,24,25
 435 393 435 393 455 384 c 128,-1,26
 475 375 475 375 500 375 c 128,-1,27
 525 375 525 375 544 384 c 0,28,29
 565 395 565 395 578 413 c 1,30,-1
 647 334 l 1,31,32
 618 301 618 301 578 281 c 0,33,34
 541 263 541 263 494 263 c 0,35,36
 450 263 450 263 403 278 c 0,37,38
 361 292 361 292 328 325 c 0,39,40
 314 340 314 340 301 364 c 0,41,42
 294 378 294 378 281 409 c 0,43,44
 259 453 259 453 259 516 c 0,0,1
569 597 m 1,45,-1
 525 597 l 1,46,-1
 525 544 l 1,47,-1
 475 544 l 1,48,-1
 475 500 l 1,49,-1
 525 500 l 1,50,-1
 525 444 l 1,51,-1
 569 444 l 1,52,-1
 569 500 l 1,53,-1
 619 500 l 1,54,-1
 619 544 l 1,55,-1
 569 544 l 1,56,-1
 569 597 l 1,45,-1
756 547 m 1,57,-1
 756 609 l 1,58,-1
 703 609 l 1,59,-1
 703 547 l 1,60,-1
 644 547 l 1,61,-1
 644 494 l 1,62,-1
 703 494 l 1,63,-1
 703 428 l 1,64,-1
 756 428 l 1,65,-1
 756 494 l 1,66,-1
 816 494 l 1,67,-1
 816 547 l 1,68,-1
 756 547 l 1,57,-1
EndSplineSet
EndChar

StartChar: crystal
Encoding: 57369 57369 23
Width: 1000
Flags: W
LayerCount: 2
Fore
SplineSet
500 880 m 1,0,-1
 336 785 l 1,1,-1
 171 690 l 1,2,-1
 171 310 l 1,3,-1
 500 120 l 1,4,-1
 829 310 l 1,5,-1
 829 690 l 1,6,-1
 664 785 l 1,7,-1
 500 880 l 1,0,-1
414 353 m 1,8,-1
 328 502 l 1,9,-1
 242 651 l 1,10,-1
 586 651 l 1,11,-1
 500 502 l 1,12,-1
 414 353 l 1,8,-1
EndSplineSet
EndChar

StartChar: crystal_embedded
Encoding: 57370 57370 24
Width: 1000
Flags: W
LayerCount: 2
Fore
SplineSet
500 880 m 1,0,-1
 336 785 l 1,1,-1
 171 690 l 1,2,-1
 171 310 l 1,3,-1
 500 120 l 1,4,-1
 829 310 l 1,5,-1
 829 690 l 1,6,-1
 664 785 l 1,7,-1
 500 880 l 1,0,-1
440 343 m 1,8,-1
 263 492 l 1,9,-1
 440 640 l 1,10,-1
 481 599 l 1,11,-1
 351 492 l 1,12,-1
 481 384 l 1,13,-1
 440 343 l 1,8,-1
560 640 m 1,14,-1
 737 492 l 1,15,-1
 560 343 l 1,16,-1
 520 384 l 1,17,-1
 649 491 l 1,18,-1
 520 599 l 1,19,-1
 560 640 l 1,14,-1
EndSplineSet
EndChar

StartChar: css
Encoding: 57371 57371 25
Width: 1000
Flags: W
LayerCount: 2
Fore
SplineSet
322 272 m 1,0,-1
 347 397 l 1,1,-1
 269 397 l 1,2,-1
 269 463 l 1,3,-1
 363 463 l 1,4,-1
 378 541 l 1,5,-1
 297 541 l 1,6,-1
 297 606 l 1,7,-1
 394 606 l 1,8,-1
 419 728 l 1,9,-1
 506 728 l 1,10,-1
 481 606 l 1,11,-1
 569 606 l 1,12,-1
 594 728 l 1,13,-1
 681 728 l 1,14,-1
 656 606 l 1,15,-1
 734 606 l 1,16,-1
 734 541 l 1,17,-1
 644 541 l 1,18,-1
 625 463 l 1,19,-1
 706 463 l 1,20,-1
 706 397 l 1,21,-1
 613 397 l 1,22,-1
 588 272 l 1,23,-1
 500 272 l 1,24,-1
 525 397 l 1,25,-1
 438 397 l 1,26,-1
 413 272 l 1,27,-1
 322 272 l 1,0,-1
538 462 m 1,28,-1
 553 541 l 1,29,-1
 466 541 l 1,30,-1
 450 462 l 1,31,-1
 538 462 l 1,28,-1
EndSplineSet
EndChar

StartChar: csv
Encoding: 57372 57372 26
Width: 1000
Flags: W
LayerCount: 2
Fore
SplineSet
219 778 m 1,0,-1
 219 222 l 1,1,-1
 781 222 l 1,2,-1
 781 778 l 1,3,-1
 219 778 l 1,0,-1
309 663 m 1,4,-1
 469 663 l 1,5,-1
 469 622 l 1,6,-1
 309 622 l 1,7,-1
 309 663 l 1,4,-1
528 663 m 1,8,-1
 688 663 l 1,9,-1
 688 622 l 1,10,-1
 528 622 l 1,11,-1
 528 663 l 1,8,-1
309 569 m 1,12,-1
 469 569 l 1,13,-1
 469 528 l 1,14,-1
 309 528 l 1,15,-1
 309 569 l 1,12,-1
528 569 m 1,16,-1
 688 569 l 1,17,-1
 688 528 l 1,18,-1
 528 528 l 1,19,-1
 528 569 l 1,16,-1
309 475 m 1,20,-1
 469 475 l 1,21,-1
 469 434 l 1,22,-1
 309 434 l 1,23,-1
 309 475 l 1,20,-1
528 475 m 1,24,-1
 688 475 l 1,25,-1
 688 434 l 1,26,-1
 528 434 l 1,27,-1
 528 475 l 1,24,-1
309 381 m 1,28,-1
 469 381 l 1,29,-1
 469 341 l 1,30,-1
 309 341 l 1,31,-1
 309 381 l 1,28,-1
528 381 m 1,32,-1
 688 381 l 1,33,-1
 688 341 l 1,34,-1
 528 341 l 1,35,-1
 528 381 l 1,32,-1
EndSplineSet
EndChar

StartChar: d
Encoding: 57373 57373 27
Width: 1000
Flags: W
LayerCount: 2
Fore
SplineSet
734 506 m 0,0,1
 734 380 734 380 655.5 315 c 128,-1,2
 577 250 577 250 425 250 c 2,3,-1
 266 250 l 1,4,-1
 266 750 l 1,5,-1
 444 750 l 2,6,7
 584 750 584 750 659 684 c 0,8,9
 697 654 697 654 715.5 608.5 c 128,-1,10
 734 563 734 563 734 506 c 0,0,1
609 503 m 0,11,12
 609 666 609 666 447 666 c 2,13,-1
 384 666 l 1,14,-1
 384 338 l 1,15,-1
 438 338 l 2,16,17
 524 338 524 338 566.5 378.5 c 128,-1,18
 609 419 609 419 609 503 c 0,11,12
EndSplineSet
EndChar

StartChar: dart
Encoding: 57374 57374 28
Width: 1000
Flags: W
LayerCount: 2
Fore
SplineSet
795 551 m 1,0,-1
 671 674 l 1,1,-1
 572 773 l 2,2,3
 564 782 564 782 550.5 788 c 128,-1,4
 537 794 537 794 526 794 c 0,5,6
 502 794 502 794 488 786 c 2,7,-1
 315 699 l 1,8,-1
 303 693 l 1,9,-1
 211 501 l 2,10,11
 203 484 203 484 203 472 c 0,12,13
 203 442 203 442 224 421 c 2,14,-1
 443 202 l 1,15,-1
 692 202 l 1,16,-1
 692 305 l 1,17,-1
 795 305 l 1,18,-1
 795 551 l 1,0,-1
495 775 m 2,19,20
 506 782 506 782 526 782 c 0,21,22
 534 782 534 782 545 776.5 c 128,-1,23
 556 771 556 771 563 764 c 2,24,-1
 633 694 l 1,25,-1
 631 694 l 2,26,27
 622 695 622 695 613 695 c 2,28,-1
 336 695 l 1,29,-1
 495 775 l 2,19,20
679 215 m 1,30,-1
 448 215 l 1,31,-1
 332 331 l 2,32,33
 321 342 321 342 318 350.5 c 128,-1,34
 315 359 315 359 315 380 c 2,35,-1
 315 673 l 1,36,-1
 679 309 l 1,37,-1
 679 215 l 1,30,-1
EndSplineSet
EndChar

StartChar: db
Encoding: 57375 57375 29
Width: 1000
Flags: W
LayerCount: 2
Fore
SplineSet
513 563 m 0,0,1
 449 563 449 563 402 566 c 0,2,3
 344 570 344 570 294 581 c 0,4,5
 282 583 282 583 260 592 c 0,6,7
 248 598 248 598 241 600 c 0,8,9
 228 604 228 604 228 619 c 2,10,-1
 228 728 l 2,11,12
 228 733 228 733 230.5 737 c 128,-1,13
 233 741 233 741 237 741 c 2,14,-1
 247 745 l 2,15,16
 281 760 281 760 300 763 c 0,17,18
 352 775 352 775 416 779 c 0,19,20
 454 781 454 781 531 781 c 0,21,22
 636 781 636 781 719 759 c 0,23,24
 738 755 738 755 759 744 c 0,25,26
 772 740 772 740 772 725 c 2,27,-1
 772 616 l 2,28,29
 772 609 772 609 763 600 c 1,30,31
 738 588 738 588 725 584 c 2,32,-1
 681 577 l 2,33,34
 623 568 623 568 594 566 c 0,35,36
 580 564 580 564 552.5 564 c 128,-1,37
 525 564 525 564 513 563 c 0,0,1
772 556 m 1,38,-1
 772 444 l 2,39,40
 772 439 772 439 766.5 433.5 c 128,-1,41
 761 428 761 428 756 428 c 2,42,-1
 740 422 l 2,43,44
 710 412 710 412 697 409 c 0,45,46
 580 389 580 389 428 394 c 1,47,-1
 426 394 l 2,48,49
 376 397 376 397 350 400 c 0,50,51
 308 405 308 405 275 416 c 0,52,53
 262 419 262 419 238 431 c 0,54,55
 228 436 228 436 228 447 c 2,56,-1
 228 556 l 1,57,58
 290 535 290 535 364 527 c 0,59,60
 417 522 417 522 500 522 c 0,61,62
 575 519 575 519 636 526 c 0,63,64
 708 534 708 534 772 556 c 1,38,-1
772 381 m 1,65,-1
 772 272 l 2,66,67
 772 267 772 267 766.5 261.5 c 128,-1,68
 761 256 761 256 756 253 c 0,69,70
 731 244 731 244 719 240 c 0,71,72
 698 233 698 233 681 231 c 0,73,74
 490 203 490 203 303 234 c 0,75,76
 287 237 287 237 255 248 c 2,77,-1
 241 253 l 2,78,79
 234 255 234 255 231 260 c 128,-1,80
 228 265 228 265 228 275 c 2,81,-1
 228 381 l 1,82,83
 288 360 288 360 362 352 c 0,84,85
 415 347 415 347 500 347 c 0,86,87
 583 347 583 347 636 352 c 0,88,89
 710 360 710 360 772 381 c 1,65,-1
EndSplineSet
EndChar

StartChar: default
Encoding: 57376 57376 30
Width: 1200
Flags: W
LayerCount: 2
Fore
SplineSet
394 462 m 1,0,-1
 806 462 l 1,1,-1
 806 408 l 1,2,-1
 394 408 l 1,3,-1
 394 462 l 1,0,-1
394 593 m 1,4,-1
 624 593 l 1,5,-1
 624 538 l 1,6,-1
 394 538 l 1,7,-1
 394 593 l 1,4,-1
394 723 m 1,8,-1
 806 723 l 1,9,-1
 806 668 l 1,10,-1
 394 668 l 1,11,-1
 394 723 l 1,8,-1
394 332 m 1,12,-1
 700 332 l 1,13,-1
 700 277 l 1,14,-1
 394 277 l 1,15,-1
 394 332 l 1,12,-1
EndSplineSet
EndChar

StartChar: deprecation-cop
Encoding: 57377 57377 31
Width: 1000
Flags: W
LayerCount: 2
Fore
SplineSet
781 575 m 2,0,-1
 781 566 l 2,1,2
 780 564 780 564 778.5 561 c 128,-1,3
 777 558 777 558 775 556 c 0,4,5
 770 550 770 550 759 537.5 c 128,-1,6
 748 525 748 525 744 519 c 0,7,8
 725 500 725 500 725 481 c 0,9,10
 725 479 725 479 722 478 c 2,11,-1
 719 475 l 1,12,13
 620 452 620 452 522 447 c 0,14,15
 475 447 475 447 452 448 c 0,16,17
 413 450 413 450 381 456 c 2,18,-1
 281 475 l 2,19,20
 278 475 278 475 275 478 c 1,21,-1
 275 478 l 1,22,23
 275 502 275 502 253 519 c 0,24,25
 248 523 248 523 239 531 c 128,-1,26
 230 539 230 539 225 544 c 0,27,28
 213 558 213 558 217.5 572.5 c 128,-1,29
 222 587 222 587 241 594 c 0,30,31
 249 597 249 597 266 603 c 0,32,33
 295 614 295 614 309 622 c 0,34,35
 334 634 334 634 384 665 c 2,36,-1
 422 688 l 2,37,38
 442 703 442 703 458 711 c 0,39,40
 477 721 477 721 497 725 c 1,41,-1
 506 725 l 1,42,43
 537 717 537 717 578 694 c 0,44,45
 605 680 605 680 631 659 c 1,46,-1
 649 650 l 2,47,48
 683 631 683 631 700 623 c 0,49,50
 728 609 728 609 753 600 c 0,51,52
 765 598 765 598 772 592 c 128,-1,53
 779 586 779 586 781 575 c 2,0,-1
503 613 m 0,54,55
 475 613 475 613 450 588 c 2,56,-1
 448 586 l 2,57,58
 447 583 447 583 447 581 c 0,59,60
 452 544 452 544 475 516 c 0,61,62
 478 509 478 509 491 503 c 0,63,64
 512 494 512 494 528 516 c 0,65,66
 552 544 552 544 556 581 c 1,67,-1
 556 584 l 1,68,-1
 553 588 l 1,69,70
 528 613 528 613 503 613 c 0,54,55
494 275 m 0,71,72
 486 277 486 277 472 278.5 c 128,-1,73
 458 280 458 280 450 281 c 0,74,75
 414 288 414 288 383 307 c 0,76,77
 355 324 355 324 328 353 c 0,78,79
 298 388 298 388 281 422 c 0,80,81
 281 423 281 423 279.5 425 c 128,-1,82
 278 427 278 427 278 428 c 2,83,-1
 278 431 l 1,84,85
 502 375 502 375 725 431 c 1,86,-1
 725 425 l 1,87,88
 678 331 678 331 597 297 c 0,89,90
 559 278 559 278 516 278 c 2,91,-1
 509 278 l 2,92,93
 503 275 503 275 494 275 c 0,71,72
EndSplineSet
EndChar

StartChar: docker
Encoding: 57378 57378 32
Width: 1000
Flags: W
LayerCount: 2
Fore
SplineSet
453 731 m 1,0,-1
 516 731 l 1,1,-1
 516 669 l 1,2,-1
 453 669 l 1,3,-1
 453 731 l 1,0,-1
453 659 m 1,4,-1
 516 659 l 1,5,-1
 516 597 l 1,6,-1
 453 597 l 1,7,-1
 453 659 l 1,4,-1
453 584 m 1,8,-1
 516 584 l 1,9,-1
 516 522 l 1,10,-1
 453 522 l 1,11,-1
 453 584 l 1,8,-1
381 659 m 1,12,-1
 444 659 l 1,13,-1
 444 597 l 1,14,-1
 381 597 l 1,15,-1
 381 659 l 1,12,-1
381 584 m 1,16,-1
 444 584 l 1,17,-1
 444 522 l 1,18,-1
 381 522 l 1,19,-1
 381 584 l 1,16,-1
306 659 m 1,20,-1
 369 659 l 1,21,-1
 369 597 l 1,22,-1
 306 597 l 1,23,-1
 306 659 l 1,20,-1
306 584 m 1,24,-1
 369 584 l 1,25,-1
 369 522 l 1,26,-1
 306 522 l 1,27,-1
 306 584 l 1,24,-1
234 584 m 1,28,-1
 297 584 l 1,29,-1
 297 522 l 1,30,-1
 234 522 l 1,31,-1
 234 584 l 1,28,-1
528 584 m 1,32,-1
 591 584 l 1,33,-1
 591 522 l 1,34,-1
 528 522 l 1,35,-1
 528 584 l 1,32,-1
847 575 m 0,36,37
 822 581 822 581 806 581 c 0,38,39
 784 577 784 577 775 600 c 128,-1,40
 766 623 766 623 747 638 c 0,41,42
 733 654 733 654 720 650.5 c 128,-1,43
 707 647 707 647 700 628 c 0,44,45
 691 598 691 598 697 559 c 0,46,47
 702 538 702 538 697.5 530.5 c 128,-1,48
 693 523 693 523 671.5 518 c 128,-1,49
 650 513 650 513 404 512 c 0,50,51
 281 512 281 512 163 513 c 1,52,-1
 163 513 l 1,53,54
 158 513 158 513 155.5 503.5 c 128,-1,55
 153 494 153 494 153 481 c 0,56,57
 153 464 153 464 156 441 c 0,58,59
 159 411 159 411 166 397 c 0,60,61
 190 343 190 343 229 311 c 0,62,63
 272 276 272 276 328 272 c 1,64,-1
 469 272 l 2,65,66
 534 274 534 274 592 305 c 0,67,68
 644 332 644 332 694 384 c 0,69,70
 734 430 734 430 756 478 c 0,71,72
 765 495 765 495 785 499 c 128,-1,73
 805 503 805 503 815 506 c 0,74,75
 830 510 830 510 841 519 c 0,76,77
 844 525 844 525 853 534 c 0,78,79
 869 546 869 546 867.5 558 c 128,-1,80
 866 570 866 570 847 575 c 0,36,37
381 416 m 256,81,82
 391 416 391 416 398.5 409 c 128,-1,83
 406 402 406 402 406 390.5 c 128,-1,84
 406 379 406 379 399.5 372.5 c 128,-1,85
 393 366 393 366 382 366 c 128,-1,86
 371 366 371 366 363.5 372.5 c 128,-1,87
 356 379 356 379 356 390.5 c 128,-1,88
 356 402 356 402 363.5 409 c 128,-1,89
 371 416 371 416 381 416 c 256,81,82
228 347 m 1,90,91
 239 348 239 348 260 347 c 0,92,93
 288 346 288 346 300 350 c 0,94,95
 323 358 323 358 338.5 352.5 c 128,-1,96
 354 347 354 347 366 325 c 0,97,98
 371 314 371 314 383 305 c 0,99,100
 390 300 390 300 408 290 c 2,101,-1
 419 284 l 1,102,103
 367 277 367 277 315 294.5 c 128,-1,104
 263 312 263 312 228 347 c 1,90,91
EndSplineSet
EndChar

StartChar: editorconfig
Encoding: 57379 57379 33
Width: 1200
Flags: W
LayerCount: 2
Fore
SplineSet
811 607 m 256,0,1
 790 628 790 628 755 623 c 128,-1,2
 720 618 720 618 692 589 c 2,3,-1
 688 584 l 1,4,5
 672 605 672 605 658 615 c 0,6,7
 636 631 636 631 592 640 c 1,8,9
 605 678 605 678 596 711 c 128,-1,10
 587 744 587 744 561.5 753 c 128,-1,11
 536 762 536 762 507.5 741.5 c 128,-1,12
 479 721 479 721 466 682 c 0,13,14
 454 651 454 651 458 622 c 1,15,16
 435 604 435 604 413 550 c 0,17,18
 392 499 392 499 380 437 c 0,19,20
 368 372 368 372 372 324 c 0,21,22
 377 270 377 270 401.5 252.5 c 128,-1,23
 426 235 426 235 480 254 c 0,24,25
 528 270 528 270 587 310 c 0,26,27
 641 347 641 347 682.5 388 c 128,-1,28
 724 429 724 429 730 452 c 1,29,-1
 730 454 l 1,30,31
 767 458 767 458 796 488 c 0,32,33
 824 516 824 516 828 551 c 128,-1,34
 832 586 832 586 811 607 c 256,0,1
EndSplineSet
EndChar

StartChar: ejs
Encoding: 57412 57412 34
AltUni2: 00e024.ffffffff.0
Width: 1000
Flags: W
LayerCount: 2
Fore
SplineSet
234 534 m 1,0,-1
 434 719 l 1,1,-1
 434 631 l 1,2,-1
 284 500 l 1,3,-1
 434 369 l 1,4,-1
 434 281 l 1,5,-1
 234 466 l 1,6,-1
 234 534 l 1,0,-1
766 463 m 1,7,-1
 566 278 l 1,8,-1
 566 366 l 1,9,-1
 719 497 l 1,10,-1
 719 500 l 1,11,-1
 566 631 l 1,12,-1
 566 722 l 1,13,-1
 766 538 l 1,14,-1
 766 463 l 1,7,-1
EndSplineSet
EndChar

StartChar: elixir
Encoding: 57381 57381 35
Width: 1000
Flags: W
LayerCount: 2
Fore
SplineSet
541 687 m 0,0,1
 554 660 554 660 577 631 c 0,2,3
 591 614 591 614 622 582 c 0,4,5
 655 546 655 546 670 528 c 0,6,7
 694 496 694 496 705 466 c 0,8,9
 718 429 718 429 714 387 c 0,10,11
 708 309 708 309 670 257 c 0,12,13
 640 214 640 214 592 192 c 0,14,15
 554 174 554 174 512.5 172.5 c 128,-1,16
 471 171 471 171 432 183 c 0,17,18
 380 198 380 198 345 234 c 0,19,20
 301 279 301 279 285 352 c 0,21,22
 271 416 271 416 290 500 c 0,23,24
 308 574 308 574 348 652 c 0,25,26
 386 724 386 724 432 777.5 c 128,-1,27
 478 831 478 831 515 846 c 1,28,29
 512 811 512 811 519 767 c 0,30,31
 526 719 526 719 541 687 c 0,0,1
454 231 m 0,32,33
 495 222 495 222 511 222 c 0,34,35
 534 221 534 221 537 233 c 0,36,37
 544 264 544 264 368 283 c 1,38,39
 384 267 384 267 410.5 250.5 c 128,-1,40
 437 234 437 234 454 231 c 0,32,33
EndSplineSet
EndChar

StartChar: elixir_script
Encoding: 57382 57382 36
Width: 1000
Flags: W
LayerCount: 2
Fore
SplineSet
599 605 m 1,0,1
 607 597 607 597 622 582 c 0,2,3
 655 546 655 546 670 528 c 0,4,5
 694 496 694 496 705 466 c 0,6,7
 718 429 718 429 714 387 c 0,8,9
 708 309 708 309 670 257 c 0,10,11
 640 214 640 214 592 192 c 0,12,13
 554 174 554 174 512.5 172.5 c 128,-1,14
 471 171 471 171 432 183 c 0,15,16
 380 198 380 198 345 234 c 0,17,18
 301 279 301 279 285 352 c 0,19,20
 271 416 271 416 290 500 c 0,21,22
 308 574 308 574 348 652 c 0,23,24
 386 724 386 724 432 777.5 c 128,-1,25
 478 831 478 831 515 846 c 1,26,27
 512 813 512 813 518 770 c 0,28,29
 525 725 525 725 539 692 c 1,30,31
 528 693 528 693 518 693 c 0,32,33
 455 693 455 693 415.5 659 c 128,-1,34
 376 625 376 625 376 571 c 0,35,36
 376 540 376 540 391.5 522 c 128,-1,37
 407 504 407 504 454 484 c 2,38,-1
 483 472 l 2,39,40
 499 465 499 465 508 454 c 128,-1,41
 517 443 517 443 517 428 c 0,42,43
 517 403 517 403 498 389 c 128,-1,44
 479 375 479 375 447 375 c 0,45,46
 421 375 421 375 394.5 385.5 c 128,-1,47
 368 396 368 396 345 415 c 1,48,-1
 331 341 l 1,49,50
 359 328 359 328 389 321 c 0,51,52
 416 315 416 315 444 315 c 0,53,54
 511 315 511 315 550.5 348.5 c 128,-1,55
 590 382 590 382 590 438 c 0,56,57
 590 471 590 471 573.5 493 c 128,-1,58
 557 515 557 515 521 531 c 2,59,-1
 491 544 l 2,60,61
 446 565 446 565 446 586 c 128,-1,62
 446 607 446 607 464 620.5 c 128,-1,63
 482 634 482 634 510 634 c 128,-1,64
 538 634 538 634 560.5 626.5 c 128,-1,65
 583 619 583 619 599 604 c 1,66,-1
 599 605 l 1,0,1
454 231 m 0,67,68
 495 222 495 222 511 222 c 0,69,70
 534 221 534 221 537 233 c 0,71,72
 544 264 544 264 368 283 c 1,73,74
 384 267 384 267 410.5 250.5 c 128,-1,75
 437 234 437 234 454 231 c 0,67,68
EndSplineSet
EndChar

StartChar: elm
Encoding: 57383 57383 37
Width: 1000
Flags: W
LayerCount: 2
Fore
SplineSet
500 483 m 1,0,-1
 213 196 l 1,1,-1
 787 196 l 1,2,-1
 500 483 l 1,0,-1
676 340 m 1,3,-1
 804 213 l 1,4,-1
 804 468 l 1,5,-1
 676 340 l 1,3,-1
483 500 m 1,6,-1
 196 787 l 1,7,-1
 196 213 l 1,8,-1
 483 500 l 1,6,-1
804 534 m 1,9,-1
 804 804 l 1,10,-1
 534 804 l 1,11,-1
 804 534 l 1,9,-1
660 644 m 1,12,-1
 803 501 l 1,13,-1
 660 357 l 1,14,-1
 517 500 l 1,15,-1
 660 644 l 1,12,-1
213 804 m 1,16,-1
 345 671 l 1,17,-1
 633 671 l 1,18,-1
 500 804 l 1,19,-1
 213 804 l 1,16,-1
500 517 m 1,20,-1
 631 648 l 1,21,-1
 369 648 l 1,22,-1
 500 517 l 1,20,-1
EndSplineSet
EndChar

StartChar: error
Encoding: 57384 57384 38
Width: 1000
Flags: W
LayerCount: 2
Fore
SplineSet
188 250 m 1,0,1
 217 297 217 297 275 389 c 2,2,-1
 363 528 l 2,3,4
 386 564 386 564 431.5 637.5 c 128,-1,5
 477 711 477 711 500 747 c 1,6,-1
 500 744 l 1,7,8
 625 544 625 544 688 447 c 2,9,-1
 735 372 l 2,10,11
 787 290 787 290 812 247 c 1,12,13
 603 250 603 250 188 250 c 1,0,1
469 597 m 1,14,-1
 469 409 l 1,15,-1
 531 409 l 1,16,-1
 531 597 l 1,17,-1
 469 597 l 1,14,-1
531 316 m 1,18,-1
 531 378 l 1,19,-1
 469 378 l 1,20,-1
 469 316 l 1,21,-1
 531 316 l 1,18,-1
EndSplineSet
EndChar

StartChar: eslint
Encoding: 57385 57385 39
Width: 1000
Flags: W
LayerCount: 2
Fore
SplineSet
681 781 m 1,0,-1
 328 781 l 1,1,-1
 169 500 l 1,2,-1
 328 219 l 1,3,-1
 681 219 l 1,4,-1
 828 500 l 1,5,-1
 681 781 l 1,0,-1
500 272 m 1,6,-1
 303 384 l 1,7,-1
 303 606 l 1,8,-1
 500 728 l 1,9,-1
 697 606 l 1,10,-1
 697 384 l 1,11,-1
 500 272 l 1,6,-1
369 572 m 1,12,-1
 369 422 l 1,13,-1
 500 347 l 1,14,-1
 631 422 l 1,15,-1
 631 572 l 1,16,-1
 500 653 l 1,17,-1
 369 572 l 1,12,-1
EndSplineSet
EndChar

StartChar: ethereum
Encoding: 57386 57386 40
Width: 1000
Flags: W
LayerCount: 2
Fore
SplineSet
388 475 m 1,0,-1
 500 409 l 1,1,-1
 503 409 l 1,2,3
 616 478 616 478 675 509 c 1,4,-1
 675 512 l 1,5,6
 654 550 654 550 625 594 c 2,7,-1
 503 797 l 1,8,-1
 478 756 l 2,9,10
 452 713 452 713 441 691 c 0,11,12
 433 677 433 677 415.5 648.5 c 128,-1,13
 398 620 398 620 391 606 c 0,14,15
 353 544 353 544 334 516 c 1,16,-1
 334 512 l 1,17,18
 343 502 343 502 370 486 c 2,19,-1
 388 475 l 1,0,-1
522 356 m 0,20,21
 519 355 519 355 511 350 c 2,22,-1
 500 344 l 1,23,24
 488 352 488 352 463 366 c 128,-1,25
 438 380 438 380 424.5 387.5 c 128,-1,26
 411 395 411 395 383 412.5 c 128,-1,27
 355 430 355 430 341 438 c 0,28,29
 339 439 339 439 334 441 c 2,30,-1
 328 444 l 1,31,-1
 353 409 l 2,32,33
 397 347 397 347 422 316 c 0,34,35
 434 297 434 297 460.5 261 c 128,-1,36
 487 225 487 225 500 206 c 1,37,-1
 500 205 l 2,38,39
 501 203 501 203 503 203 c 2,40,-1
 619 366 l 2,41,42
 628 378 628 378 647 404.5 c 128,-1,43
 666 431 666 431 675 444 c 1,44,45
 589 398 589 398 522 356 c 0,20,21
EndSplineSet
EndChar

StartChar: f-sharp
Encoding: 57387 57387 41
Width: 1000
Flags: W
LayerCount: 2
Fore
SplineSet
219 531 m 1,0,-1
 484 797 l 1,1,-1
 484 663 l 1,2,-1
 353 531 l 1,3,-1
 488 397 l 1,4,-1
 488 263 l 1,5,-1
 219 531 l 1,0,-1
391 531 m 1,6,-1
 488 628 l 1,7,-1
 488 438 l 1,8,-1
 391 531 l 1,6,-1
781 531 m 1,9,-1
 506 797 l 1,10,-1
 506 663 l 1,11,-1
 641 528 l 1,12,-1
 506 394 l 1,13,-1
 506 259 l 1,14,-1
 781 531 l 1,9,-1
EndSplineSet
EndChar

StartChar: favicon
Encoding: 57388 57388 42
Width: 1000
Flags: W
LayerCount: 2
Fore
SplineSet
500 828 m 1,0,-1
 597 631 l 1,1,-1
 813 600 l 1,2,-1
 656 450 l 1,3,-1
 694 234 l 1,4,-1
 500 334 l 1,5,-1
 306 234 l 1,6,-1
 344 450 l 1,7,-1
 188 600 l 1,8,-1
 403 631 l 1,9,-1
 500 828 l 1,0,-1
EndSplineSet
EndChar

StartChar: firebase
Encoding: 57389 57389 43
Width: 1000
Flags: W
LayerCount: 2
Fore
SplineSet
580 598 m 1,0,-1
 509 532 l 1,1,-1
 443 665 l 1,2,-1
 477 742 l 2,3,4
 484 753 484 753 493 753 c 128,-1,5
 502 753 502 753 509 742 c 2,6,-1
 580 598 l 1,0,-1
509 532 m 1,7,-1
 244 286 l 1,8,-1
 443 665 l 1,9,-1
 509 532 l 1,7,-1
658 699 m 2,10,11
 667 709 667 709 675.5 706 c 128,-1,12
 684 703 684 703 687 690 c 2,13,-1
 756 289 l 1,14,-1
 527 152 l 2,15,16
 522 149 522 149 509 147 c 2,17,-1
 498 146 l 1,18,-1
 487 147 l 2,19,20
 476 149 476 149 471 152 c 2,21,-1
 244 286 l 1,22,-1
 658 699 l 2,10,11
443 665 m 1,23,-1
 244 286 l 1,24,-1
 333 840 l 2,25,26
 335 853 335 853 341.5 854.5 c 128,-1,27
 348 856 348 856 355 844 c 2,28,-1
 443 665 l 1,23,-1
EndSplineSet
EndChar

StartChar: firefox
Encoding: 57390 57390 44
Width: 1200
Flags: W
LayerCount: 2
Fore
SplineSet
883 533 m 2,0,1
 879 558 879 558 877 571 c 1,2,-1
 867 550 l 1,3,-1
 865 550 l 1,4,5
 875 641 875 641 813 695 c 1,6,-1
 811 690 l 1,7,8
 801 703 801 703 777 720 c 1,9,10
 774 711 774 711 782 703 c 0,11,12
 811 677 811 677 828 647 c 2,13,-1
 831 642 l 2,14,15
 821 656 821 656 796 680 c 2,16,-1
 786 690 l 2,17,18
 758 720 758 720 713 734 c 2,19,-1
 700 738 l 1,20,-1
 711 728 l 2,21,22
 732 712 732 712 742 703 c 0,23,24
 754 691 754 691 764.5 677.5 c 128,-1,25
 775 664 775 664 776 659 c 1,26,27
 751 679 751 679 728 681 c 1,28,29
 790 625 790 625 783 544 c 1,30,31
 774 561 774 561 760 570 c 1,32,-1
 764 532 l 2,33,34
 767 503 767 503 764 488 c 2,35,-1
 758 461 l 1,36,-1
 751 475 l 1,37,-1
 748 461 l 2,38,39
 742 439 742 439 739 428 c 0,40,41
 732 403 732 403 716 388 c 0,42,43
 712 385 712 385 707 382 c 0,44,45
 706 381 706 381 704 381 c 2,46,-1
 702 381 l 1,47,-1
 702 388 l 1,48,-1
 700 388 l 2,49,50
 697 388 697 388 696 387 c 0,51,52
 692 383 692 383 688 379 c 0,53,54
 681 369 681 369 669 362 c 1,55,-1
 671 370 l 1,56,-1
 645 364 l 2,57,58
 629 361 629 361 621 360 c 0,59,60
 608 358 608 358 597 360 c 0,61,62
 580 363 580 363 572 372 c 1,63,-1
 589 372 l 2,64,65
 586 375 586 375 583 376 c 2,66,-1
 553 383 l 2,67,68
 539 387 539 387 532.5 391 c 128,-1,69
 526 395 526 395 515 407 c 2,70,-1
 513 409 l 2,71,72
 482 439 482 439 489 488 c 0,73,74
 491 503 491 503 493 510 c 0,75,76
 497 521 497 521 506 528 c 1,77,78
 496 535 496 535 485 535 c 0,79,80
 469 536 469 536 455 525.5 c 128,-1,81
 441 515 441 515 436 499 c 0,82,83
 423 461 423 461 451 424 c 2,84,-1
 454 420 l 1,85,86
 436 435 436 435 429.5 460.5 c 128,-1,87
 423 486 423 486 433 509 c 0,88,89
 441 528 441 528 457.5 537.5 c 128,-1,90
 474 547 474 547 492.5 544 c 128,-1,91
 511 541 511 541 525 527 c 2,92,-1
 530 521 l 1,93,94
 533 530 533 530 532.5 541.5 c 128,-1,95
 532 553 532 553 527 560 c 0,96,97
 502 594 502 594 509.5 631.5 c 128,-1,98
 517 669 517 669 547 698 c 2,99,-1
 551 702 l 1,100,101
 530 707 530 707 507 693 c 128,-1,102
 484 679 484 679 462 649 c 1,103,-1
 466 673 l 1,104,-1
 458 674 l 2,105,106
 412 680 412 680 377 651 c 0,107,108
 343 624 343 624 328 575 c 2,109,-1
 316 532 l 1,110,-1
 317 532 l 1,111,-1
 325 544 l 1,112,113
 321 522 321 522 319 496 c 128,-1,114
 317 470 317 470 318 457 c 1,115,-1
 324 475 l 1,116,117
 337 379 337 379 398 315 c 0,118,119
 428 284 428 284 477.5 255.5 c 128,-1,120
 527 227 527 227 549 229 c 1,121,-1
 538 236 l 2,122,123
 544 235 544 235 555 232 c 2,124,-1
 565 230 l 1,125,-1
 598 222 l 1,126,-1
 616 222 l 1,127,-1
 607 230 l 1,128,-1
 638 232 l 2,129,130
 684 235 684 235 729 251 c 0,131,132
 742 255 742 255 754 266 c 0,133,134
 762 274 762 274 773 288 c 0,135,136
 777 294 777 294 782 297 c 0,137,138
 826 321 826 321 851 366 c 0,139,140
 863 387 863 387 857 414 c 0,141,142
 856 419 856 419 858 424 c 2,143,-1
 864 438 l 2,144,145
 871 452 871 452 873.5 459.5 c 128,-1,146
 876 467 876 467 880 483 c 2,147,-1
 884 498 l 1,148,-1
 884 526 l 1,149,-1
 883 533 l 2,0,1
500 483 m 1,150,151
 496 461 496 461 506 439 c 128,-1,152
 516 417 516 417 535 406 c 0,153,154
 537 405 537 405 540 405 c 0,155,156
 586 402 586 402 619 429 c 2,157,-1
 626 435 l 2,158,159
 635 443 635 443 649 441 c 0,160,161
 654 440 654 440 656.5 442.5 c 128,-1,162
 659 445 659 445 658 450 c 0,163,164
 656 461 656 461 646 467 c 0,165,166
 615 483 615 483 586 467 c 0,167,168
 578 462 578 462 570 460 c 0,169,170
 551 455 551 455 529 466 c 0,171,172
 523 469 523 469 509 477 c 2,173,-1
 500 483 l 1,150,151
409 688 m 2,174,175
 411 690 411 690 412 691 c 0,176,177
 515 787 515 787 650 759 c 0,178,179
 672 754 672 754 715 741 c 2,180,-1
 743 733 l 1,181,182
 691 769 691 769 627 775.5 c 128,-1,183
 563 782 563 782 502.5 761 c 128,-1,184
 442 740 442 740 399 694 c 1,185,-1
 407 687 l 1,186,-1
 409 688 l 2,174,175
592 613 m 0,187,188
 593 619 593 619 591 621 c 128,-1,189
 589 623 589 623 584 624 c 0,190,191
 574 625 574 625 553 625 c 2,192,-1
 548 625 l 2,193,194
 539 626 539 626 535 627 c 0,195,196
 527 628 527 628 522 634 c 1,197,198
 516 620 516 620 521 598 c 128,-1,199
 526 576 526 576 537 566 c 1,200,-1
 549 573 l 2,201,202
 567 583 567 583 577 588 c 0,203,204
 591 595 591 595 592 613 c 0,187,188
401 680 m 1,205,206
 382 696 382 696 380 723 c 1,207,208
 365 707 365 707 358 686 c 0,209,210
 353 669 353 669 352 645 c 1,211,212
 375 669 375 669 401 680 c 1,205,206
EndSplineSet
EndChar

StartChar: folder
Encoding: 57391 57391 45
Width: 1000
Flags: W
LayerCount: 2
Fore
SplineSet
900 784 m 2,0,-1
 503 784 l 1,1,-1
 503 822 l 2,2,3
 503 855 503 855 480.5 877.5 c 128,-1,4
 458 900 458 900 425 900 c 2,5,-1
 19 900 l 1,6,-1
 19 100 l 1,7,-1
 975 100 l 1,8,-1
 975 706 l 2,9,10
 977 739 977 739 955 761.5 c 128,-1,11
 933 784 933 784 900 784 c 2,0,-1
EndSplineSet
EndChar

StartChar: font
Encoding: 57392 57392 46
Width: 1000
Flags: W
LayerCount: 2
Fore
SplineSet
659 428 m 1,0,-1
 556 428 l 1,1,-1
 544 400 l 1,2,-1
 541 393 l 2,3,4
 537 383 537 383 537 378 c 0,5,6
 538 364 538 364 547 359 c 0,7,8
 549 357 549 357 561 356 c 2,9,-1
 575 353 l 1,10,-1
 575 344 l 1,11,-1
 478 344 l 1,12,-1
 478 353 l 1,13,14
 497 359 497 359 503 366 c 0,15,16
 514 377 514 377 528 409 c 2,17,-1
 631 641 l 1,18,-1
 634 641 l 1,19,-1
 738 403 l 2,20,21
 752 370 752 370 763 359 c 1,22,23
 775 353 775 353 784 353 c 1,24,-1
 784 344 l 1,25,-1
 644 344 l 1,26,-1
 644 353 l 1,27,-1
 656 353 l 2,28,29
 669 353 669 353 681 359 c 0,30,31
 688 366 688 366 687 369 c 2,32,-1
 687 378 l 1,33,-1
 681 394 l 1,34,-1
 659 428 l 1,0,-1
653 447 m 1,35,-1
 609 547 l 1,36,-1
 566 447 l 1,37,-1
 653 447 l 1,35,-1
209 300 m 1,38,39
 230 300 230 300 245.5 322 c 128,-1,40
 261 344 261 344 272 375 c 2,41,-1
 409 716 l 1,42,-1
 428 716 l 1,43,-1
 569 388 l 2,44,45
 581 358 581 358 598 325 c 2,46,-1
 603 316 l 2,47,48
 611 300 611 300 638 300 c 1,49,-1
 638 284 l 1,50,-1
 434 284 l 1,51,-1
 434 300 l 1,52,53
 462 300 462 300 475 306 c 0,54,55
 484 311 484 311 484 325 c 0,56,57
 484 330 484 330 481 340 c 2,58,-1
 478 347 l 2,59,60
 472 359 472 359 469 369 c 2,61,-1
 453 406 l 1,62,-1
 313 406 l 1,63,-1
 294 356 l 2,64,65
 284 333 284 333 284 322 c 0,66,67
 284 308 284 308 303 303 c 0,68,69
 309 300 309 300 334 300 c 1,70,-1
 334 284 l 1,71,-1
 209 284 l 1,72,-1
 209 300 l 1,38,39
444 431 m 1,73,-1
 384 575 l 1,74,-1
 378 575 l 1,75,-1
 322 431 l 1,76,-1
 444 431 l 1,73,-1
EndSplineSet
EndChar

StartChar: git
Encoding: 57395 57395 47
AltUni2: 00e032.ffffffff.0 00e031.ffffffff.0
Width: 1000
Flags: W
LayerCount: 2
Fore
SplineSet
219 494 m 2,0,-1
 219 503 l 2,1,2
 220 511 220 511 224 517 c 0,3,4
 227 521 227 521 233 528 c 2,5,-1
 241 537 l 1,6,-1
 397 694 l 1,7,-1
 398 693 l 2,8,9
 400 693 400 693 400 691 c 2,10,-1
 456 634 l 2,11,12
 461 630 461 630 456 625 c 1,13,14
 454 611 454 611 459 598 c 128,-1,15
 464 585 464 585 475 578 c 0,16,17
 479 576 479 576 480 573.5 c 128,-1,18
 481 571 481 571 481 566 c 2,19,-1
 481 428 l 2,20,21
 481 422 481 422 475 416 c 0,22,23
 463 408 463 408 457.5 395 c 128,-1,24
 452 382 452 382 456.5 368.5 c 128,-1,25
 461 355 461 355 472 346 c 128,-1,26
 483 337 483 337 497 337 c 128,-1,27
 511 337 511 337 522 345 c 128,-1,28
 533 353 533 353 537.5 366.5 c 128,-1,29
 542 380 542 380 538 393 c 128,-1,30
 534 406 534 406 522 416 c 0,31,32
 518 418 518 418 517 420.5 c 128,-1,33
 516 423 516 423 516 428 c 2,34,-1
 516 569 l 1,35,-1
 519 569 l 1,36,-1
 569 519 l 2,37,38
 571 517 571 517 571 514 c 2,39,-1
 572 512 l 1,40,-1
 572 494 l 2,41,42
 574 475 574 475 588.5 464.5 c 128,-1,43
 603 454 603 454 622 456.5 c 128,-1,44
 641 459 641 459 652.5 475 c 128,-1,45
 664 491 664 491 659 509 c 0,46,47
 657 525 657 525 641.5 535.5 c 128,-1,48
 626 546 626 546 609 544 c 0,49,50
 603 544 603 544 597 547 c 2,51,-1
 544 600 l 2,52,53
 541 603 541 603 541 609 c 0,54,55
 544 623 544 623 537 636 c 128,-1,56
 530 649 530 649 517 655.5 c 128,-1,57
 504 662 504 662 491 659 c 0,58,59
 481 659 481 659 481 662 c 0,60,61
 444 700 444 700 425 716 c 0,62,63
 420 720 420 720 425 725 c 0,64,65
 436 733 436 733 453 753 c 2,66,-1
 466 766 l 2,67,68
 494 794 494 794 522 766 c 2,69,-1
 759 528 l 2,70,71
 788 500 788 500 759 472 c 2,72,-1
 527 239 l 2,73,74
 518 230 518 230 514 227 c 0,75,76
 506 220 506 220 497 219 c 2,77,-1
 491 219 l 1,78,-1
 486 221 l 2,79,80
 474 226 474 226 469 231 c 2,81,-1
 450 250 l 2,82,83
 422 276 422 276 409 291 c 2,84,-1
 238 462 l 2,85,86
 236 467 236 467 229 475 c 0,87,88
 220 487 220 487 219 494 c 2,0,-1
EndSplineSet
EndChar

StartChar: github
Encoding: 57396 57396 48
Width: 1000
Flags: W
LayerCount: 2
Fore
SplineSet
556 356 m 1,0,1
 563 358 563 358 575 359.5 c 128,-1,2
 587 361 587 361 594 362 c 0,3,4
 657 378 657 378 678 425 c 0,5,6
 705 479 705 479 691 541 c 0,7,8
 688 553 688 553 682 565 c 0,9,10
 677 573 677 573 666 587 c 0,11,12
 662 591 662 591 662 597 c 0,13,14
 672 635 672 635 659 669 c 0,15,16
 659 671 659 671 656.5 673 c 128,-1,17
 654 675 654 675 650 675 c 0,18,19
 640 675 640 675 629 671 c 0,20,21
 622 669 622 669 609.5 662.5 c 128,-1,22
 597 656 597 656 578 644 c 0,23,24
 575 641 575 641 569 641 c 0,25,26
 495 659 495 659 422 641 c 0,27,28
 416 641 416 641 412 644 c 2,29,-1
 405 648 l 2,30,31
 386 659 386 659 377 663 c 0,32,33
 362 670 362 670 347 672 c 0,34,35
 335 674 335 674 332.5 672.5 c 128,-1,36
 330 671 330 671 328 659 c 0,37,38
 319 627 319 627 328 594 c 1,39,-1
 328 588 l 1,40,41
 308 565 308 565 301 535 c 0,42,43
 295 508 295 508 300 478 c 0,44,45
 302 472 302 472 303.5 461 c 128,-1,46
 305 450 305 450 306 444 c 0,47,48
 318 411 318 411 341 391.5 c 128,-1,49
 364 372 364 372 400 362 c 0,50,51
 425 356 425 356 441 353 c 1,52,53
 428 341 428 341 422 316 c 0,54,55
 422 313 422 313 419 312 c 1,56,-1
 419 312 l 1,57,58
 393 302 393 302 371 307 c 0,59,60
 347 313 347 313 331 337 c 0,61,62
 315 365 315 365 287 369 c 1,63,-1
 272 369 l 2,64,65
 267 369 267 369 266.5 365.5 c 128,-1,66
 266 362 266 362 269 359 c 2,67,-1
 275 353 l 1,68,69
 300 338 300 338 309 309 c 0,70,71
 319 289 319 289 335 278.5 c 128,-1,72
 351 268 351 268 375 266 c 0,73,74
 403 266 403 266 419 269 c 1,75,-1
 419 209 l 2,76,77
 419 202 419 202 412.5 198.5 c 128,-1,78
 406 195 406 195 397 197 c 0,79,80
 359 211 359 211 322 234 c 0,81,82
 250 284 250 284 216 352 c 0,83,84
 180 421 180 421 184 506 c 0,85,86
 187 577 187 577 221 637.5 c 128,-1,87
 255 698 255 698 311.5 739 c 128,-1,88
 368 780 368 780 437 794 c 0,89,90
 517 809 517 809 594 784 c 0,91,92
 668 759 668 759 723 701.5 c 128,-1,93
 778 644 778 644 800 566 c 0,94,95
 820 489 820 489 800 412 c 0,96,97
 780 337 780 337 727 279.5 c 128,-1,98
 674 222 674 222 600 197 c 0,99,100
 588 192 588 192 581.5 197 c 128,-1,101
 575 202 575 202 575 216 c 2,102,-1
 575 291 l 2,103,104
 578 311 578 311 574 326 c 0,105,106
 570 343 570 343 556 356 c 1,0,1
EndSplineSet
EndChar

StartChar: go
Encoding: 57397 57397 49
Width: 1000
Flags: W
LayerCount: 2
Fore
SplineSet
572 688 m 0,0,1
 546 688 546 688 528.5 701 c 128,-1,2
 511 714 511 714 506 738 c 0,3,4
 502 764 502 764 522 784 c 0,5,6
 536 801 536 801 557.5 805.5 c 128,-1,7
 579 810 579 810 600 803 c 0,8,9
 619 796 619 796 629.5 780 c 128,-1,10
 640 764 640 764 638 744 c 0,11,12
 638 725 638 725 626.5 711.5 c 128,-1,13
 615 698 615 698 594 691 c 0,14,15
 584 688 584 688 572 688 c 0,0,1
519 744 m 0,16,17
 519 735 519 735 524.5 728.5 c 128,-1,18
 530 722 530 722 537.5 722 c 128,-1,19
 545 722 545 722 550.5 728.5 c 128,-1,20
 556 735 556 735 556 744 c 128,-1,21
 556 753 556 753 550.5 759.5 c 128,-1,22
 545 766 545 766 538 766 c 0,23,24
 530 763 530 763 524.5 757 c 128,-1,25
 519 751 519 751 519 744 c 0,16,17
409 800 m 2,26,27
 437 800 437 800 455 786 c 0,28,29
 470 773 470 773 473.5 753.5 c 128,-1,30
 477 734 477 734 469 716 c 0,31,32
 456 686 456 686 416 681 c 0,33,34
 393 677 393 677 373.5 688.5 c 128,-1,35
 354 700 354 700 347 722 c 0,36,37
 338 747 338 747 351.5 770 c 128,-1,38
 365 793 365 793 394 800 c 1,39,-1
 409 800 l 2,26,27
397 738 m 2,40,41
 397 747 397 747 391 753 c 128,-1,42
 385 759 385 759 378 759 c 128,-1,43
 371 759 371 759 365 753 c 128,-1,44
 359 747 359 747 359 737.5 c 128,-1,45
 359 728 359 728 365 722 c 128,-1,46
 371 716 371 716 378 716 c 128,-1,47
 385 716 385 716 391 722 c 128,-1,48
 397 728 397 728 397 737 c 2,49,-1
 397 738 l 2,40,41
497 706 m 0,50,51
 509 706 509 706 515.5 703.5 c 128,-1,52
 522 701 522 701 524.5 695 c 128,-1,53
 527 689 527 689 525 684 c 2,54,-1
 525 681 l 1,55,-1
 528 678 l 2,56,57
 534 675 534 675 543 666 c 128,-1,58
 552 657 552 657 547 647 c 0,59,60
 545 642 545 642 539 640 c 128,-1,61
 533 638 533 638 528 641 c 0,62,63
 526 641 526 641 522 643 c 128,-1,64
 518 645 518 645 516 647 c 0,65,66
 502 652 502 652 488 647 c 0,67,68
 475 641 475 641 469 641 c 0,69,70
 448 641 448 641 453 659 c 0,71,72
 453 672 453 672 466 678 c 1,73,-1
 467 679 l 2,74,75
 469 679 469 679 469 681 c 0,76,77
 467 688 467 688 469 691.5 c 128,-1,78
 471 695 471 695 477 699 c 2,79,-1
 481 703 l 2,80,81
 484 706 484 706 497 706 c 0,50,51
494 672 m 0,82,83
 506 672 506 672 519 678 c 0,84,85
 532 687 532 687 522 697 c 0,86,87
 520 699 520 699 516 701 c 128,-1,88
 512 703 512 703 509 703 c 0,89,90
 502 705 502 705 494 703.5 c 128,-1,91
 486 702 486 702 481 697 c 0,92,93
 474 690 474 690 476 683.5 c 128,-1,94
 478 677 478 677 487 675 c 1,95,96
 485 673 485 673 486.5 672.5 c 128,-1,97
 488 672 488 672 494 672 c 0,82,83
522 622 m 1,98,-1
 522 616 l 2,99,100
 522 611 522 611 519.5 607 c 128,-1,101
 517 603 517 603 512.5 603 c 128,-1,102
 508 603 508 603 504 606.5 c 128,-1,103
 500 610 500 610 500 613 c 0,104,105
 498 619 498 619 499 632 c 2,106,-1
 500 644 l 2,107,108
 500 646 500 646 500.5 646.5 c 128,-1,109
 501 647 501 647 503 647 c 0,110,111
 513 647 513 647 519 641 c 0,112,113
 521 641 521 641 521 639 c 2,114,-1
 522 638 l 1,115,-1
 522 622 l 1,98,-1
494 628 m 1,116,-1
 494 619 l 2,117,118
 494 613 494 613 488 606 c 0,119,120
 483 602 483 602 478.5 603 c 128,-1,121
 474 604 474 604 471.5 610 c 128,-1,122
 469 616 469 616 469 634 c 0,123,124
 469 637 469 637 469.5 637.5 c 128,-1,125
 470 638 470 638 472.5 638.5 c 128,-1,126
 475 639 475 639 481.5 640.5 c 128,-1,127
 488 642 488 642 490.5 643 c 128,-1,128
 493 644 493 644 493.5 643.5 c 128,-1,129
 494 643 494 643 494 641 c 2,130,-1
 494 628 l 1,116,-1
328 156 m 1,131,-1
 322 156 l 1,132,-1
 318 159 l 2,133,134
 312 164 312 164 309 169 c 0,135,136
 304 174 304 174 305 180.5 c 128,-1,137
 306 187 306 187 311.5 194 c 128,-1,138
 317 201 317 201 334 212 c 2,139,-1
 341 216 l 1,140,141
 307 245 307 245 297 294 c 0,142,143
 293 308 293 308 291 329 c 0,144,145
 291 341 291 341 291 366 c 0,146,147
 291 384 291 384 294 420 c 128,-1,148
 297 456 297 456 297 475 c 1,149,150
 278 463 278 463 266 459 c 1,151,-1
 259 459 l 1,152,153
 250 469 250 469 250 478 c 0,154,155
 250 484 250 484 259 494 c 0,156,157
 273 503 273 503 291 503 c 0,158,159
 295 503 295 503 296 504.5 c 128,-1,160
 297 506 297 506 297 509 c 0,161,162
 291 572 291 572 291 603 c 0,163,164
 285 657 285 657 294 700 c 0,165,166
 296 712 296 712 295 714 c 128,-1,167
 294 716 294 716 284 719 c 0,168,169
 273 726 273 726 266.5 738.5 c 128,-1,170
 260 751 260 751 263 763 c 0,171,172
 267 788 267 788 290.5 798.5 c 128,-1,173
 314 809 314 809 338 797 c 0,174,175
 342 792 342 792 347 797 c 0,176,177
 371 817 371 817 397 825 c 0,178,179
 475 852 475 852 559 838 c 0,180,181
 607 832 607 832 638 806 c 0,182,183
 646 798 646 798 656 803 c 0,184,185
 675 813 675 813 694 806.5 c 128,-1,186
 713 800 713 800 722 781.5 c 128,-1,187
 731 763 731 763 724.5 747 c 128,-1,188
 718 731 718 731 697 722 c 1,189,-1
 694 719 l 1,190,-1
 694 716 l 1,191,192
 706 674 706 674 706 619 c 0,193,194
 706 547 706 547 709 509 c 0,195,196
 709 505 709 505 710 503.5 c 128,-1,197
 711 502 711 502 716 500 c 0,198,199
 731 500 731 500 747 484 c 0,200,201
 752 480 752 480 752 476.5 c 128,-1,202
 752 473 752 473 747 466 c 1,203,-1
 747 462 l 2,204,205
 747 458 747 458 743 455.5 c 128,-1,206
 739 453 739 453 734 453 c 0,207,208
 725 453 725 453 719 459 c 0,209,210
 717 459 717 459 714 460.5 c 128,-1,211
 711 462 711 462 709 462 c 2,212,-1
 709 459 l 2,213,214
 709 450 709 450 711 432 c 0,215,216
 713 411 713 411 713 400 c 0,217,218
 713 366 713 366 712 350 c 0,219,220
 710 323 710 323 706 300 c 0,221,222
 696 247 696 247 666 212 c 0,223,224
 661 208 661 208 666 203 c 0,225,226
 682 192 682 192 691 175 c 0,227,228
 695 162 695 162 681 153 c 0,229,230
 677 149 677 149 673 149.5 c 128,-1,231
 669 150 669 150 663 153 c 2,232,-1
 650 166 l 1,233,-1
 644 172 l 2,234,235
 638 179 638 179 634 181 c 0,236,237
 630 186 630 186 625 181 c 0,238,239
 579 156 579 156 516 156 c 1,240,241
 443 151 443 151 384 178 c 1,242,-1
 381 178 l 2,243,244
 378 175 378 175 368.5 170.5 c 128,-1,245
 359 166 359 166 356 162 c 1,246,247
 350 167 350 167 342 164 c 0,248,249
 338 162 338 162 328 156 c 1,131,-1
572 688 m 0,250,251
 588 688 588 688 594 691 c 0,252,253
 613 698 613 698 624 711.5 c 128,-1,254
 635 725 635 725 638 744 c 0,255,256
 638 764 638 764 627.5 780 c 128,-1,257
 617 796 617 796 599.5 803 c 128,-1,258
 582 810 582 810 559 804.5 c 128,-1,259
 536 799 536 799 522 784 c 0,260,261
 502 764 502 764 506 738 c 0,262,263
 511 714 511 714 528.5 701 c 128,-1,264
 546 688 546 688 572 688 c 0,250,251
409 800 m 2,265,-1
 394 800 l 1,266,267
 365 795 365 795 351.5 772.5 c 128,-1,268
 338 750 338 750 347 722 c 0,269,270
 354 701 354 701 373 690 c 128,-1,271
 392 679 392 679 416 681 c 0,272,273
 452 686 452 686 469 716 c 0,274,275
 477 734 477 734 473.5 753.5 c 128,-1,276
 470 773 470 773 455 786 c 0,277,278
 437 800 437 800 409 800 c 2,265,-1
497 706 m 0,279,280
 484 706 484 706 478 703 c 2,281,-1
 476 702 l 2,282,283
 469 697 469 697 466.5 693 c 128,-1,284
 464 689 464 689 466 681 c 0,285,286
 466 679 466 679 464 679 c 2,287,-1
 463 678 l 1,288,289
 450 672 450 672 450 659 c 0,290,291
 448 651 448 651 453 646 c 128,-1,292
 458 641 458 641 465 641 c 128,-1,293
 472 641 472 641 484 647 c 0,294,295
 498 652 498 652 513 647 c 0,296,297
 514 645 514 645 518.5 643.5 c 128,-1,298
 523 642 523 642 525 641 c 0,299,300
 538 636 538 636 543.5 646.5 c 128,-1,301
 549 657 549 657 541 666 c 0,302,303
 538 672 538 672 525 678 c 0,304,305
 522 678 522 678 522 684 c 0,306,307
 527 698 527 698 513 703 c 0,308,309
 509 706 509 706 497 706 c 0,279,280
522 622 m 1,310,-1
 522 638 l 2,311,312
 522 640 522 640 521.5 640.5 c 128,-1,313
 521 641 521 641 518.5 641.5 c 128,-1,314
 516 642 516 642 510.5 643.5 c 128,-1,315
 505 645 505 645 503 646 c 128,-1,316
 501 647 501 647 500.5 646.5 c 128,-1,317
 500 646 500 646 500 644 c 2,318,-1
 499 635 l 2,319,320
 498 621 498 621 500 613 c 0,321,322
 500 608 500 608 504 604.5 c 128,-1,323
 508 601 508 601 513 603 c 0,324,325
 517 603 517 603 519.5 607 c 128,-1,326
 522 611 522 611 522 616 c 2,327,-1
 522 622 l 1,310,-1
494 628 m 1,328,-1
 494 641 l 2,329,330
 494 643 494 643 493.5 643.5 c 128,-1,331
 493 644 493 644 490 643 c 128,-1,332
 487 642 487 642 481 640.5 c 128,-1,333
 475 639 475 639 472.5 638.5 c 128,-1,334
 470 638 470 638 469 636 c 2,335,-1
 469 634 l 2,336,337
 469 619 469 619 472 609 c 0,338,339
 474 604 474 604 478.5 603 c 128,-1,340
 483 602 483 602 488 606 c 0,341,342
 494 613 494 613 494 619 c 0,343,344
 492 621 492 621 493 625 c 2,345,-1
 494 628 l 1,328,-1
519 744 m 256,346,347
 519 753 519 753 524.5 759.5 c 128,-1,348
 530 766 530 766 537.5 766 c 128,-1,349
 545 766 545 766 550.5 759.5 c 128,-1,350
 556 753 556 753 556 744 c 128,-1,351
 556 735 556 735 550.5 728.5 c 128,-1,352
 545 722 545 722 537.5 722 c 128,-1,353
 530 722 530 722 524.5 728.5 c 128,-1,354
 519 735 519 735 519 744 c 256,346,347
553 738 m 0,355,356
 553 744 553 744 550 744 c 128,-1,357
 547 744 547 744 547 737.5 c 128,-1,358
 547 731 547 731 550 731 c 2,359,-1
 550 733 l 2,360,361
 551 736 551 736 553 738 c 0,355,356
397 738 m 0,362,363
 397 728 397 728 391 722 c 128,-1,364
 385 716 385 716 378 716 c 128,-1,365
 371 716 371 716 365 722 c 128,-1,366
 359 728 359 728 359 737.5 c 128,-1,367
 359 747 359 747 365 753 c 128,-1,368
 371 759 371 759 378 759 c 128,-1,369
 385 759 385 759 391 753 c 128,-1,370
 397 747 397 747 397 738 c 0,362,363
388 728 m 0,371,372
 389 728 389 728 390 730 c 2,373,-1
 391 731 l 1,374,375
 391 738 391 738 388.5 738 c 128,-1,376
 386 738 386 738 385 736 c 2,377,-1
 384 734 l 2,378,379
 382 732 382 732 383.5 730 c 128,-1,380
 385 728 385 728 388 728 c 0,371,372
494 672 m 0,381,382
 484 672 484 672 481 675 c 0,383,384
 472 677 472 677 471 683 c 128,-1,385
 470 689 470 689 475 697 c 1,386,387
 491 707 491 707 503 703 c 0,388,389
 509 703 509 703 515 697.5 c 128,-1,390
 521 692 521 692 520 686 c 128,-1,391
 519 680 519 680 513 678 c 0,392,393
 506 672 506 672 494 672 c 0,381,382
553 738 m 0,394,395
 553 731 553 731 550 731 c 128,-1,396
 547 731 547 731 547 737.5 c 128,-1,397
 547 744 547 744 550 744 c 2,398,-1
 550 742 l 2,399,400
 551 739 551 739 553 738 c 0,394,395
388 728 m 0,401,402
 384 728 384 728 384 734 c 0,403,404
 384 738 384 738 384.5 739 c 128,-1,405
 385 740 385 740 388 738 c 0,406,407
 391 738 391 738 391 731 c 0,408,409
 391 729 391 729 390.5 728.5 c 128,-1,410
 390 728 390 728 388 728 c 0,401,402
EndSplineSet
EndChar

StartChar: go2
Encoding: 57398 57398 50
Width: 1000
Flags: W
LayerCount: 2
Fore
SplineSet
353 219 m 1,0,1
 362 220 362 220 374.5 213 c 128,-1,2
 387 206 387 206 394 206 c 1,3,4
 391 199 391 199 380.5 194.5 c 128,-1,5
 370 190 370 190 359 190.5 c 128,-1,6
 348 191 348 191 344 196.5 c 128,-1,7
 340 202 340 202 343 207 c 0,8,9
 344 211 344 211 350 216 c 2,10,-1
 353 219 l 1,0,1
606 203 m 1,11,12
 610 205 610 205 618.5 210.5 c 128,-1,13
 627 216 627 216 631 218 c 0,14,15
 640 222 640 222 647 222 c 1,16,-1
 650 219 l 2,17,18
 656 213 656 213 658 210 c 0,19,20
 661 205 661 205 659 199.5 c 128,-1,21
 657 194 657 194 651 192 c 0,22,23
 647 191 647 191 638 191 c 0,24,25
 625 191 625 191 620 192 c 0,26,27
 610 195 610 195 606 203 c 1,11,12
291 441 m 1,28,29
 302 435 302 435 305 425 c 0,30,31
 307 419 307 419 306 406 c 2,32,-1
 306 400 l 2,33,34
 306 388 306 388 288 388 c 1,35,36
 274 401 274 401 275 413.5 c 128,-1,37
 276 426 276 426 291 441 c 1,28,29
713 388 m 1,38,39
 694 388 694 388 694 400 c 2,40,-1
 694 406 l 2,41,42
 693 419 693 419 695 425 c 0,43,44
 698 435 698 435 709 441 c 1,45,46
 724 426 724 426 725 413.5 c 128,-1,47
 726 401 726 401 713 388 c 1,38,39
738 734 m 0,48,49
 723 753 723 753 700 744 c 0,50,51
 689 741 689 741 680.5 743.5 c 128,-1,52
 672 746 672 746 662 753 c 0,53,54
 619 790 619 790 561.5 804 c 128,-1,55
 504 818 504 818 446 806.5 c 128,-1,56
 388 795 388 795 344 759 c 0,57,58
 331 749 331 749 318.5 745.5 c 128,-1,59
 306 742 306 742 291 744 c 0,60,61
 280 747 280 747 271 742 c 128,-1,62
 262 737 262 737 257.5 728 c 128,-1,63
 253 719 253 719 256 709 c 0,64,65
 258 702 258 702 264 696 c 0,66,67
 268 693 268 693 277 687 c 2,68,-1
 281 684 l 2,69,70
 294 678 294 678 294 666 c 0,71,72
 293 636 293 636 295 575 c 0,73,74
 297 527 297 527 296 503 c 0,75,76
 296 463 296 463 291 431 c 1,77,78
 297 416 297 416 297 408 c 0,79,80
 298 395 298 395 288 384 c 1,81,82
 288 377 288 377 289.5 359.5 c 128,-1,83
 291 342 291 342 291 334 c 0,84,85
 296 301 296 301 306 278 c 0,86,87
 319 251 319 251 341 231 c 0,88,89
 346 229 346 229 349.5 224.5 c 128,-1,90
 353 220 353 220 353 216 c 0,91,92
 357 215 357 215 366 209.5 c 128,-1,93
 375 204 375 204 379 203 c 0,94,95
 387 200 387 200 394 203 c 1,96,97
 508 177 508 177 603 203 c 0,98,99
 614 203 614 203 625 209 c 0,100,101
 631 213 631 213 644 222 c 0,102,103
 678 252 678 252 694 298 c 0,104,105
 707 334 707 334 709 388 c 1,106,107
 699 398 699 398 700 411 c 0,108,109
 700 419 700 419 706 434 c 1,110,111
 706 453 706 453 703 489 c 128,-1,112
 700 525 700 525 700 544 c 2,113,-1
 702 564 l 2,114,115
 705 592 705 592 706 606 c 0,116,117
 706 630 706 630 703 650 c 0,118,119
 701 664 701 664 705.5 674 c 128,-1,120
 710 684 710 684 722 694 c 1,121,122
 740 701 740 701 743.5 711.5 c 128,-1,123
 747 722 747 722 738 734 c 0,48,49
403 563 m 0,124,125
 380 560 380 560 360.5 581 c 128,-1,126
 341 602 341 602 341 628 c 0,127,128
 341 661 341 661 361.5 683.5 c 128,-1,129
 382 706 382 706 412.5 706 c 128,-1,130
 443 706 443 706 459 688.5 c 128,-1,131
 475 671 475 671 475 641 c 0,132,133
 477 606 477 606 454 584 c 0,134,135
 434 565 434 565 403 563 c 0,124,125
597 563 m 0,136,137
 567 565 567 565 547 583 c 0,138,139
 523 604 523 604 525 641 c 0,140,141
 525 671 525 671 542 688.5 c 128,-1,142
 559 706 559 706 587.5 706 c 128,-1,143
 616 706 616 706 637.5 683 c 128,-1,144
 659 660 659 660 659 628 c 0,145,146
 659 604 659 604 639.5 583.5 c 128,-1,147
 620 563 620 563 597 563 c 0,136,137
525 559 m 0,148,149
 527 559 527 559 530 557.5 c 128,-1,150
 533 556 533 556 534 556 c 2,151,-1
 539 552 l 2,152,153
 545 547 545 547 548 543 c 0,154,155
 552 538 552 538 550 530.5 c 128,-1,156
 548 523 548 523 539 518 c 0,157,158
 534 516 534 516 522.5 513 c 128,-1,159
 511 510 511 510 491 512 c 2,160,-1
 478 512 l 1,161,162
 466 516 466 516 461 519 c 0,163,164
 453 525 453 525 453 538 c 0,165,166
 453 554 453 554 478 559 c 1,167,168
 485 543 485 543 500 544 c 128,-1,169
 515 545 515 545 525 559 c 0,148,149
525 559 m 1,170,171
 529 538 529 538 503 538 c 0,172,173
 488 538 488 538 482 540 c 0,174,175
 473 545 473 545 475 559 c 1,176,177
 487 571 487 571 500 571 c 128,-1,178
 513 571 513 571 525 559 c 1,170,171
EndSplineSet
EndChar

StartChar: gradle
Encoding: 57399 57399 51
Width: 1000
Flags: W
LayerCount: 2
Fore
SplineSet
444 703 m 1,0,-1
 622 703 l 1,1,-1
 712 550 l 1,2,-1
 813 550 l 1,3,4
 802 624 802 624 758 685 c 128,-1,5
 714 746 714 746 648 780 c 0,6,7
 580 816 580 816 503 816 c 0,8,9
 439 816 439 816 391 794 c 1,10,-1
 444 703 l 1,0,-1
716 456 m 1,11,-1
 622 294 l 1,12,-1
 384 294 l 1,13,-1
 266 500 l 1,14,-1
 359 663 l 1,15,-1
 309 747 l 1,16,17
 253 704 253 704 220.5 639 c 128,-1,18
 188 574 188 574 188 500 c 0,19,20
 188 414 188 414 230 340 c 0,21,22
 272 269 272 269 344 227 c 0,23,24
 417 184 417 184 503 184 c 0,25,26
 582 184 582 184 649 219.5 c 128,-1,27
 716 255 716 255 759.5 316 c 128,-1,28
 803 377 803 377 813 453 c 1,29,-1
 716 456 l 1,11,-1
613 500 m 256,30,31
 613 469 613 469 597.5 443.5 c 128,-1,32
 582 418 582 418 556.5 403 c 128,-1,33
 531 388 531 388 500 388 c 128,-1,34
 469 388 469 388 443.5 403 c 128,-1,35
 418 418 418 418 403 443.5 c 128,-1,36
 388 469 388 469 388 500 c 128,-1,37
 388 531 388 531 403 556.5 c 128,-1,38
 418 582 418 582 443.5 597.5 c 128,-1,39
 469 613 469 613 500 613 c 128,-1,40
 531 613 531 613 556.5 597.5 c 128,-1,41
 582 582 582 582 597.5 556.5 c 128,-1,42
 613 531 613 531 613 500 c 256,30,31
EndSplineSet
EndChar

StartChar: grails
Encoding: 57400 57400 52
Width: 1000
Flags: W
LayerCount: 2
Fore
SplineSet
484 288 m 1,0,-1
 475 288 l 2,1,2
 472 291 472 291 462 291 c 2,3,-1
 431 300 l 2,4,5
 424 305 424 305 422 310 c 128,-1,6
 420 315 420 315 425 322 c 0,7,8
 431 331 431 331 438 350 c 0,9,10
 451 381 451 381 457 402 c 0,11,12
 464 432 464 432 459 459 c 0,13,14
 454 510 454 510 409 527.5 c 128,-1,15
 364 545 364 545 341 569 c 0,16,17
 304 603 304 603 287 634 c 0,18,19
 267 672 267 672 269 716 c 1,20,-1
 731 716 l 1,21,22
 731 666 731 666 709 631 c 0,23,24
 671 563 671 563 591 528 c 0,25,26
 542 504 542 504 538 453 c 0,27,28
 535 424 535 424 546 390 c 0,29,30
 554 367 554 367 572 331 c 0,31,32
 579 318 579 318 576.5 312.5 c 128,-1,33
 574 307 574 307 559 300 c 2,34,-1
 544 294 l 2,35,36
 539 292 539 292 528 290.5 c 128,-1,37
 517 289 517 289 512 287 c 2,38,-1
 500 287 l 1,39,40
 495 293 495 293 484 288 c 1,0,-1
875 566 m 1,41,42
 871 562 871 562 868 551 c 0,43,44
 867 546 867 546 866 544 c 0,45,46
 841 489 841 489 791 475 c 0,47,48
 759 467 759 467 759 428 c 0,49,50
 757 411 757 411 763 393 c 0,51,52
 766 381 766 381 775 359 c 0,53,54
 782 345 782 345 779 339.5 c 128,-1,55
 776 334 776 334 759 331 c 0,56,57
 725 326 725 326 697 334 c 0,58,59
 682 339 682 339 691 353 c 0,60,61
 701 372 701 372 706 387 c 0,62,63
 712 406 712 406 709 425 c 0,64,65
 707 449 707 449 700.5 457.5 c 128,-1,66
 694 466 694 466 678 469 c 0,67,68
 667 469 667 469 663 478 c 1,69,70
 664 478 664 478 665.5 479.5 c 128,-1,71
 667 481 667 481 669 481 c 0,72,73
 738 507 738 507 778 578 c 0,74,75
 780 582 780 582 783.5 583 c 128,-1,76
 787 584 787 584 794 584 c 2,77,-1
 875 584 l 1,78,-1
 875 566 l 1,41,42
125 588 m 1,79,-1
 203 588 l 2,80,81
 209 588 209 588 211 587 c 128,-1,82
 213 586 213 586 216 581 c 0,83,84
 255 516 255 516 334 481 c 1,85,86
 333 480 333 480 330 478.5 c 128,-1,87
 327 477 327 477 325 475 c 0,88,89
 306 468 306 468 298.5 455.5 c 128,-1,90
 291 443 291 443 291 422 c 0,91,92
 291 397 291 397 306 366 c 0,93,94
 313 353 313 353 315.5 349 c 128,-1,95
 318 345 318 345 317.5 341.5 c 128,-1,96
 317 338 317 338 313 338 c 0,97,98
 270 319 270 319 228 338 c 0,99,100
 222 338 222 338 220.5 341.5 c 128,-1,101
 219 345 219 345 222 353 c 0,102,103
 234 378 234 378 239 391 c 0,104,105
 246 412 246 412 243.5 431 c 128,-1,106
 241 450 241 450 235 457 c 128,-1,107
 229 464 229 464 213 469 c 0,108,109
 158 485 158 485 131 550 c 0,110,111
 130 551 130 551 129.5 555 c 128,-1,112
 129 559 129 559 125 559 c 1,113,-1
 125 588 l 1,79,-1
EndSplineSet
EndChar

StartChar: graphql
Encoding: 57401 57401 53
Width: 1000
Flags: W
LayerCount: 2
Fore
SplineSet
775 413 m 0,0,1
 773 413 773 413 771 415 c 0,2,3
 764 419 764 419 759 419 c 1,4,-1
 759 581 l 1,5,6
 769 581 769 581 775 587 c 0,7,8
 797 600 797 600 804 624.5 c 128,-1,9
 811 649 811 649 798 671.5 c 128,-1,10
 785 694 785 694 760 700.5 c 128,-1,11
 735 707 735 707 713 694 c 0,12,13
 704 690 704 690 700 681 c 1,14,-1
 559 762 l 1,15,16
 559 768 559 768 561 773 c 128,-1,17
 563 778 563 778 562 781 c 0,18,19
 563 807 563 807 544.5 825.5 c 128,-1,20
 526 844 526 844 500 844 c 128,-1,21
 474 844 474 844 456 825.5 c 128,-1,22
 438 807 438 807 438 781 c 0,23,24
 438 769 438 769 441 762 c 1,25,-1
 300 681 l 1,26,27
 298 686 298 686 291 691 c 2,28,-1
 288 694 l 1,29,30
 265 707 265 707 240 700.5 c 128,-1,31
 215 694 215 694 203 672.5 c 128,-1,32
 191 651 191 651 197.5 626.5 c 128,-1,33
 204 602 204 602 225 587 c 1,34,-1
 229 585 l 2,35,36
 236 581 236 581 241 581 c 1,37,-1
 241 419 l 1,38,39
 231 419 231 419 225 412 c 0,40,41
 203 400 203 400 196 375.5 c 128,-1,42
 189 351 189 351 202 328.5 c 128,-1,43
 215 306 215 306 240 299.5 c 128,-1,44
 265 293 265 293 288 306 c 0,45,46
 296 310 296 310 300 319 c 1,47,-1
 441 237 l 1,48,49
 441 232 441 232 439.5 227 c 128,-1,50
 438 222 438 222 437 219 c 0,51,52
 438 193 438 193 456 174.5 c 128,-1,53
 474 156 474 156 500 156 c 128,-1,54
 526 156 526 156 544.5 174.5 c 128,-1,55
 563 193 563 193 563 219 c 0,56,57
 563 231 563 231 559 237 c 1,58,-1
 700 319 l 1,59,60
 703 312 703 312 716 306 c 0,61,62
 737 294 737 294 761.5 300.5 c 128,-1,63
 786 307 786 307 800 328 c 0,64,65
 812 349 812 349 804 373.5 c 128,-1,66
 796 398 796 398 775 413 c 0,0,1
316 372 m 1,67,68
 316 381 316 381 309 388 c 0,69,70
 306 394 306 394 300 400 c 1,71,-1
 484 722 l 2,72,73
 488 722 488 722 495 720 c 2,74,-1
 500 719 l 2,75,76
 513 719 513 719 516 722 c 1,77,-1
 700 400 l 1,78,79
 691 391 691 391 691 388 c 2,80,-1
 688 383 l 2,81,82
 684 376 684 376 684 372 c 1,83,-1
 316 372 l 1,67,68
684 659 m 1,84,85
 679 632 679 632 691 613 c 0,86,87
 705 589 705 589 728 584 c 1,88,-1
 728 422 l 1,89,-1
 725 422 l 1,90,-1
 544 738 l 1,91,-1
 547 741 l 1,92,-1
 684 659 l 1,84,85
456 741 m 2,93,94
 456 740 456 740 456 739 c 2,95,-1
 456 741 l 1,96,-1
 272 419 l 1,97,-1
 269 419 l 1,98,-1
 269 581 l 1,99,100
 292 586 292 586 306 609 c 0,101,102
 318 629 318 629 313 656 c 1,103,-1
 456 741 l 2,93,94
544 259 m 1,104,105
 525 278 525 278 500 278 c 0,106,107
 470 278 470 278 456 259 c 1,108,-1
 316 341 l 1,109,-1
 316 344 l 1,110,-1
 684 344 l 1,111,-1
 684 341 l 1,112,-1
 544 259 l 1,104,105
EndSplineSet
EndChar

StartChar: grunt
Encoding: 57402 57402 54
Width: 1000
Flags: W
LayerCount: 2
Fore
SplineSet
703 488 m 0,0,1
 706 489 706 489 713 492 c 0,2,3
 734 502 734 502 744 509 c 0,4,5
 757 519 757 519 762 532 c 128,-1,6
 767 545 767 545 762 557 c 128,-1,7
 757 569 757 569 744 575 c 0,8,9
 736 579 736 579 731 594 c 0,10,11
 727 621 727 621 741 644 c 0,12,13
 757 667 757 667 747 684 c 128,-1,14
 737 701 737 701 706 703 c 2,15,-1
 703 703 l 1,16,-1
 700 706 l 1,17,-1
 700 708 l 2,18,19
 697 722 697 722 698 728 c 0,20,21
 700 739 700 739 712 747 c 0,22,23
 719 750 719 750 737 756 c 0,24,25
 744 759 744 759 753 759 c 1,26,27
 753 763 753 763 750 763 c 1,28,-1
 750 763 l 1,29,30
 735 780 735 780 712 787 c 0,31,32
 692 793 692 793 669 791 c 0,33,34
 643 788 643 788 622 775 c 0,35,36
 606 765 606 765 587 744 c 0,37,38
 583 735 583 735 572 741 c 0,39,40
 566 744 566 744 566 750 c 0,41,42
 566 753 566 753 567.5 759.5 c 128,-1,43
 569 766 569 766 569 769 c 2,44,-1
 578 788 l 1,45,46
 567 788 567 788 556 783 c 0,47,48
 550 780 550 780 537 772 c 2,49,-1
 531 769 l 1,50,51
 524 780 524 780 523.5 790 c 128,-1,52
 523 800 523 800 528 813 c 1,53,54
 505 805 505 805 493 795 c 0,55,56
 479 782 479 782 475 763 c 1,57,58
 470 767 470 767 469 775 c 0,59,60
 468 780 468 780 468 789 c 2,61,-1
 469 797 l 1,62,-1
 466 797 l 2,63,64
 464 797 464 797 462.5 795.5 c 128,-1,65
 461 794 461 794 459 794 c 0,66,67
 436 775 436 775 431 750 c 0,68,69
 431 748 431 748 429.5 745 c 128,-1,70
 428 742 428 742 428 741 c 1,71,72
 427 742 427 742 423.5 743.5 c 128,-1,73
 420 745 420 745 419 747 c 0,74,75
 413 752 413 752 400.5 762.5 c 128,-1,76
 388 773 388 773 381 778 c 0,77,78
 353 794 353 794 326.5 794.5 c 128,-1,79
 300 795 300 795 272 781 c 1,80,-1
 247 756 l 1,81,82
 253 753 253 753 265.5 750 c 128,-1,83
 278 747 278 747 284 744 c 0,84,85
 301 739 301 739 305.5 729 c 128,-1,86
 310 719 310 719 303 700 c 0,87,88
 300 700 300 700 294 698.5 c 128,-1,89
 288 697 288 697 284 697 c 0,90,91
 268 692 268 692 261 681.5 c 128,-1,92
 254 671 254 671 256 656 c 0,93,94
 258 652 258 652 262.5 642.5 c 128,-1,95
 267 633 267 633 269 628 c 0,96,97
 269 627 269 627 270.5 623.5 c 128,-1,98
 272 620 272 620 272 619 c 2,99,-1
 272 587 l 2,100,101
 272 581 272 581 259 569 c 2,102,-1
 254 564 l 2,103,104
 243 554 243 554 241 547 c 0,105,106
 234 536 234 536 239 523 c 128,-1,107
 244 510 244 510 256 500 c 0,108,109
 272 488 272 488 297 478 c 0,110,111
 322 466 322 466 322 441 c 0,112,113
 322 406 322 406 319 388 c 0,114,115
 319 385 319 385 317 377 c 0,116,117
 316 368 316 368 316 363 c 1,118,119
 300 375 300 375 291.5 387.5 c 128,-1,120
 283 400 283 400 281 416 c 1,121,122
 253 392 253 392 253 366 c 0,123,124
 248 333 248 333 262 307 c 0,125,126
 277 279 277 279 313 266 c 0,127,128
 316 266 316 266 322 259 c 0,129,130
 350 213 350 213 406 203 c 0,131,132
 413 203 413 203 413 200 c 0,133,134
 437 185 437 185 464 180 c 0,135,136
 488 176 488 176 519 178 c 0,137,138
 539 181 539 181 549 184 c 0,139,140
 564 188 564 188 575 197 c 0,141,142
 577 198 577 198 581.5 200 c 128,-1,143
 586 202 586 202 587 203 c 0,144,145
 639 212 639 212 669 256 c 1,146,-1
 678 266 l 1,147,148
 709 276 709 276 722 297 c 0,149,150
 733 312 733 312 737 333 c 0,151,152
 740 351 740 351 738 369 c 0,153,154
 735 382 735 382 728.5 392.5 c 128,-1,155
 722 403 722 403 709 416 c 1,156,157
 705 399 705 399 697 386.5 c 128,-1,158
 689 374 689 374 675 363 c 1,159,160
 672 391 672 391 672 444 c 1,161,162
 677 462 677 462 684 472.5 c 128,-1,163
 691 483 691 483 703 488 c 0,0,1
441 322 m 1,164,-1
 581 322 l 1,165,-1
 441 322 l 1,164,-1
EndSplineSet
EndChar

StartChar: gulp
Encoding: 57403 57403 55
Width: 1000
Flags: W
LayerCount: 2
Fore
SplineSet
628 288 m 1,0,1
 622 278 622 278 615.5 265.5 c 128,-1,2
 609 253 609 253 609 244 c 2,3,-1
 600 147 l 2,4,5
 600 130 600 130 584 125 c 0,6,7
 573 122 573 122 550 114 c 128,-1,8
 527 106 527 106 516 103 c 2,9,-1
 481 103 l 2,10,11
 480 103 480 103 475 104.5 c 128,-1,12
 470 106 470 106 469 106 c 0,13,14
 431 119 431 119 416 128 c 0,15,16
 406 138 406 138 406 144 c 0,17,18
 403 169 403 169 403 216 c 0,19,20
 403 241 403 241 401 252 c 0,21,22
 397 272 397 272 384 284 c 1,23,-1
 384 288 l 1,24,25
 502 255 502 255 628 288 c 1,0,1
675 684 m 1,26,27
 673 663 673 663 668.5 619 c 128,-1,28
 664 575 664 575 663 553 c 2,29,-1
 641 325 l 2,30,31
 641 296 641 296 609 291 c 0,32,33
 575 284 575 284 519 278 c 0,34,35
 449 273 449 273 388 291 c 0,36,37
 377 293 377 293 372 301 c 0,38,39
 369 306 369 306 366 319 c 0,40,41
 366 338 366 338 359 362 c 1,42,-1
 347 478 l 2,43,44
 347 480 347 480 345.5 483 c 128,-1,45
 344 486 344 486 344 487 c 0,46,47
 342 520 342 520 332 583 c 2,48,-1
 325 634 l 2,49,50
 322 650 322 650 322 681 c 1,51,52
 504 643 504 643 675 684 c 1,26,27
322 703 m 1,53,54
 334 709 334 709 341 709 c 2,55,-1
 428 719 l 2,56,57
 430 719 430 719 436 722 c 2,58,-1
 441 725 l 1,59,60
 438 733 438 733 434 749 c 0,61,62
 430 768 430 768 426 778 c 0,63,64
 420 793 420 793 409 803 c 0,65,66
 397 816 397 816 373.5 842.5 c 128,-1,67
 350 869 350 869 338 881 c 1,68,69
 348 892 348 892 352 894.5 c 128,-1,70
 356 897 356 897 359.5 895 c 128,-1,71
 363 893 363 893 372 884 c 2,72,-1
 384 872 l 2,73,74
 398 856 398 856 406 850 c 0,75,76
 459 807 459 807 469 741 c 0,77,78
 473 727 473 727 480 723 c 128,-1,79
 487 719 487 719 500 719 c 2,80,-1
 656 709 l 2,81,82
 661 709 661 709 671 706 c 2,83,-1
 678 703 l 1,84,85
 653 684 653 684 569 677 c 0,86,87
 492 670 492 670 416 677 c 0,88,89
 337 685 337 685 322 703 c 1,53,54
EndSplineSet
EndChar

StartChar: hacklang
Encoding: 57404 57404 56
Width: 1000
Flags: W
LayerCount: 2
Fore
SplineSet
494 844 m 1,0,-1
 494 647 l 2,1,2
 494 641 494 641 491 638 c 2,3,-1
 291 438 l 1,4,-1
 290 436 l 2,5,6
 289 434 289 434 288 434 c 2,7,-1
 288 634 l 2,8,9
 288 637 288 637 288 637.5 c 128,-1,10
 288 638 288 638 291 638 c 0,11,12
 325 672 325 672 392 740.5 c 128,-1,13
 459 809 459 809 494 844 c 1,0,-1
744 556 m 1,14,-1
 744 356 l 2,15,16
 744 354 744 354 743.5 353.5 c 128,-1,17
 743 353 743 353 741 353 c 2,18,-1
 538 150 l 1,19,-1
 534 150 l 1,20,-1
 534 350 l 2,21,22
 534 352 534 352 534.5 352.5 c 128,-1,23
 535 353 535 353 538 353 c 0,24,25
 572 386 572 386 640 454 c 128,-1,26
 708 522 708 522 744 556 c 1,27,-1
 741 556 l 1,28,-1
 744 556 l 1,14,-1
734 603 m 1,29,-1
 534 403 l 1,30,-1
 534 600 l 2,31,32
 534 602 534 602 534.5 602.5 c 128,-1,33
 535 603 535 603 538 603 c 2,34,-1
 734 603 l 1,29,-1
497 594 m 1,35,-1
 497 397 l 2,36,37
 497 395 497 395 496.5 394.5 c 128,-1,38
 496 394 496 394 494 394 c 2,39,-1
 297 394 l 1,40,41
 395 496 395 496 497 594 c 1,35,-1
288 156 m 1,42,43
 288 157 288 157 288 157 c 1,44,-1
 288 156 l 1,45,-1
 288 353 l 2,46,47
 288 355 288 355 288 355.5 c 128,-1,48
 288 356 288 356 291 356 c 2,49,-1
 487 356 l 1,50,-1
 422 290 l 2,51,52
 333 200 333 200 288 156 c 1,42,43
EndSplineSet
EndChar

StartChar: haml
Encoding: 57405 57405 57
Width: 1000
Flags: W
LayerCount: 2
Fore
SplineSet
625 531 m 0,0,1
 611 537 611 537 609 553 c 0,2,3
 607 565 607 565 611 580 c 2,4,-1
 616 594 l 1,5,-1
 650 625 l 1,6,-1
 656 624 l 2,7,8
 663 624 663 624 668.5 627.5 c 128,-1,9
 674 631 674 631 676 636 c 128,-1,10
 678 641 678 641 678 646 c 2,11,-1
 678 650 l 1,12,-1
 704 679 l 2,13,14
 705 681 705 681 703 684 c 128,-1,15
 701 687 701 687 694.5 693.5 c 128,-1,16
 688 700 688 700 675 709.5 c 128,-1,17
 662 719 662 719 651 723 c 0,18,19
 643 727 643 727 637 726.5 c 128,-1,20
 631 726 631 726 628 724 c 2,21,-1
 597 700 l 1,22,-1
 591 700 l 2,23,24
 585 699 585 699 581 697 c 128,-1,25
 577 695 577 695 579 688 c 0,26,27
 580 684 580 684 581 681 c 2,28,-1
 453 575 l 1,29,-1
 388 725 l 1,30,-1
 390 729 l 2,31,32
 393 735 393 735 392 740.5 c 128,-1,33
 391 746 391 746 386 749 c 2,34,-1
 381 750 l 1,35,36
 371 768 371 768 364 775 c 0,37,38
 361 778 361 778 359 778 c 1,39,-1
 359 778 l 1,40,41
 326 786 326 786 302 772 c 0,42,43
 290 765 290 765 284 756 c 1,44,-1
 284 756 l 1,45,46
 282 754 282 754 285 744 c 2,47,-1
 288 734 l 1,48,-1
 286 733 l 2,49,50
 284 731 284 731 283.5 727 c 128,-1,51
 283 723 283 723 284 716 c 0,52,53
 288 702 288 702 296 701 c 0,54,55
 300 701 300 701 303 703 c 2,56,-1
 388 516 l 1,57,58
 388 500 388 500 322 253 c 1,59,-1
 322 253 l 1,60,61
 353 220 353 220 403 219 c 0,62,63
 428 219 428 219 447 225 c 1,64,-1
 447 225 l 1,65,66
 447 256 447 256 484 437 c 1,67,-1
 484 437 l 1,68,69
 511 413 511 413 544 402 c 0,70,71
 566 394 566 394 584 394 c 1,72,73
 584 381 584 381 587 372 c 1,74,-1
 597 369 l 2,75,76
 609 367 609 367 621 367 c 0,77,78
 638 367 638 367 651 373 c 0,79,80
 667 381 667 381 678 397 c 0,81,82
 681 400 681 400 681 406 c 1,83,-1
 690 411 l 2,84,85
 700 417 700 417 707 425 c 0,86,87
 716 436 716 436 716 450 c 0,88,89
 716 479 716 479 682 502 c 0,90,91
 662 516 662 516 625 531 c 0,0,1
688 419 m 1,92,93
 690 428 690 428 689 437 c 0,94,95
 687 444 687 444 684 449 c 2,96,-1
 681 453 l 1,97,-1
 679 448 l 2,98,99
 676 442 676 442 669 436 c 0,100,101
 659 429 659 429 643.5 425 c 128,-1,102
 628 421 628 421 617 422 c 0,103,104
 609 424 609 424 604 428 c 2,105,-1
 600 431 l 1,106,-1
 596 425 l 2,107,108
 591 417 591 417 588 409 c 1,109,110
 519 421 519 421 488 467 c 1,111,-1
 488 469 l 1,112,113
 484 478 484 478 491 500 c 1,114,-1
 584 569 l 1,115,116
 580 541 580 541 604 523 c 0,117,118
 616 513 616 513 628 509 c 2,119,-1
 647 502 l 2,120,121
 668 491 668 491 681 480 c 0,122,123
 700 464 700 464 700 447 c 0,124,125
 702 436 702 436 697 428 c 0,126,127
 694 422 694 422 688 419 c 1,92,93
EndSplineSet
EndChar

StartChar: happenings
Encoding: 57406 57406 58
Width: 1000
Flags: W
LayerCount: 2
Fore
SplineSet
355 870 m 1,0,-1
 898 870 l 1,1,-1
 898 669 l 1,2,-1
 355 669 l 1,3,-1
 355 870 l 1,0,-1
101 770 m 0,4,5
 101 733 101 733 125 708 c 128,-1,6
 149 683 149 683 183 683 c 128,-1,7
 217 683 217 683 241.5 708 c 128,-1,8
 266 733 266 733 266 769.5 c 128,-1,9
 266 806 266 806 241.5 831.5 c 128,-1,10
 217 857 217 857 183 857 c 128,-1,11
 149 857 149 857 125 831.5 c 128,-1,12
 101 806 101 806 101 770 c 0,4,5
357 595 m 1,13,-1
 900 595 l 1,14,-1
 900 394 l 1,15,-1
 357 394 l 1,16,-1
 357 595 l 1,13,-1
103 495 m 256,17,18
 103 459 103 459 127 433.5 c 128,-1,19
 151 408 151 408 185.5 408 c 128,-1,20
 220 408 220 408 244 433.5 c 128,-1,21
 268 459 268 459 268 495 c 128,-1,22
 268 531 268 531 244 556.5 c 128,-1,23
 220 582 220 582 185.5 582 c 128,-1,24
 151 582 151 582 127 556.5 c 128,-1,25
 103 531 103 531 103 495 c 256,17,18
357 321 m 1,26,-1
 900 321 l 1,27,-1
 900 119 l 1,28,-1
 357 119 l 1,29,-1
 357 321 l 1,26,-1
103 220 m 256,30,31
 103 184 103 184 127 158.5 c 128,-1,32
 151 133 151 133 185.5 133 c 128,-1,33
 220 133 220 133 244 158.5 c 128,-1,34
 268 184 268 184 268 220 c 128,-1,35
 268 256 268 256 244 281.5 c 128,-1,36
 220 307 220 307 185.5 307 c 128,-1,37
 151 307 151 307 127 281.5 c 128,-1,38
 103 256 103 256 103 220 c 256,30,31
EndSplineSet
EndChar

StartChar: haskell
Encoding: 57407 57407 59
Width: 1000
Flags: W
LayerCount: 2
Fore
SplineSet
444 722 m 1,0,1
 462 695 462 695 498 640.5 c 128,-1,2
 534 586 534 586 553 559 c 2,3,-1
 607 479 l 2,4,5
 695 348 695 348 738 281 c 1,6,-1
 628 281 l 1,7,-1
 625 284 l 1,8,9
 611 306 611 306 581.5 350 c 128,-1,10
 552 394 552 394 538 416 c 0,11,12
 536 417 536 417 536 417.5 c 128,-1,13
 536 418 536 418 536 418 c 129,-1,14
 536 418 536 418 536 417.5 c 128,-1,15
 536 417 536 417 534 416 c 0,16,17
 520 394 520 394 490.5 350 c 128,-1,18
 461 306 461 306 447 284 c 1,19,-1
 444 281 l 1,20,-1
 334 281 l 1,21,-1
 334 284 l 1,22,23
 358 320 358 320 406.5 392 c 128,-1,24
 455 464 455 464 478 500 c 1,25,-1
 478 503 l 1,26,27
 455 539 455 539 406.5 611 c 128,-1,28
 358 683 358 683 334 719 c 1,29,-1
 334 722 l 1,30,-1
 444 722 l 1,0,1
297 278 m 1,31,-1
 188 278 l 1,32,-1
 188 281 l 1,33,-1
 198 298 l 2,34,35
 217 327 217 327 228 341 c 2,36,-1
 331 497 l 1,37,-1
 331 500 l 1,38,39
 257 619 257 619 188 719 c 1,40,-1
 297 719 l 1,41,-1
 300 716 l 2,42,43
 313 698 313 698 336 662.5 c 128,-1,44
 359 627 359 627 372 609 c 2,45,-1
 393 578 l 2,46,47
 428 527 428 527 444 500 c 1,48,-1
 444 497 l 1,49,50
 416 454 416 454 357 368 c 2,51,-1
 297 278 l 1,52,-1
 299 280 l 1,53,-1
 297 278 l 1,31,-1
813 519 m 1,54,-1
 616 519 l 1,55,-1
 569 591 l 1,56,-1
 569 594 l 1,57,-1
 813 594 l 1,58,-1
 813 519 l 1,54,-1
813 406 m 2,59,60
 813 407 813 407 813 407 c 1,61,-1
 813 406 l 1,62,-1
 688 406 l 1,63,-1
 641 478 l 1,64,-1
 641 481 l 1,65,-1
 813 481 l 1,66,-1
 813 406 l 2,59,60
EndSplineSet
EndChar

StartChar: haxe
Encoding: 57408 57408 60
Width: 1000
Flags: W
LayerCount: 2
Fore
SplineSet
778 375 m 1,0,-1
 716 500 l 1,1,-1
 778 625 l 1,2,-1
 781 628 l 1,3,-1
 781 781 l 1,4,-1
 628 781 l 1,5,-1
 625 778 l 1,6,-1
 500 716 l 1,7,-1
 375 778 l 1,8,-1
 372 781 l 1,9,-1
 219 781 l 1,10,-1
 219 628 l 1,11,-1
 222 625 l 1,12,-1
 284 500 l 1,13,-1
 222 375 l 1,14,-1
 219 372 l 1,15,-1
 219 219 l 1,16,-1
 372 219 l 1,17,-1
 375 222 l 1,18,-1
 500 284 l 1,19,-1
 625 222 l 1,20,-1
 628 219 l 1,21,-1
 781 219 l 1,22,-1
 781 372 l 1,23,-1
 778 375 l 1,0,-1
688 513 m 1,24,-1
 513 688 l 1,25,-1
 747 747 l 1,26,-1
 688 513 l 1,24,-1
313 513 m 1,27,-1
 253 747 l 1,28,-1
 488 688 l 1,29,-1
 313 513 l 1,27,-1
313 488 m 1,30,-1
 488 313 l 1,31,-1
 253 253 l 1,32,-1
 313 488 l 1,30,-1
688 488 m 1,33,-1
 747 253 l 1,34,-1
 513 313 l 1,35,-1
 688 488 l 1,33,-1
EndSplineSet
EndChar

StartChar: heroku
Encoding: 57409 57409 61
Width: 1000
Flags: W
LayerCount: 2
Fore
SplineSet
281 188 m 1,0,-1
 281 366 l 1,1,-1
 383 277 l 1,2,-1
 281 188 l 1,0,-1
648 549 m 0,3,4
 673 525 673 525 682 490 c 0,5,6
 688 471 688 471 687 455 c 2,7,-1
 687 188 l 1,8,-1
 597 188 l 1,9,-1
 597 454 l 2,10,11
 597 473 597 473 586 485 c 0,12,13
 572 500 572 500 541 500 c 0,14,15
 483 500 483 500 409 477 c 0,16,17
 367 464 367 464 345 454 c 2,18,-1
 281 425 l 1,19,-1
 281 813 l 1,20,-1
 372 813 l 1,21,-1
 372 559 l 1,22,23
 466 589 466 589 541 589 c 0,24,25
 608 589 608 589 648 549 c 0,3,4
530 667 m 1,26,27
 582 736 582 736 597 813 c 1,28,-1
 688 813 l 1,29,30
 678 732 678 732 620 667 c 1,31,-1
 530 667 l 1,26,27
EndSplineSet
EndChar

StartChar: hex
Encoding: 57410 57410 62
Width: 1000
Flags: W
LayerCount: 2
Fore
SplineSet
656 230 m 1,0,-1
 344 230 l 1,1,-1
 188 500 l 1,2,-1
 344 770 l 1,3,-1
 656 770 l 1,4,-1
 812 500 l 1,5,-1
 656 230 l 1,0,-1
579 363 m 1,6,-1
 658 500 l 1,7,-1
 579 637 l 1,8,-1
 421 637 l 1,9,-1
 342 500 l 1,10,-1
 421 363 l 1,11,-1
 579 363 l 1,6,-1
EndSplineSet
EndChar

StartChar: html
Encoding: 57411 57411 63
Width: 1000
Flags: W
LayerCount: 2
Fore
SplineSet
250 531 m 1,0,-1
 438 706 l 1,1,-1
 438 625 l 1,2,-1
 297 500 l 1,3,-1
 438 375 l 1,4,-1
 438 294 l 1,5,-1
 250 469 l 1,6,-1
 250 531 l 1,0,-1
750 466 m 1,7,-1
 563 291 l 1,8,-1
 563 375 l 1,9,-1
 706 500 l 1,10,-1
 563 625 l 1,11,-1
 563 709 l 1,12,-1
 750 534 l 1,13,-1
 750 466 l 1,7,-1
EndSplineSet
EndChar

StartChar: ignored
Encoding: 57413 57413 64
Width: 1000
Flags: W
LayerCount: 2
Fore
SplineSet
716 678 m 1,0,1
 722 691 722 691 722 697 c 0,2,3
 718 714 718 714 704.5 718.5 c 128,-1,4
 691 723 691 723 675 713 c 1,5,-1
 612 650 l 2,6,7
 609 647 609 647 600 647 c 0,8,9
 546 668 546 668 493.5 667.5 c 128,-1,10
 441 667 441 667 388 644 c 0,11,12
 290 601 290 601 222 497 c 0,13,14
 217 487 217 487 217.5 479.5 c 128,-1,15
 218 472 218 472 225 466 c 0,16,17
 249 437 249 437 278 413 c 0,18,19
 297 397 297 397 334 372 c 1,20,21
 333 372 333 372 331.5 370.5 c 128,-1,22
 330 369 330 369 328 369 c 2,23,-1
 312 354 l 2,24,25
 293 335 293 335 284 325 c 0,26,27
 274 314 274 314 278 297 c 0,28,29
 283 282 283 282 300 278 c 0,30,31
 316 278 316 278 325 288 c 2,32,-1
 716 678 l 1,0,1
378 416 m 1,33,-1
 372 416 l 1,34,35
 315 447 315 447 278 487 c 1,36,37
 332 558 332 558 394 591 c 1,38,39
 348 513 348 513 400 438 c 1,40,-1
 378 416 l 1,33,-1
519 587 m 0,41,42
 514 572 514 572 497 572 c 0,43,44
 476 572 476 572 461 559 c 128,-1,45
 446 546 446 546 444 525 c 2,46,-1
 444 516 l 2,47,48
 444 507 444 507 438.5 502 c 128,-1,49
 433 497 433 497 424.5 497 c 128,-1,50
 416 497 416 497 411 503 c 128,-1,51
 406 509 406 509 406 519 c 0,52,53
 406 557 406 557 433 584.5 c 128,-1,54
 460 612 460 612 497 612 c 0,55,56
 508 612 508 612 514.5 604.5 c 128,-1,57
 521 597 521 597 519 587 c 0,41,42
775 500 m 0,58,59
 767 509 767 509 751.5 529.5 c 128,-1,60
 736 550 736 550 728 559 c 0,61,62
 722 567 722 567 706.5 581 c 128,-1,63
 691 595 691 595 684 603 c 1,64,-1
 647 566 l 1,65,66
 691 531 691 531 722 487 c 1,67,68
 716 481 716 481 713 481 c 0,69,70
 694 463 694 463 684 456 c 0,71,72
 586 377 586 377 475 391 c 0,73,74
 466 391 466 391 462 387 c 0,75,76
 450 375 450 375 444 366 c 2,77,-1
 425 347 l 1,78,-1
 428 347 l 1,79,80
 503 331 503 331 562 344 c 0,81,82
 684 365 684 365 775 472 c 1,83,84
 789 481 789 481 775 500 c 0,58,59
EndSplineSet
EndChar

StartChar: illustrator
Encoding: 57414 57414 65
Width: 1000
Flags: W
LayerCount: 2
Fore
SplineSet
781 750 m 1,0,-1
 219 750 l 1,1,-1
 219 219 l 1,2,-1
 781 219 l 1,3,-1
 781 750 l 1,0,-1
544 366 m 2,4,-1
 513 366 l 2,5,6
 508 366 508 366 506.5 366.5 c 128,-1,7
 505 367 505 367 503 372 c 0,8,9
 500 383 500 383 492 406.5 c 128,-1,10
 484 430 484 430 481 441 c 0,11,12
 481 443 481 443 478.5 445 c 128,-1,13
 476 447 476 447 472 447 c 2,14,-1
 406 447 l 2,15,16
 402 447 402 447 399 443 c 2,17,-1
 397 441 l 1,18,-1
 378 372 l 2,19,20
 378 370 378 370 376 368 c 128,-1,21
 374 366 374 366 372 366 c 2,22,-1
 338 366 l 2,23,24
 333 366 333 366 332 367.5 c 128,-1,25
 331 369 331 369 331 372 c 0,26,27
 337 392 337 392 348 430 c 0,28,29
 359 474 359 474 366 494 c 0,30,31
 372 517 372 517 386 565.5 c 128,-1,32
 400 614 400 614 406 637 c 1,33,-1
 408 640 l 2,34,35
 409 644 409 644 410.5 645 c 128,-1,36
 412 646 412 646 416 644 c 2,37,-1
 463 644 l 2,38,39
 466 644 466 644 467.5 643 c 128,-1,40
 469 642 469 642 469 637 c 0,41,42
 477 614 477 614 491 565.5 c 128,-1,43
 505 517 505 517 513 494 c 2,44,-1
 550 372 l 2,45,46
 552 367 552 367 551.5 366.5 c 128,-1,47
 551 366 551 366 544 366 c 2,4,-1
638 381 m 0,48,49
 638 370 638 370 636 368 c 128,-1,50
 634 366 634 366 622 366 c 2,51,-1
 600 366 l 2,52,53
 595 366 595 366 594.5 366.5 c 128,-1,54
 594 367 594 367 594 372 c 2,55,-1
 594 575 l 2,56,57
 594 580 594 580 596 582 c 128,-1,58
 598 584 598 584 600 581 c 2,59,-1
 628 581 l 2,60,61
 632 581 632 581 633 579.5 c 128,-1,62
 634 578 634 578 634 575 c 0,63,64
 637 509 637 509 638 381 c 0,48,49
616 603 m 0,65,66
 606 603 606 603 598.5 609.5 c 128,-1,67
 591 616 591 616 591 625.5 c 128,-1,68
 591 635 591 635 597.5 642.5 c 128,-1,69
 604 650 604 650 614.5 650 c 128,-1,70
 625 650 625 650 633 643.5 c 128,-1,71
 641 637 641 637 641 628 c 0,72,73
 641 616 641 616 634 609.5 c 128,-1,74
 627 603 627 603 616 603 c 0,65,66
444 584 m 0,75,76
 444 587 444 587 442 587 c 128,-1,77
 440 587 440 587 438 584 c 0,78,79
 438 583 438 583 436 580 c 128,-1,80
 434 577 434 577 434 575 c 0,81,82
 422 519 422 519 412 494 c 0,83,84
 413 487 413 487 416 487 c 2,85,-1
 459 487 l 2,86,87
 464 487 464 487 464.5 489 c 128,-1,88
 465 491 465 491 463 494 c 0,89,90
 458 543 458 543 444 584 c 0,75,76
EndSplineSet
EndChar

StartChar: image
Encoding: 57415 57415 66
Width: 1000
Flags: W
LayerCount: 2
Fore
SplineSet
666 463 m 0,0,1
 689 463 689 463 705.5 479 c 128,-1,2
 722 495 722 495 722 518.5 c 128,-1,3
 722 542 722 542 705.5 558.5 c 128,-1,4
 689 575 689 575 665.5 575 c 128,-1,5
 642 575 642 575 625.5 558.5 c 128,-1,6
 609 542 609 542 609 518.5 c 128,-1,7
 609 495 609 495 625.5 479 c 128,-1,8
 642 463 642 463 666 463 c 0,0,1
319 634 m 1,9,-1
 319 247 l 1,10,-1
 797 247 l 1,11,-1
 797 634 l 1,12,-1
 319 634 l 1,9,-1
341 613 m 1,13,-1
 775 613 l 1,14,-1
 775 275 l 1,15,-1
 663 403 l 1,16,-1
 594 322 l 1,17,-1
 456 469 l 1,18,-1
 341 325 l 1,19,-1
 341 613 l 1,13,-1
647 753 m 1,20,-1
 203 753 l 1,21,-1
 203 416 l 1,22,-1
 263 416 l 1,23,-1
 263 700 l 1,24,-1
 647 700 l 1,25,-1
 647 753 l 1,20,-1
EndSplineSet
EndChar

StartChar: info
Encoding: 57416 57416 67
Width: 1000
Flags: W
LayerCount: 2
Fore
SplineSet
813 528 m 1,0,1
 808 601 808 601 763 672 c 0,2,3
 730 721 730 721 684 753.5 c 128,-1,4
 638 786 638 786 581 800 c 0,5,6
 548 809 548 809 519 809 c 2,7,-1
 469 809 l 1,8,9
 379 800 379 800 303 744 c 1,10,11
 216 671 216 671 194 569 c 0,12,13
 188 538 188 538 188 519 c 2,14,-1
 188 469 l 1,15,16
 198 382 198 382 241 322 c 0,17,18
 296 241 296 241 378 209 c 0,19,20
 435 189 435 189 481 184 c 1,21,-1
 531 184 l 1,22,23
 645 194 645 194 725 278 c 0,24,25
 790 343 790 343 809 434 c 0,26,27
 811 442 811 442 812.5 456 c 128,-1,28
 814 470 814 470 816 478 c 2,29,-1
 816 512 l 1,30,31
 812 519 812 519 812 528 c 1,32,-1
 813 528 l 1,0,1
500 234 m 256,33,34
 428 234 428 234 367 271 c 0,35,36
 307 306 307 306 272.5 367 c 128,-1,37
 238 428 238 428 238 500 c 128,-1,38
 238 572 238 572 273.5 633 c 128,-1,39
 309 694 309 694 370 729 c 0,40,41
 433 766 433 766 506 766 c 0,42,43
 577 764 577 764 637.5 728.5 c 128,-1,44
 698 693 698 693 733 633 c 0,45,46
 769 572 769 572 768 500 c 128,-1,47
 767 428 767 428 730.5 367 c 128,-1,48
 694 306 694 306 634 271 c 0,49,50
 572 234 572 234 500 234 c 256,33,34
575 331 m 2,51,52
 566 331 566 331 559 334 c 0,53,54
 555 334 555 334 552 340 c 0,55,56
 551 343 551 343 550 344 c 2,57,-1
 550 547 l 1,58,59
 525 545 525 545 476.5 543.5 c 128,-1,60
 428 542 428 542 403 541 c 1,61,-1
 403 516 l 1,62,-1
 434 516 l 2,63,64
 443 516 443 516 448 510 c 128,-1,65
 453 504 453 504 453 494 c 2,66,-1
 453 350 l 2,67,68
 453 331 453 331 434 331 c 2,69,-1
 406 331 l 1,70,-1
 406 306 l 1,71,-1
 594 306 l 1,72,-1
 594 331 l 1,73,-1
 575 331 l 2,51,52
494 584 m 0,74,75
 517 584 517 584 532 600 c 128,-1,76
 547 616 547 616 547 637.5 c 128,-1,77
 547 659 547 659 531 675 c 128,-1,78
 515 691 515 691 493 691 c 128,-1,79
 471 691 471 691 456 675 c 128,-1,80
 441 659 441 659 441 637.5 c 128,-1,81
 441 616 441 616 457 600 c 128,-1,82
 473 584 473 584 494 584 c 0,74,75
EndSplineSet
EndChar

StartChar: ionic
Encoding: 57417 57417 68
Width: 1000
Flags: W
LayerCount: 2
Fore
SplineSet
778 638 m 1,0,1
 797 656 797 656 797 690 c 128,-1,2
 797 724 797 724 773.5 748 c 128,-1,3
 750 772 750 772 716 772 c 0,4,5
 697 772 697 772 672 759 c 1,6,7
 599 813 599 813 500 813 c 0,8,9
 415 813 415 813 343 770 c 0,10,11
 272 728 272 728 230 657 c 0,12,13
 187 585 187 585 187.5 500 c 128,-1,14
 188 415 188 415 230 343 c 0,15,16
 272 272 272 272 343 230 c 0,17,18
 415 187 415 187 500 187.5 c 128,-1,19
 585 188 585 188 657 230 c 0,20,21
 728 272 728 272 770 343 c 0,22,23
 813 415 813 415 813 500 c 0,24,25
 813 574 813 574 778 638 c 1,0,1
500 238 m 0,26,27
 428 237 428 237 367 274 c 0,28,29
 307 308 307 308 272.5 368.5 c 128,-1,30
 238 429 238 429 238 500 c 128,-1,31
 238 571 238 571 273.5 631 c 128,-1,32
 309 691 309 691 369 726.5 c 128,-1,33
 429 762 429 762 500 762 c 0,34,35
 581 763 581 763 644 719 c 1,36,37
 638 700 638 700 637 691 c 0,38,39
 638 657 638 657 661 633 c 128,-1,40
 684 609 684 609 719 609 c 0,41,42
 731 609 731 609 738 613 c 1,43,44
 763 557 763 557 763 500 c 0,45,46
 763 428 763 428 728 367.5 c 128,-1,47
 693 307 693 307 632.5 272.5 c 128,-1,48
 572 238 572 238 500 238 c 0,26,27
500 628 m 256,49,50
 465 628 465 628 435.5 611 c 128,-1,51
 406 594 406 594 388 565 c 128,-1,52
 370 536 370 536 369.5 500.5 c 128,-1,53
 369 465 369 465 386 435.5 c 128,-1,54
 403 406 403 406 432 388 c 128,-1,55
 461 370 461 370 496.5 369.5 c 128,-1,56
 532 369 532 369 561.5 386 c 128,-1,57
 591 403 591 403 609 432 c 128,-1,58
 627 461 627 461 627.5 496.5 c 128,-1,59
 628 532 628 532 611 562.5 c 128,-1,60
 594 593 594 593 564.5 610.5 c 128,-1,61
 535 628 535 628 500 628 c 256,49,50
EndSplineSet
EndChar

StartChar: jade
Encoding: 57418 57418 69
Width: 1000
Flags: W
LayerCount: 2
Fore
SplineSet
813 378 m 1,0,1
 804 425 804 425 809 484 c 0,2,3
 813 503 813 503 813 513 c 0,4,5
 814 529 814 529 809 544 c 0,6,7
 803 563 803 563 797 600 c 2,8,-1
 796 606 l 2,9,10
 790 645 790 645 786 665 c 0,11,12
 779 699 779 699 769 725 c 0,13,14
 763 736 763 736 758 741 c 0,15,16
 751 747 751 747 741 747 c 0,17,18
 722 747 722 747 722 728 c 0,19,20
 723 714 723 714 728 684.5 c 128,-1,21
 733 655 733 655 734 641 c 0,22,23
 736 630 736 630 740.5 609.5 c 128,-1,24
 745 589 745 589 747 578 c 2,25,-1
 747 566 l 1,26,27
 738 566 738 566 734 569 c 2,28,-1
 724 576 l 2,29,30
 707 588 707 588 700 597 c 0,31,32
 677 630 677 630 663 663 c 2,33,-1
 648 697 l 2,34,35
 622 760 622 760 606 787 c 0,36,37
 593 809 593 809 573 818 c 0,38,39
 557 825 557 825 531 825 c 0,40,41
 519 825 519 825 519 813 c 2,42,-1
 521 803 l 2,43,44
 524 791 524 791 528 784 c 0,45,46
 542 759 542 759 568.5 707.5 c 128,-1,47
 595 656 595 656 609 631 c 0,48,49
 617 619 617 619 635 595 c 2,50,-1
 641 588 l 2,51,52
 650 574 650 574 648 567 c 128,-1,53
 646 560 646 560 631 553 c 1,54,-1
 628 553 l 1,55,-1
 625 550 l 1,56,57
 593 542 593 542 566 569 c 1,58,59
 540 589 540 589 509 594 c 0,60,61
 505 594 505 594 494 595.5 c 128,-1,62
 483 597 483 597 478 597 c 0,63,64
 440 600 440 600 414 598 c 0,65,66
 380 595 380 595 350 584 c 0,67,68
 306 569 306 569 275 533 c 0,69,70
 249 502 249 502 231 453 c 0,71,72
 225 434 225 434 213 391 c 1,73,74
 209 397 209 397 206 400 c 0,75,76
 200 406 200 406 200 412 c 1,77,-1
 196 410 l 2,78,79
 190 404 190 404 188 400 c 2,80,-1
 188 384 l 2,81,82
 188 372 188 372 194 359 c 0,83,84
 230 272 230 272 256 197 c 0,85,86
 266 178 266 178 284 178 c 0,87,88
 337 173 337 173 375 181 c 2,89,-1
 431 191 l 1,90,91
 419 203 419 203 413 206 c 0,92,93
 413 208 413 208 414.5 209.5 c 128,-1,94
 416 211 416 211 416 213 c 2,95,-1
 459 203 l 1,96,97
 538 174 538 174 613 178 c 0,98,99
 630 178 630 178 634 191 c 2,100,-1
 644 209 l 1,101,102
 651 239 651 239 675 275 c 1,103,-1
 676 277 l 2,104,105
 687 292 687 292 691 296 c 128,-1,106
 695 300 695 300 700.5 300 c 128,-1,107
 706 300 706 300 719 296 c 2,108,-1
 728 294 l 2,109,110
 756 284 756 284 779 296.5 c 128,-1,111
 802 309 802 309 809 338 c 0,112,113
 813 350 813 350 813 378 c 1,0,1
778 416 m 0,114,115
 769 406 769 406 766 406 c 0,116,117
 714 401 714 401 684 416 c 0,118,119
 677 418 677 418 666 430 c 2,120,-1
 659 437 l 1,121,122
 678 444 678 444 684 447 c 0,123,124
 723 451 723 451 763 431 c 0,125,126
 764 431 764 431 767 430 c 2,127,-1
 769 428 l 2,128,129
 778 419 778 419 778 416 c 0,114,115
EndSplineSet
EndChar

StartChar: java
Encoding: 57419 57419 70
Width: 1000
Flags: W
LayerCount: 2
Fore
SplineSet
500 800 m 256,0,1
 419 800 419 800 349 759 c 0,2,3
 281 719 281 719 241 651 c 0,4,5
 200 581 200 581 200 500 c 128,-1,6
 200 419 200 419 241 349 c 0,7,8
 281 281 281 281 349 241 c 0,9,10
 419 200 419 200 500 200 c 128,-1,11
 581 200 581 200 651 241 c 0,12,13
 719 281 719 281 759 349 c 0,14,15
 800 419 800 419 800 500 c 128,-1,16
 800 581 800 581 759 651 c 0,17,18
 719 719 719 719 651 759 c 0,19,20
 581 800 581 800 500 800 c 256,0,1
607 460 m 2,21,22
 610 436 610 436 602.5 413 c 128,-1,23
 595 390 595 390 578 372.5 c 128,-1,24
 561 355 561 355 539 346.5 c 128,-1,25
 517 338 517 338 493 340 c 0,26,27
 464 338 464 338 437.5 349.5 c 128,-1,28
 411 361 411 361 392 383 c 1,29,-1
 429 429 l 1,30,31
 440 415 440 415 456 407 c 128,-1,32
 472 399 472 399 491 399 c 0,33,34
 516 399 516 399 530 415.5 c 128,-1,35
 544 432 544 432 543 465 c 2,36,-1
 543 660 l 1,37,-1
 607 660 l 1,38,-1
 607 460 l 2,21,22
EndSplineSet
EndChar

StartChar: javascript
Encoding: 57423 57423 71
AltUni2: 00e04c.ffffffff.0
Width: 1000
Flags: W
LayerCount: 2
Fore
SplineSet
356 688 m 1,0,-1
 441 688 l 1,1,-1
 441 450 l 2,2,3
 441 373 441 373 405 338 c 0,4,5
 372 306 372 306 306 306 c 0,6,7
 291 306 291 306 273 308.5 c 128,-1,8
 255 311 255 311 244 316 c 1,9,-1
 253 384 l 1,10,11
 272 375 272 375 297 375 c 0,12,13
 325 375 325 375 339 390 c 0,14,15
 356 408 356 408 356 450 c 2,16,-1
 356 688 l 1,0,-1
516 400 m 1,17,18
 534 390 534 390 558 383 c 0,19,20
 585 375 585 375 609 375 c 0,21,22
 639 375 639 375 654 385.5 c 128,-1,23
 669 396 669 396 669 415 c 128,-1,24
 669 434 669 434 655 445.5 c 128,-1,25
 641 457 641 457 606 469 c 0,26,27
 503 505 503 505 503 581 c 0,28,29
 503 631 503 631 541.5 662.5 c 128,-1,30
 580 694 580 694 647 694 c 0,31,32
 700 694 700 694 744 675 c 1,33,-1
 725 606 l 1,34,-1
 719 609 l 2,35,36
 701 616 701 616 690 619 c 0,37,38
 669 625 669 625 647 625 c 0,39,40
 620 625 620 625 605.5 614.5 c 128,-1,41
 591 604 591 604 591 587 c 128,-1,42
 591 570 591 570 607 559 c 0,43,44
 619 550 619 550 659 534 c 0,45,46
 709 515 709 515 732.5 488 c 128,-1,47
 756 461 756 461 756 422 c 0,48,49
 756 372 756 372 718 341 c 0,50,51
 677 306 677 306 603 306 c 0,52,53
 574 306 574 306 542 314 c 0,54,55
 517 319 517 319 497 328 c 1,56,-1
 516 400 l 1,17,18
EndSplineSet
EndChar

StartChar: jenkins
Encoding: 57421 57421 72
Width: 1200
Flags: W
LayerCount: 2
Fore
SplineSet
638 606 m 0,0,1
 639 606 639 606 642 606 c 2,2,-1
 643 606 l 2,3,4
 668 608 668 608 700 628 c 0,5,6
 701 629 701 629 702 632 c 2,7,-1
 705 641 l 2,8,9
 709 650 709 650 701 657 c 0,10,11
 678 678 678 678 661 705 c 0,12,13
 659 709 659 709 656 716 c 2,14,-1
 653 723 l 2,15,16
 652 724 652 724 650 726 c 2,17,-1
 649 727 l 1,18,-1
 647 722 l 2,19,20
 647 719 647 719 648 714 c 0,21,22
 652 696 652 696 669 675 c 0,23,24
 679 662 679 662 689 651 c 0,25,26
 693 646 693 646 692 639 c 128,-1,27
 691 632 691 632 684 630 c 0,28,29
 681 629 681 629 675 626 c 2,30,-1
 668 622 l 2,31,32
 651 615 651 615 642 615 c 0,33,34
 636 616 636 616 633 618 c 128,-1,35
 630 620 630 620 629 625 c 2,36,-1
 627 634 l 1,37,38
 619 626 619 626 625 613 c 0,39,40
 626 608 626 608 629.5 607 c 128,-1,41
 633 606 633 606 638 606 c 0,0,1
590 584 m 2,42,43
 598 576 598 576 613 571 c 0,44,45
 635 565 635 565 657 566 c 1,46,-1
 657 577 l 2,47,48
 657 584 657 584 651 584 c 0,49,50
 627 584 627 584 613 586 c 0,51,52
 607 586 607 586 595 589 c 2,53,-1
 586 591 l 1,54,-1
 590 584 l 2,42,43
573 695 m 2,55,56
 569 695 569 695 567.5 693.5 c 128,-1,57
 566 692 566 692 567.5 688 c 128,-1,58
 569 684 569 684 572 682 c 0,59,60
 588 675 588 675 602.5 681 c 128,-1,61
 617 687 617 687 612 705 c 0,62,63
 610 713 610 713 601 725 c 128,-1,64
 592 737 592 737 588.5 735.5 c 128,-1,65
 585 734 585 734 593 713 c 0,66,67
 597 698 597 698 596.5 695.5 c 128,-1,68
 596 693 596 693 574 695 c 2,69,-1
 573 695 l 2,55,56
543 739 m 0,70,71
 544 741 544 741 546 744 c 0,72,73
 561 774 561 774 588 768 c 0,74,75
 593 768 593 768 593 772 c 128,-1,76
 593 776 593 776 590 779 c 128,-1,77
 587 782 587 782 583 783 c 0,78,79
 571 786 571 786 560 778 c 0,80,81
 540 765 540 765 538 747 c 0,82,83
 538 740 538 740 543 739 c 0,70,71
666 585 m 0,84,85
 664 585 664 585 664 582 c 2,86,-1
 664 567 l 1,87,88
 679 567 679 567 691.5 577 c 128,-1,89
 704 587 704 587 711 603 c 1,90,-1
 708 602 l 1,91,-1
 701 598 l 2,92,93
 679 586 679 586 666 585 c 0,84,85
698 687 m 0,94,95
 713 685 713 685 725 696 c 0,96,97
 728 699 728 699 726 703 c 2,98,-1
 720 715 l 2,99,100
 711 737 711 737 708 736.5 c 128,-1,101
 705 736 705 736 707 726 c 0,102,103
 709 719 709 719 713 711 c 0,104,105
 715 705 715 705 714 703.5 c 128,-1,106
 713 702 713 702 707 701 c 2,107,-1
 703 701 l 2,108,109
 691 702 691 702 689.5 699 c 128,-1,110
 688 696 688 696 690.5 691.5 c 128,-1,111
 693 687 693 687 698 687 c 0,94,95
827 345 m 0,112,113
 821 365 821 365 809 371.5 c 128,-1,114
 797 378 797 378 776 373 c 0,115,116
 769 371 769 371 753 365 c 2,117,-1
 737 358 l 1,118,-1
 775 472 l 2,119,120
 783 496 783 496 764 511 c 2,121,-1
 744 527 l 1,122,-1
 732 537 l 2,123,124
 725 544 725 544 724.5 547 c 128,-1,125
 724 550 724 550 729 559 c 0,126,127
 745 586 745 586 752.5 631 c 128,-1,128
 760 676 760 676 759 717 c 0,129,130
 756 773 756 773 730 808 c 0,131,132
 689 864 689 864 625 871 c 2,133,-1
 615 872 l 1,134,-1
 593 872 l 1,135,-1
 567 868 l 2,136,137
 523 861 523 861 479 834 c 2,138,-1
 467 826 l 2,139,140
 444 812 444 812 435 787 c 0,141,142
 433 784 433 784 429 781 c 0,143,144
 409 767 409 767 408 740 c 0,145,146
 408 731 408 731 408 715 c 2,147,-1
 409 698 l 2,148,149
 409 696 409 696 407 692 c 2,150,-1
 404 683 l 2,151,152
 400 674 400 674 399 669 c 0,153,154
 394 630 394 630 419 602 c 0,155,156
 427 593 427 593 443 589 c 0,157,158
 447 587 447 587 448 583 c 0,159,160
 451 565 451 565 461 550 c 0,161,162
 464 546 464 546 465 541 c 0,163,164
 466 533 466 533 459 529 c 2,165,-1
 389 486 l 2,166,167
 385 484 385 484 382 482 c 0,168,169
 367 477 367 477 363 465 c 1,170,-1
 363 458 l 1,171,-1
 371 437 l 2,172,173
 383 405 383 405 388 388 c 0,174,175
 399 355 399 355 403 303 c 2,176,-1
 404 262 l 2,177,178
 405 252 405 252 414 248 c 2,179,-1
 475 221 l 2,180,181
 492 214 492 214 510 215 c 0,182,183
 514 215 514 215 516 211 c 2,184,-1
 538 141 l 2,185,186
 539 137 539 137 544 136 c 2,187,-1
 588 128 l 1,188,-1
 629 128 l 1,189,-1
 652 130 l 2,190,191
 665 133 665 133 674 136 c 0,192,193
 686 140 686 140 684 155 c 0,194,195
 683 162 683 162 684.5 163.5 c 128,-1,196
 686 165 686 165 693 167 c 1,197,-1
 693 167 l 1,198,199
 707 171 707 171 710.5 177 c 128,-1,200
 714 183 714 183 711 197 c 2,201,-1
 705 229 l 1,202,-1
 705 237 l 2,203,204
 705 242 705 242 710.5 243.5 c 128,-1,205
 716 245 716 245 718 252 c 0,206,207
 718 255 718 255 720 256 c 0,208,209
 736 263 736 263 754 261 c 0,210,211
 756 261 756 261 756 261 c 1,212,213
 758 255 758 255 762 253.5 c 128,-1,214
 766 252 766 252 773 252 c 1,215,-1
 773 252 l 1,216,217
 792 251 792 251 804 252 c 0,218,219
 826 254 826 254 834 281 c 2,220,-1
 837 295 l 1,221,-1
 837 307 l 1,222,223
 831 330 831 330 827 345 c 0,112,113
481 537 m 1,224,225
 467 565 467 565 463 587 c 0,226,227
 462 594 462 594 467 599 c 128,-1,228
 472 604 472 604 473 606.5 c 128,-1,229
 474 609 474 609 472 614 c 1,230,231
 472 614 472 614 470 614 c 2,232,-1
 467 613 l 2,233,234
 465 612 465 612 462 610 c 2,235,-1
 460 609 l 2,236,237
 447 600 447 600 434 609 c 0,238,239
 419 619 419 619 413 642 c 0,240,241
 408 661 408 661 417 675 c 0,242,243
 429 691 429 691 447 689 c 0,244,245
 458 687 458 687 464 675 c 0,246,247
 466 671 466 671 468 661 c 1,248,-1
 468 661 l 1,249,250
 469 657 469 657 473 657 c 2,251,-1
 484 659 l 2,252,253
 490 660 490 660 492 663 c 128,-1,254
 494 666 494 666 492 673 c 2,255,-1
 487 696 l 2,256,257
 485 707 485 707 488 727 c 2,258,-1
 488 728 l 1,259,260
 493 752 493 752 494 764 c 0,261,262
 494 767 494 767 492 776 c 2,263,-1
 491 782 l 2,264,265
 491 787 491 787 492 790 c 0,266,267
 502 809 502 809 523 823 c 128,-1,268
 544 837 544 837 567 849 c 0,269,270
 584 858 584 858 615 855 c 128,-1,271
 646 852 646 852 677 836 c 0,272,273
 692 829 692 829 709 808 c 2,274,-1
 723 790 l 1,275,276
 714 791 714 791 709 790 c 0,277,278
 701 789 701 789 697 783 c 0,279,280
 695 780 695 780 694 772 c 1,281,282
 707 781 707 781 722.5 773 c 128,-1,283
 738 765 738 765 743 752 c 0,284,285
 746 742 746 742 747 734 c 0,286,287
 751 689 751 689 748 660 c 0,288,289
 743 604 743 604 720 568 c 0,290,291
 705 543 705 543 694 534 c 0,292,293
 677 517 677 517 644 509 c 0,294,295
 622 504 622 504 603 510 c 0,296,297
 580 518 580 518 562 534 c 0,298,299
 548 546 548 546 528 574 c 2,300,-1
 524 579 l 1,301,302
 522 572 522 572 528 562 c 0,303,304
 537 546 537 546 558 525 c 0,305,306
 562 521 562 521 571 514 c 2,307,-1
 577 510 l 1,308,-1
 568 509 l 2,309,310
 519 506 519 506 509 509 c 0,311,312
 492 513 492 513 480 536 c 1,313,-1
 481 537 l 1,224,225
615 430 m 1,314,315
 624 421 624 421 637 396 c 0,316,317
 648 377 648 377 655 360 c 1,318,-1
 649 361 l 2,319,320
 641 363 641 363 637 365 c 2,321,-1
 584 387 l 2,322,323
 580 389 580 389 582 392 c 2,324,-1
 584 397 l 2,325,326
 590 407 590 407 594 411.5 c 128,-1,327
 598 416 598 416 609 424 c 2,328,-1
 615 430 l 1,314,315
653 396 m 256,329,330
 649 404 649 404 640 420 c 2,331,-1
 633 433 l 2,332,333
 631 437 631 437 632 439 c 0,334,335
 634 444 634 444 638 443 c 0,336,337
 641 442 641 442 646 445 c 0,338,339
 654 449 654 449 663 443 c 0,340,341
 666 441 666 441 673 438 c 2,342,-1
 677 436 l 1,343,344
 677 419 677 419 675 396 c 0,345,346
 673 367 673 367 668 361 c 1,347,-1
 665 370 l 2,348,349
 657 388 657 388 653 396 c 256,329,330
636 150 m 0,350,351
 607 146 607 146 577 152 c 0,352,353
 568 153 568 153 554 157 c 0,354,355
 551 157 551 157 550 160 c 2,356,-1
 545 178 l 2,357,358
 536 213 536 213 532 231 c 128,-1,359
 528 249 528 249 523 286 c 2,360,-1
 520 308 l 1,361,-1
 520 313 l 1,362,-1
 541 316 l 2,363,364
 589 323 589 323 624 321 c 0,365,366
 630 321 630 321 640 320 c 2,367,-1
 649 318 l 2,368,369
 652 318 652 318 653 314 c 2,370,-1
 661 180 l 2,371,372
 661 174 661 174 663 163 c 2,373,-1
 664 155 l 1,374,-1
 656 153 l 2,375,376
 643 151 643 151 636 150 c 0,350,351
692 182 m 1,377,378
 689 181 689 181 684 180 c 2,379,-1
 676 178 l 1,380,-1
 674 236 l 1,381,-1
 687 239 l 2,382,383
 688 239 688 239 689.5 238.5 c 128,-1,384
 691 238 691 238 691 237 c 2,385,-1
 692 233 l 2,386,387
 697 206 697 206 699 192 c 1,388,-1
 699 192 l 1,389,390
 699 185 699 185 698.5 184 c 128,-1,391
 698 183 698 183 692 182 c 1,392,-1
 692 182 l 1,377,378
682 363 m 2,393,394
 681 362 681 362 681 362 c 129,-1,395
 681 362 681 362 681 362 c 1,396,-1
 688 417 l 2,397,398
 689 423 689 423 689 432 c 0,399,400
 689 437 689 437 695 438.5 c 128,-1,401
 701 440 701 440 708.5 436.5 c 128,-1,402
 716 433 716 433 719 427 c 0,403,404
 721 425 721 425 719 424 c 2,405,-1
 682 362 l 1,406,-1
 682 363 l 2,393,394
792 272 m 2,407,408
 791 272 791 272 789 272 c 0,409,410
 776 272 776 272 770 273 c 1,411,-1
 770 275 l 1,412,-1
 794 280 l 1,413,-1
 794 281 l 1,414,-1
 786 283 l 1,415,-1
 756 282 l 2,416,417
 752 281 752 281 751 282 c 128,-1,418
 750 283 750 283 750 287 c 2,419,-1
 744 333 l 2,420,421
 743 335 743 335 745 336 c 2,422,-1
 767 346 l 1,423,-1
 782 352 l 2,424,425
 789 356 789 356 796 354 c 128,-1,426
 803 352 803 352 806 344 c 0,427,428
 814 317 814 317 816 302 c 0,429,430
 818 290 818 290 811 281.5 c 128,-1,431
 804 273 804 273 791 272 c 2,432,-1
 792 272 l 2,407,408
710 776 m 2,433,434
 712 776 712 776 714 775 c 0,435,436
 719 773 719 773 723 769 c 0,437,438
 730 764 730 764 735 756 c 0,439,440
 742 744 742 744 746 723 c 2,441,-1
 747 705 l 1,442,-1
 747 687 l 2,443,444
 747 665 747 665 744 647 c 0,445,446
 740 617 740 617 725 585 c 0,447,448
 713 562 713 562 697 541 c 2,449,-1
 683 524 l 1,450,-1
 719 554 l 1,451,-1
 744 605 l 1,452,-1
 754 666 l 1,453,-1
 754 726 l 1,454,-1
 745 777 l 1,455,-1
 713 784 l 1,456,-1
 710 776 l 2,433,434
EndSplineSet
EndChar

StartChar: jinja
Encoding: 57422 57422 73
Width: 1200
Flags: W
LayerCount: 2
Fore
SplineSet
843 725 m 0,0,1
 843 726 843 726 840 728 c 2,2,-1
 838 730 l 1,3,-1
 835 730 l 1,4,-1
 793 711 l 2,5,6
 709 675 709 675 599 668 c 2,7,-1
 509 662 l 2,8,9
 463 659 463 659 439 661 c 0,10,11
 401 664 401 664 370 678 c 1,12,13
 382 652 382 652 356 641 c 1,14,-1
 356 638 l 1,15,-1
 361 635 l 2,16,17
 368 631 368 631 372 630 c 2,18,-1
 377 629 l 2,19,20
 390 625 390 625 396 620 c 0,21,22
 410 610 410 610 414 597 c 0,23,24
 415 594 415 594 422 594 c 2,25,-1
 429 593 l 2,26,27
 448 592 448 592 457.5 592.5 c 128,-1,28
 467 593 467 593 473.5 590 c 128,-1,29
 480 587 480 587 479 581 c 128,-1,30
 478 575 478 575 471 569.5 c 128,-1,31
 464 564 464 564 456.5 562 c 128,-1,32
 449 560 449 560 434 561 c 2,33,-1
 425 562 l 2,34,35
 418 563 418 563 415.5 560.5 c 128,-1,36
 413 558 413 558 416 551 c 0,37,38
 417 547 417 547 418 537 c 2,39,-1
 419 531 l 1,40,-1
 477 531 l 1,41,-1
 473 449 l 1,42,-1
 428 452 l 1,43,-1
 426 464 l 1,44,-1
 450 482 l 1,45,46
 437 491 437 491 417.5 491.5 c 128,-1,47
 398 492 398 492 376 483 c 1,48,-1
 381 479 l 2,49,50
 387 473 387 473 391 471 c 0,51,52
 400 464 400 464 399.5 459.5 c 128,-1,53
 399 455 399 455 387 449 c 1,54,55
 397 432 397 432 399 410 c 0,56,57
 401 395 401 395 399 369 c 0,58,59
 399 367 399 367 396 362.5 c 128,-1,60
 393 358 393 358 393 356 c 2,61,-1
 392 352 l 2,62,63
 388 337 388 337 391 334 c 0,64,65
 395 330 395 330 396 324 c 0,66,67
 397 320 397 320 396 313 c 2,68,-1
 396 306 l 2,69,70
 397 299 397 299 396 293 c 0,71,72
 394 281 394 281 407 282 c 2,73,-1
 431 282 l 1,74,-1
 425 328 l 1,75,-1
 465 328 l 1,76,-1
 460 287 l 1,77,-1
 510 287 l 1,78,-1
 510 332 l 1,79,-1
 537 334 l 1,80,-1
 537 290 l 1,81,-1
 567 290 l 1,82,-1
 567 302 l 1,83,-1
 568 315 l 2,84,85
 570 332 570 332 570 341 c 0,86,87
 570 346 570 346 568.5 354.5 c 128,-1,88
 567 363 567 363 566 367 c 2,89,-1
 565 380 l 2,90,91
 563 395 563 395 563 403 c 0,92,93
 563 416 563 416 568 426 c 0,94,95
 576 440 576 440 565 447 c 0,96,97
 563 448 563 448 563.5 453.5 c 128,-1,98
 564 459 564 459 566.5 462.5 c 128,-1,99
 569 466 569 466 578 473 c 2,100,-1
 583 478 l 1,101,102
 550 491 550 491 517 478 c 1,103,-1
 538 452 l 1,104,-1
 535 448 l 1,105,-1
 506 448 l 1,106,-1
 506 533 l 1,107,-1
 664 542 l 1,108,-1
 659 454 l 1,109,-1
 633 454 l 1,110,-1
 633 472 l 1,111,-1
 658 491 l 1,112,113
 620 508 620 508 579 492 c 1,114,-1
 596 474 l 2,115,116
 602 468 602 468 601.5 465 c 128,-1,117
 601 462 601 462 597 457 c 2,118,-1
 592 452 l 1,119,120
 595 449 595 449 594.5 442 c 128,-1,121
 594 435 594 435 595 431 c 128,-1,122
 596 427 596 427 601 424 c 0,123,124
 603 424 603 424 602 418 c 2,125,-1
 602 403 l 2,126,127
 602 379 602 379 601 366 c 0,128,129
 601 359 601 359 593 348 c 1,130,-1
 596 334 l 2,131,132
 599 317 599 317 599 309 c 0,133,134
 600 294 600 294 598 282 c 0,135,136
 597 280 597 280 600 274 c 2,137,-1
 602 270 l 1,138,-1
 640 270 l 1,139,-1
 635 323 l 1,140,-1
 662 323 l 1,141,-1
 662 278 l 1,142,-1
 716 278 l 1,143,-1
 711 326 l 1,144,-1
 735 326 l 1,145,-1
 735 283 l 1,146,-1
 740 281 l 1,147,148
 756 280 756 280 761 280.5 c 128,-1,149
 766 281 766 281 767 286 c 128,-1,150
 768 291 768 291 768 306 c 2,151,-1
 768 307 l 2,152,153
 767 316 767 316 770 334 c 2,154,-1
 772 349 l 2,155,156
 772 352 772 352 772 354 c 0,157,158
 763 369 763 369 763 389 c 0,159,160
 764 401 764 401 768 424 c 1,161,-1
 768 427 l 2,162,163
 769 432 769 432 767 443 c 2,164,-1
 765 451 l 1,165,-1
 764 464 l 1,166,-1
 787 484 l 1,167,168
 749 498 749 498 714 484 c 1,169,170
 716 479 716 479 724.5 473.5 c 128,-1,171
 733 468 733 468 735 465 c 0,172,173
 739 459 739 459 737 451 c 1,174,-1
 710 451 l 2,175,176
 708 451 708 451 705.5 452.5 c 128,-1,177
 703 454 703 454 703 456 c 2,178,-1
 691 542 l 1,179,-1
 771 549 l 1,180,-1
 772 558 l 2,181,182
 775 571 775 571 775 578 c 0,183,184
 775 580 775 580 771.5 582.5 c 128,-1,185
 768 585 768 585 766 585 c 1,186,-1
 766 585 l 1,187,188
 740 584 740 584 729 580 c 0,189,190
 720 577 720 577 712 580 c 0,191,192
 707 582 707 582 699 588 c 2,193,-1
 694 591 l 1,194,-1
 696 595 l 2,195,196
 698 601 698 601 700 603 c 0,197,198
 705 610 705 610 709 611 c 2,199,-1
 765 619 l 2,200,201
 774 621 774 621 775 624 c 0,202,203
 779 639 779 639 791 646 c 0,204,205
 798 651 798 651 815 656 c 2,206,-1
 843 665 l 1,207,-1
 843 670 l 2,208,209
 844 702 844 702 843 725 c 0,0,1
468 360 m 1,210,211
 450 359 450 359 427 357 c 1,212,-1
 427 424 l 1,213,-1
 468 421 l 1,214,-1
 468 360 l 1,210,211
537 421 m 1,215,216
 537 416 537 416 537 405 c 0,217,218
 537 380 537 380 537 367 c 0,219,220
 537 361 537 361 534 360 c 128,-1,221
 531 359 531 359 526 360 c 2,222,-1
 519 360 l 2,223,224
 513 359 513 359 510 360 c 128,-1,225
 507 361 507 361 507 368 c 2,226,-1
 506 421 l 1,227,-1
 537 421 l 1,215,216
521 568 m 0,228,229
 509 571 509 571 509 579 c 0,230,231
 509 585 509 585 516 595 c 1,232,-1
 552 598 l 1,233,-1
 557 568 l 1,234,-1
 545 567 l 2,235,236
 528 566 528 566 521 568 c 0,228,229
660 354 m 1,237,-1
 635 354 l 1,238,-1
 635 424 l 1,239,-1
 660 424 l 1,240,-1
 660 354 l 1,237,-1
737 424 m 1,241,-1
 737 357 l 1,242,-1
 712 355 l 1,243,-1
 708 423 l 1,244,-1
 737 424 l 1,241,-1
612 573 m 1,245,246
 611 588 611 588 613 594 c 128,-1,247
 615 600 615 600 623 602.5 c 128,-1,248
 631 605 631 605 654 606 c 1,249,-1
 665 592 l 1,250,251
 656 578 656 578 641 574 c 0,252,253
 630 571 630 571 612 573 c 1,245,246
EndSplineSet
EndChar

StartChar: json
Encoding: 57428 57428 74
AltUni2: 00e050.ffffffff.0
Width: 1000
Flags: W
LayerCount: 2
Fore
SplineSet
234 528 m 1,0,1
 266 528 266 528 279 543 c 0,2,3
 288 554 288 554 288 575 c 0,4,5
 288 584 288 584 286 601.5 c 128,-1,6
 284 619 284 619 284 628.5 c 128,-1,7
 284 638 284 638 283 657 c 0,8,9
 281 674 281 674 281 681 c 0,10,11
 281 729 281 729 309 752 c 128,-1,12
 337 775 337 775 388 775 c 2,13,-1
 413 775 l 1,14,-1
 413 716 l 1,15,-1
 400 716 l 2,16,17
 378 716 378 716 368.5 703.5 c 128,-1,18
 359 691 359 691 359 666 c 0,19,20
 359 660 359 660 361 648 c 0,21,22
 363 633 363 633 363 625 c 0,23,24
 363 619 363 619 364 606 c 0,25,26
 366 588 366 588 366 578 c 0,27,28
 366 540 366 540 350 521 c 0,29,30
 336 504 336 504 306 497 c 1,31,32
 336 489 336 489 350 473 c 0,33,34
 366 453 366 453 366 416 c 0,35,36
 366 405 366 405 364 387 c 0,37,38
 362 374 362 374 362.5 368 c 128,-1,39
 363 362 363 362 361 347 c 0,40,41
 359 336 359 336 359 331 c 0,42,43
 359 306 359 306 368.5 293.5 c 128,-1,44
 378 281 378 281 400 281 c 2,45,-1
 413 281 l 1,46,-1
 413 222 l 1,47,-1
 388 222 l 2,48,49
 284 222 284 222 284 316 c 0,50,51
 284 350 284 350 287.5 368.5 c 128,-1,52
 291 387 291 387 291 422 c 0,53,54
 291 469 291 469 238 469 c 1,55,-1
 234 528 l 1,0,1
766 475 m 1,56,57
 713 475 713 475 713 428 c 0,58,59
 713 419 713 419 714.5 401.5 c 128,-1,60
 716 384 716 384 716 375 c 0,61,62
 719 356 719 356 719 322 c 0,63,64
 719 228 719 228 613 228 c 2,65,-1
 588 228 l 1,66,-1
 588 281 l 1,67,-1
 600 281 l 2,68,69
 622 281 622 281 631.5 293.5 c 128,-1,70
 641 306 641 306 641 331 c 128,-1,71
 641 356 641 356 638 369 c 0,72,73
 638 377 638 377 636 392.5 c 128,-1,74
 634 408 634 408 634 416 c 0,75,76
 634 453 634 453 650 473 c 0,77,78
 664 489 664 489 694 497 c 1,79,80
 664 504 664 504 650 521 c 0,81,82
 634 540 634 540 634 578 c 0,83,84
 634 588 634 588 636 606 c 0,85,86
 638 619 638 619 638 625 c 0,87,88
 641 641 641 641 641 665 c 128,-1,89
 641 689 641 689 631 701 c 128,-1,90
 621 713 621 713 600 716 c 2,91,-1
 588 716 l 1,92,-1
 588 775 l 1,93,-1
 613 775 l 2,94,95
 663 775 663 775 691 752 c 128,-1,96
 719 729 719 729 719 681 c 0,97,98
 719 672 719 672 717.5 654.5 c 128,-1,99
 716 637 716 637 716 628 c 0,100,101
 713 609 713 609 712 575 c 0,102,103
 713 554 713 554 721 543 c 0,104,105
 734 528 734 528 766 528 c 1,106,-1
 766 475 l 1,56,57
EndSplineSet
EndChar

StartChar: julia
Encoding: 57425 57425 75
Width: 1000
Flags: W
LayerCount: 2
Fore
SplineSet
231 366 m 256,0,1
 231 333 231 333 247.5 305 c 128,-1,2
 264 277 264 277 292 260.5 c 128,-1,3
 320 244 320 244 353 244 c 128,-1,4
 386 244 386 244 414 260.5 c 128,-1,5
 442 277 442 277 458.5 305 c 128,-1,6
 475 333 475 333 475 366 c 128,-1,7
 475 399 475 399 458.5 427 c 128,-1,8
 442 455 442 455 414 471.5 c 128,-1,9
 386 488 386 488 353 487.5 c 128,-1,10
 320 487 320 487 292 471 c 128,-1,11
 264 455 264 455 247.5 427 c 128,-1,12
 231 399 231 399 231 366 c 256,0,1
525 366 m 256,13,14
 525 333 525 333 541.5 305 c 128,-1,15
 558 277 558 277 586 260.5 c 128,-1,16
 614 244 614 244 647 244 c 128,-1,17
 680 244 680 244 708 260.5 c 128,-1,18
 736 277 736 277 752.5 305 c 128,-1,19
 769 333 769 333 769 366 c 128,-1,20
 769 399 769 399 752.5 427 c 128,-1,21
 736 455 736 455 708 471 c 128,-1,22
 680 487 680 487 647 487 c 128,-1,23
 614 487 614 487 586 471 c 128,-1,24
 558 455 558 455 541.5 427 c 128,-1,25
 525 399 525 399 525 366 c 256,13,14
378 634 m 256,26,27
 378 601 378 601 394.5 573 c 128,-1,28
 411 545 411 545 439 529 c 128,-1,29
 467 513 467 513 500 513 c 128,-1,30
 533 513 533 513 561 529 c 128,-1,31
 589 545 589 545 605.5 573 c 128,-1,32
 622 601 622 601 622 634 c 128,-1,33
 622 667 622 667 605.5 695 c 128,-1,34
 589 723 589 723 561 739.5 c 128,-1,35
 533 756 533 756 500 756 c 128,-1,36
 467 756 467 756 439 739.5 c 128,-1,37
 411 723 411 723 394.5 695 c 128,-1,38
 378 667 378 667 378 634 c 256,26,27
EndSplineSet
EndChar

StartChar: karma
Encoding: 57426 57426 76
Width: 1000
Flags: W
LayerCount: 2
Fore
SplineSet
281 769 m 1,0,-1
 281 619 l 1,1,-1
 384 228 l 1,2,-1
 431 228 l 1,3,-1
 431 384 l 1,4,-1
 456 384 l 1,5,-1
 563 228 l 1,6,-1
 719 228 l 1,7,-1
 534 506 l 1,8,-1
 534 522 l 1,9,-1
 706 772 l 1,10,-1
 541 772 l 1,11,-1
 456 634 l 1,12,-1
 431 634 l 1,13,-1
 431 769 l 1,14,-1
 281 769 l 1,0,-1
EndSplineSet
EndChar

StartChar: kotlin
Encoding: 57427 57427 77
Width: 1000
Flags: W
LayerCount: 2
Fore
SplineSet
227 227 m 1,0,-1
 501 501 l 1,1,-1
 773 227 l 1,2,-1
 227 227 l 1,0,-1
227 773 m 1,3,-1
 501 773 l 1,4,-1
 227 477 l 1,5,-1
 227 773 l 1,3,-1
501 773 m 1,6,-1
 227 485 l 1,7,-1
 227 227 l 1,8,-1
 773 773 l 1,9,-1
 501 773 l 1,6,-1
EndSplineSet
EndChar

StartChar: license
Encoding: 57429 57429 78
Width: 1000
Flags: W
LayerCount: 2
Fore
SplineSet
584 600 m 0,0,1
 580 651 580 651 543.5 683.5 c 128,-1,2
 507 716 507 716 453 719 c 2,3,-1
 406 719 l 1,4,5
 403 756 403 756 420 783 c 0,6,7
 440 818 440 818 484.5 822.5 c 128,-1,8
 529 827 529 827 559 797 c 0,9,10
 584 768 584 768 584 722 c 0,11,12
 584 713 584 713 588 709 c 2,13,-1
 616 681 l 1,14,15
 629 721 629 721 619 766 c 0,16,17
 607 807 607 807 574.5 832 c 128,-1,18
 542 857 542 857 497 859 c 0,19,20
 468 859 468 859 448 853 c 0,21,22
 424 846 424 846 406 828 c 0,23,24
 384 807 384 807 373.5 773 c 128,-1,25
 363 739 363 739 371 704 c 0,26,27
 380 666 380 666 409 638 c 0,28,29
 419 628 419 628 444 616 c 0,30,31
 455 611 455 611 463.5 617.5 c 128,-1,32
 472 624 472 624 472 634 c 0,33,34
 472 655 472 655 450 659 c 0,35,36
 447 659 447 659 441 666 c 1,37,-1
 441 669 l 1,38,39
 450 671 450 671 460.5 668.5 c 128,-1,40
 471 666 471 666 478 659 c 0,41,42
 492 645 492 645 487 622 c 0,43,44
 483 605 483 605 469.5 598.5 c 128,-1,45
 456 592 456 592 437 597 c 0,46,47
 390 610 390 610 366 659 c 0,48,49
 364 664 364 664 359.5 673.5 c 128,-1,50
 355 683 355 683 353 688 c 1,51,52
 334 668 334 668 324 654 c 0,53,54
 311 634 311 634 306 613 c 0,55,56
 288 529 288 529 350 472 c 0,57,58
 353 469 353 469 354 466.5 c 128,-1,59
 355 464 355 464 353 459 c 0,60,61
 348 416 348 416 341 388 c 0,62,63
 336 361 336 361 328 309.5 c 128,-1,64
 320 258 320 258 315.5 232 c 128,-1,65
 311 206 311 206 316 181 c 0,66,67
 321 161 321 161 341 153 c 1,68,69
 342 159 342 159 343.5 171.5 c 128,-1,70
 345 184 345 184 347 191 c 0,71,72
 352 217 352 217 359.5 268.5 c 128,-1,73
 367 320 367 320 372 347 c 0,74,75
 375 363 375 363 379.5 395.5 c 128,-1,76
 384 428 384 428 388 444 c 0,77,78
 388 453 388 453 397 453 c 0,79,80
 401 453 401 453 402 450 c 128,-1,81
 403 447 403 447 403 441 c 0,82,83
 399 404 399 404 388 350 c 0,84,85
 383 317 383 317 373 256 c 0,86,87
 361 186 361 186 356 153 c 0,88,89
 356 151 356 151 358 149 c 2,90,-1
 359 147 l 1,91,92
 367 147 367 147 381 145.5 c 128,-1,93
 395 144 395 144 403 144 c 0,94,95
 422 144 422 144 441 169 c 0,96,97
 454 182 454 182 444 203 c 0,98,99
 438 209 438 209 438 213 c 0,100,101
 424 231 424 231 444 241 c 0,102,103
 445 242 445 242 450 243.5 c 128,-1,104
 455 245 455 245 456 247 c 0,105,106
 461 249 461 249 462.5 255 c 128,-1,107
 464 261 464 261 459 266 c 2,108,-1
 450 275 l 2,109,110
 440 287 440 287 435 291 c 128,-1,111
 430 295 430 295 431.5 302.5 c 128,-1,112
 433 310 433 310 437.5 313 c 128,-1,113
 442 316 442 316 453 320.5 c 128,-1,114
 464 325 464 325 469 328 c 128,-1,115
 474 331 474 331 475 335 c 128,-1,116
 476 339 476 339 472 344 c 0,117,118
 466 350 466 350 462 356 c 0,119,120
 456 363 456 363 457 373 c 128,-1,121
 458 383 458 383 465 388.5 c 128,-1,122
 472 394 472 394 478 394 c 0,123,124
 487 398 487 398 488 406 c 0,125,126
 487 411 487 411 489 420.5 c 128,-1,127
 491 430 491 430 491 434 c 0,128,129
 491 437 491 437 493 441 c 128,-1,130
 495 445 495 445 497 447 c 0,131,132
 506 456 506 456 531 469 c 1,133,134
 563 492 563 492 576 525.5 c 128,-1,135
 589 559 589 559 584 600 c 0,0,1
697 244 m 0,136,137
 697 256 697 256 684 256 c 0,138,139
 677 256 677 256 674 257 c 0,140,141
 668 259 668 259 666 266 c 0,142,143
 661 280 661 280 666 294 c 0,144,145
 676 314 676 314 653 319 c 0,146,147
 650 319 650 319 643 320.5 c 128,-1,148
 636 322 636 322 631 322 c 0,149,150
 622 322 622 322 622 331 c 0,151,152
 622 334 622 334 620.5 340.5 c 128,-1,153
 619 347 619 347 619 350 c 0,154,155
 619 356 619 356 623 362 c 0,156,157
 625 366 625 366 630.5 372.5 c 128,-1,158
 636 379 636 379 635.5 382.5 c 128,-1,159
 635 386 635 386 628 391 c 0,160,161
 627 392 627 392 622 395 c 128,-1,162
 617 398 617 398 616 400 c 0,163,164
 607 405 607 405 605.5 410 c 128,-1,165
 604 415 604 415 609 425 c 0,166,167
 616 431 616 431 616 434 c 0,168,169
 624 443 624 443 619 453 c 2,170,-1
 616 458 l 2,171,172
 611 470 611 470 606 475 c 0,173,174
 602 484 602 484 606 494 c 0,175,176
 646 573 646 573 616 647 c 0,177,178
 592 698 592 698 534 712 c 1,179,-1
 531 709 l 2,180,181
 533 708 533 708 536 703 c 128,-1,182
 539 698 539 698 541 697 c 0,183,184
 600 647 600 647 600 575 c 0,185,186
 600 494 600 494 531 444 c 0,187,188
 526 441 526 441 524.5 437 c 128,-1,189
 523 433 523 433 525 428 c 0,190,191
 531 413 531 413 542 383 c 128,-1,192
 553 353 553 353 559 338 c 2,193,-1
 634 163 l 1,194,-1
 636 160 l 2,195,196
 639 156 639 156 644 156 c 0,197,198
 672 170 672 170 687 194 c 128,-1,199
 702 218 702 218 697 244 c 0,136,137
509 428 m 1,200,201
 508 422 508 422 506.5 412 c 128,-1,202
 505 402 505 402 503 397 c 2,203,-1
 502 391 l 2,204,205
 501 382 501 382 503 378 c 2,206,-1
 569 216 l 2,207,208
 580 188 580 188 600 172 c 0,209,210
 612 166 612 166 616 162 c 1,211,-1
 619 166 l 1,212,213
 584 253 584 253 509 428 c 1,200,201
EndSplineSet
EndChar

StartChar: liquid
Encoding: 57430 57430 79
Width: 1000
Flags: W
LayerCount: 2
Fore
SplineSet
566 413 m 2,0,1
 566 405 566 405 564.5 387.5 c 128,-1,2
 563 370 563 370 563 362 c 0,3,4
 556 263 556 263 556 212 c 2,5,-1
 556 191 l 2,6,7
 556 188 556 188 555.5 187.5 c 128,-1,8
 555 187 555 187 553 187 c 2,9,-1
 459 206 l 2,10,11
 452 208 452 208 437.5 209.5 c 128,-1,12
 423 211 423 211 416 212 c 2,13,-1
 408 214 l 2,14,15
 385 219 385 219 375 219 c 0,16,17
 355 222 355 222 314 229.5 c 128,-1,18
 273 237 273 237 253 241 c 0,19,20
 240 246 240 246 210 252 c 2,21,-1
 203 253 l 2,22,23
 200 253 200 253 200 259 c 0,24,25
 206 291 206 291 212 358 c 2,26,-1
 213 366 l 2,27,28
 213 369 213 369 214.5 376.5 c 128,-1,29
 216 384 216 384 216 387 c 0,30,31
 217 389 217 389 217 393 c 128,-1,32
 217 397 217 397 219 400 c 0,33,34
 220 408 220 408 222 424.5 c 128,-1,35
 224 441 224 441 225 450 c 0,36,37
 231 481 231 481 231 500 c 0,38,39
 243 578 243 578 247 625 c 0,40,41
 247 637 247 637 259 644 c 2,42,-1
 316 662 l 2,43,44
 318 662 318 662 320 664.5 c 128,-1,45
 322 667 322 667 322 672 c 0,46,47
 330 717 330 717 363 766 c 0,48,49
 383 796 383 796 409 809 c 0,50,51
 416 809 416 809 427 810.5 c 128,-1,52
 438 812 438 812 444 812 c 0,53,54
 470 812 470 812 481 797 c 2,55,-1
 484 794 l 1,56,-1
 487 794 l 2,57,58
 500 794 500 794 510.5 789 c 128,-1,59
 521 784 521 784 528 775 c 0,60,61
 538 762 538 762 550 737 c 0,62,63
 550 734 550 734 556 734 c 2,64,-1
 572 741 l 2,65,66
 577 741 577 741 577.5 740 c 128,-1,67
 578 739 578 739 578 734 c 0,68,69
 578 720 578 720 576.5 693.5 c 128,-1,70
 575 667 575 667 575 653 c 0,71,72
 573 636 573 636 571.5 600 c 128,-1,73
 570 564 570 564 569 547 c 0,74,75
 567 525 567 525 565.5 483 c 128,-1,76
 564 441 564 441 562 419 c 1,77,-1
 565 416 l 1,78,-1
 566 413 l 2,0,1
334 428 m 0,79,80
 347 416 347 416 356 409 c 0,81,82
 374 398 374 398 378 381 c 0,83,84
 381 369 381 369 376 360.5 c 128,-1,85
 371 352 371 352 359 350 c 2,86,-1
 344 350 l 1,87,88
 321 354 321 354 297 372 c 0,89,90
 295 374 295 374 294 373.5 c 128,-1,91
 293 373 293 373 291 369 c 0,92,93
 284 344 284 344 279 331 c 128,-1,94
 274 318 274 318 284 312 c 0,95,96
 327 280 327 280 375 284 c 0,97,98
 401 287 401 287 419 300.5 c 128,-1,99
 437 314 437 314 446.5 337.5 c 128,-1,100
 456 361 456 361 456 384 c 128,-1,101
 456 407 456 407 441 428 c 0,102,103
 441 430 441 430 439.5 431.5 c 128,-1,104
 438 433 438 433 438 434 c 0,105,106
 431 445 431 445 420 454 c 0,107,108
 413 459 413 459 397 469 c 0,109,110
 391 472 391 472 378 484 c 1,111,112
 371 497 371 497 376 512 c 128,-1,113
 381 527 381 527 397 531 c 0,114,115
 425 535 425 535 456 525 c 0,116,117
 458 523 458 523 460 524.5 c 128,-1,118
 462 526 462 526 462 528 c 2,119,-1
 481 584 l 2,120,121
 484 591 484 591 483 593 c 128,-1,122
 482 595 482 595 475 597 c 0,123,124
 446 605 446 605 409 600 c 0,125,126
 369 593 369 593 343 568 c 0,127,128
 315 540 315 540 313 500 c 0,129,130
 308 480 308 480 314 461.5 c 128,-1,131
 320 443 320 443 334 428 c 0,79,80
459 788 m 1,132,133
 457 790 457 790 456 790 c 2,134,-1
 453 791 l 2,135,136
 449 793 449 793 440 791 c 2,137,-1
 431 791 l 1,138,139
 406 782 406 782 388 759 c 0,140,141
 361 729 361 729 344 672 c 0,142,143
 344 670 344 670 344.5 669.5 c 128,-1,144
 345 669 345 669 347 669 c 0,145,146
 355 670 355 670 369 675 c 128,-1,147
 383 680 383 680 391 681 c 0,148,149
 393 681 393 681 393 683 c 2,150,-1
 394 684 l 2,151,152
 394 688 394 688 395.5 694 c 128,-1,153
 397 700 397 700 397 703 c 0,154,155
 408 733 408 733 420 751 c 0,156,157
 436 775 436 775 459 788 c 1,132,133
481 722 m 0,158,159
 481 737 481 737 475 763 c 0,160,161
 473 767 473 767 472 767.5 c 128,-1,162
 471 768 471 768 469 766 c 0,163,164
 454 758 454 758 450 750 c 0,165,166
 432 728 432 728 422 697 c 1,167,-1
 422 694 l 1,168,-1
 425 694 l 2,169,170
 434 696 434 696 452 701 c 2,171,-1
 469 706 l 2,172,173
 478 709 478 709 479.5 711 c 128,-1,174
 481 713 481 713 481 722 c 0,158,159
506 716 m 0,175,176
 513 719 513 719 531 725 c 1,177,-1
 531 728 l 1,178,179
 526 749 526 749 513 763 c 0,180,181
 506 769 506 769 500 772 c 2,182,-1
 497 772 l 1,183,-1
 497 769 l 2,184,185
 497 767 497 767 498.5 762.5 c 128,-1,186
 500 758 500 758 500 756 c 0,187,188
 503 747 503 747 503 722 c 0,189,190
 503 716 503 716 506 716 c 0,175,176
794 300 m 1,191,-1
 803 234 l 1,192,-1
 803 231 l 1,193,-1
 800 228 l 1,194,195
 781 225 781 225 745 217 c 128,-1,196
 709 209 709 209 691 206 c 0,197,198
 644 195 644 195 613 191 c 1,199,-1
 610 190 l 2,200,201
 608 190 608 190 608 190.5 c 128,-1,202
 608 191 608 191 609 194 c 0,203,204
 609 216 609 216 612 225 c 0,205,206
 614 247 614 247 615.5 289 c 128,-1,207
 617 331 617 331 619 353 c 2,208,-1
 619 384 l 2,209,210
 619 406 619 406 622 416 c 2,211,-1
 622 438 l 1,212,-1
 631 603 l 1,213,-1
 631 634 l 2,214,215
 634 659 634 659 634 706 c 2,216,-1
 634 738 l 2,217,218
 637 738 637 738 637 737.5 c 128,-1,219
 637 737 637 737 637 734 c 2,220,-1
 650 722 l 1,221,-1
 657 716 l 2,222,223
 664 710 664 710 666 706 c 128,-1,224
 668 702 668 702 671.5 701 c 128,-1,225
 675 700 675 700 681.5 700 c 128,-1,226
 688 700 688 700 702 698.5 c 128,-1,227
 716 697 716 697 722 697 c 0,228,229
 724 697 724 697 726 695 c 128,-1,230
 728 693 728 693 728 691 c 0,231,232
 730 684 730 684 731.5 671.5 c 128,-1,233
 733 659 733 659 734 653 c 2,234,-1
 744 591 l 2,235,236
 747 575 747 575 751.5 542 c 128,-1,237
 756 509 756 509 759 494 c 0,238,239
 764 467 764 467 772 414 c 128,-1,240
 780 361 780 361 784 334 c 2,241,-1
 794 300 l 1,191,-1
EndSplineSet
EndChar

StartChar: livescript
Encoding: 57431 57431 80
Width: 1000
Flags: W
LayerCount: 2
Fore
SplineSet
500 766 m 2,0,-1
 500 531 l 2,1,2
 502 531 502 531 502.5 531.5 c 128,-1,3
 503 532 503 532 503 534 c 2,4,-1
 505 535 l 2,5,6
 506 536 506 536 506 538 c 2,7,-1
 508 538 l 2,8,9
 509 539 509 539 509 541 c 1,10,11
 512 541 512 541 512.5 541 c 128,-1,12
 513 541 513 541 513 544 c 1,13,14
 515 544 515 544 515.5 544.5 c 128,-1,15
 516 545 516 545 516 547 c 1,16,17
 519 547 519 547 519 553 c 2,18,-1
 519 744 l 2,19,20
 519 753 519 753 528 753 c 2,21,-1
 547 753 l 2,22,23
 554 753 554 753 555 752 c 128,-1,24
 556 751 556 751 556 744 c 2,25,-1
 556 588 l 1,26,-1
 559 588 l 2,27,28
 562 588 562 588 562.5 588 c 128,-1,29
 563 588 563 588 563 591 c 2,30,-1
 563 594 l 1,31,-1
 569 600 l 2,32,33
 571 602 571 602 570 604 c 2,34,-1
 569 606 l 1,35,-1
 569 725 l 1,36,-1
 603 725 l 1,37,-1
 603 638 l 2,38,39
 605 638 605 638 606.5 639.5 c 128,-1,40
 608 641 608 641 609 641 c 2,41,-1
 644 675 l 2,42,43
 647 675 647 675 647 681 c 2,44,-1
 647 728 l 1,45,46
 651 730 651 730 659 729 c 2,47,-1
 666 728 l 1,48,-1
 673 729 l 2,49,50
 682 730 682 730 684 728 c 128,-1,51
 686 726 686 726 685 716 c 2,52,-1
 684 709 l 1,53,-1
 684 694 l 1,54,-1
 685 691 l 1,55,-1
 688 688 l 1,56,-1
 686 688 l 1,57,-1
 716 688 l 2,58,59
 719 688 719 688 720.5 686.5 c 128,-1,60
 722 685 722 685 722 681 c 2,61,-1
 722 650 l 1,62,-1
 713 650 l 2,63,64
 714 652 714 652 717 652 c 128,-1,65
 720 652 720 652 722 653 c 2,66,-1
 678 653 l 2,67,68
 676 653 676 653 675.5 652.5 c 128,-1,69
 675 652 675 652 675 650 c 2,70,-1
 662 638 l 2,71,72
 643 620 643 620 634 609 c 0,73,74
 634 606 634 606 641 606 c 2,75,-1
 716 606 l 2,76,77
 720 606 720 606 721 605.5 c 128,-1,78
 722 605 722 605 722 600 c 2,79,-1
 722 578 l 2,80,81
 722 573 722 573 720.5 571 c 128,-1,82
 719 569 719 569 713 569 c 2,83,-1
 600 569 l 1,84,-1
 598 569 l 2,85,86
 596 570 596 570 595 569.5 c 128,-1,87
 594 569 594 569 594 566 c 2,88,-1
 556 528 l 1,89,-1
 722 528 l 1,90,-1
 722 500 l 2,91,92
 722 496 722 496 720 495 c 128,-1,93
 718 494 718 494 713 494 c 2,94,-1
 516 494 l 2,95,96
 513 494 513 494 513 493.5 c 128,-1,97
 513 493 513 493 513 491 c 1,98,99
 510 491 510 491 509.5 490.5 c 128,-1,100
 509 490 509 490 509 488 c 1,101,102
 507 488 507 488 506.5 487.5 c 128,-1,103
 506 487 506 487 506 484 c 1,104,105
 504 484 504 484 503.5 484 c 128,-1,106
 503 484 503 484 503 481 c 1,107,108
 501 481 501 481 500.5 480.5 c 128,-1,109
 500 480 500 480 500 478 c 1,110,111
 498 478 498 478 497.5 477.5 c 128,-1,112
 497 477 497 477 497 475 c 1,113,114
 495 475 495 475 494.5 474.5 c 128,-1,115
 494 474 494 474 495 472 c 128,-1,116
 496 470 496 470 498 471 c 2,117,-1
 500 472 l 1,118,-1
 734 472 l 2,119,120
 737 472 737 472 737.5 471.5 c 128,-1,121
 738 471 738 471 738 469 c 2,122,-1
 738 447 l 2,123,124
 738 440 738 440 736.5 438.5 c 128,-1,125
 735 437 735 437 728 437 c 2,126,-1
 450 437 l 1,127,-1
 447 434 l 2,128,129
 445 431 445 431 440.5 426.5 c 128,-1,130
 436 422 436 422 434 419 c 0,131,132
 436 417 436 417 441 418 c 2,133,-1
 444 419 l 1,134,-1
 753 419 l 2,135,136
 756 419 756 419 757.5 418 c 128,-1,137
 759 417 759 417 759 412 c 2,138,-1
 759 381 l 1,139,-1
 403 381 l 2,140,141
 397 381 397 381 394 378 c 2,142,-1
 359 344 l 2,143,144
 359 342 359 342 363 341 c 2,145,-1
 366 341 l 1,146,-1
 791 341 l 2,147,148
 795 341 795 341 796 340 c 128,-1,149
 797 339 797 339 797 334 c 2,150,-1
 797 275 l 2,151,152
 797 268 797 268 796 267 c 128,-1,153
 795 266 795 266 787 266 c 2,154,-1
 328 266 l 2,155,156
 326 264 326 264 327 261 c 2,157,-1
 328 259 l 1,158,-1
 328 188 l 1,159,-1
 256 188 l 2,160,161
 252 188 252 188 251 189.5 c 128,-1,162
 250 191 250 191 250 194 c 2,163,-1
 250 266 l 2,164,165
 248 268 248 268 246.5 267 c 128,-1,166
 245 266 245 266 244 266 c 2,167,-1
 181 266 l 2,168,169
 177 266 177 266 176 266.5 c 128,-1,170
 175 267 175 267 175 272 c 2,171,-1
 175 334 l 2,172,173
 175 339 175 339 176.5 340 c 128,-1,174
 178 341 178 341 181 341 c 2,175,-1
 250 341 l 1,176,-1
 175 341 l 2,177,178
 177 343 177 343 178.5 342 c 128,-1,179
 180 341 180 341 181 341 c 2,180,-1
 253 341 l 2,181,182
 256 344 256 344 253 347 c 2,183,-1
 253 800 l 2,184,185
 253 805 253 805 254 805.5 c 128,-1,186
 255 806 255 806 259 806 c 2,187,-1
 319 806 l 2,188,189
 326 806 326 806 327 805 c 128,-1,190
 328 804 328 804 328 797 c 2,191,-1
 328 366 l 1,192,193
 332 368 332 368 338 375 c 2,194,-1
 350 388 l 2,195,196
 360 399 360 399 366 403 c 0,197,198
 369 403 369 403 369 409 c 2,199,-1
 369 766 l 1,200,201
 373 768 373 768 384 766 c 2,202,-1
 391 766 l 1,203,-1
 397 766 l 2,204,205
 404 768 404 768 406 766 c 128,-1,206
 408 764 408 764 407 757 c 2,207,-1
 406 750 l 1,208,-1
 406 447 l 1,209,210
 431 472 431 472 447 484 c 0,211,212
 449 486 449 486 450 489 c 2,213,-1
 450 491 l 1,214,-1
 450 766 l 1,215,-1
 484 766 l 2,216,217
 487 766 487 766 487.5 765.5 c 128,-1,218
 488 765 488 765 488 763 c 1,219,220
 495 767 495 767 498 766 c 2,221,-1
 500 766 l 1,222,223
 497 688 497 688 497 538 c 2,224,-1
 497 531 l 2,225,226
 499 533 499 533 498 538 c 2,227,-1
 497 541 l 1,228,-1
 497 759 l 2,229,230
 498 759 498 759 498 761.5 c 128,-1,231
 498 764 498 764 500 766 c 2,0,-1
344 266 m 2,232,233
 346 268 346 268 350 266 c 2,234,-1
 353 266 l 1,235,-1
 803 266 l 2,236,237
 810 266 810 266 811.5 267 c 128,-1,238
 813 268 813 268 813 275 c 2,239,-1
 813 334 l 2,240,241
 813 339 813 339 812 340 c 128,-1,242
 811 341 811 341 806 341 c 2,243,-1
 381 341 l 1,244,-1
 379 340 l 2,245,246
 377 340 377 340 376 340.5 c 128,-1,247
 375 341 375 341 375 344 c 2,248,-1
 809 344 l 2,249,250
 812 344 812 344 812.5 343 c 128,-1,251
 813 342 813 342 813 338 c 2,252,-1
 813 272 l 2,253,254
 813 267 813 267 812 266.5 c 128,-1,255
 811 266 811 266 806 266 c 2,256,-1
 344 266 l 2,232,233
344 372 m 2,257,258
 342 374 342 374 343 378 c 2,259,-1
 344 381 l 1,260,-1
 344 803 l 2,261,262
 344 810 344 810 342.5 811.5 c 128,-1,263
 341 813 341 813 334 813 c 2,264,-1
 275 813 l 2,265,266
 270 813 270 813 269.5 812 c 128,-1,267
 269 811 269 811 269 806 c 2,268,-1
 269 809 l 2,269,270
 266 812 266 812 266.5 812.5 c 128,-1,271
 267 813 267 813 272 813 c 2,272,-1
 338 813 l 2,273,274
 341 813 341 813 342.5 811.5 c 128,-1,275
 344 810 344 810 344 806 c 2,276,-1
 344 372 l 2,257,258
578 609 m 1,277,278
 576 611 576 611 577 614 c 2,279,-1
 578 616 l 1,280,-1
 578 766 l 2,281,282
 578 773 578 773 577 774 c 128,-1,283
 576 775 576 775 569 775 c 2,284,-1
 550 775 l 2,285,286
 541 775 541 775 541 766 c 2,287,-1
 541 575 l 2,288,289
 541 569 541 569 537 569 c 1,290,291
 541 572 541 572 541 578 c 2,292,-1
 541 772 l 2,293,294
 541 777 541 777 541.5 777.5 c 128,-1,295
 542 778 542 778 547 778 c 2,296,-1
 575 778 l 2,297,298
 578 778 578 778 579.5 777 c 128,-1,299
 581 776 581 776 581 772 c 2,300,-1
 581 622 l 2,301,302
 578 616 578 616 578 609 c 1,277,278
488 462 m 2,303,304
 490 465 490 465 494 463 c 2,305,-1
 497 463 l 1,306,-1
 766 463 l 2,307,308
 773 462 773 462 774 463.5 c 128,-1,309
 775 465 775 465 775 472 c 2,310,-1
 775 494 l 2,311,312
 775 497 775 497 774.5 498 c 128,-1,313
 774 499 774 499 772 497 c 2,314,-1
 531 497 l 1,315,-1
 772 497 l 2,316,317
 777 497 777 497 777.5 496 c 128,-1,318
 778 495 778 495 778 491 c 2,319,-1
 778 466 l 2,320,321
 778 462 778 462 777 460.5 c 128,-1,322
 776 459 776 459 772 459 c 2,323,-1
 497 459 l 1,324,325
 491 463 491 463 487 463 c 2,326,-1
 488 462 l 2,303,304
384 772 m 2,327,328
 386 770 386 770 385 768.5 c 128,-1,329
 384 767 384 767 384 766 c 2,330,-1
 384 416 l 2,331,332
 384 409 384 409 381 409 c 2,333,-1
 381 766 l 2,334,335
 383 768 383 768 384 770 c 2,336,-1
 384 772 l 2,327,328
772 384 m 2,337,-1
 772 416 l 2,338,339
 772 419 772 419 771 420.5 c 128,-1,340
 770 422 770 422 766 422 c 2,341,-1
 447 422 l 1,342,-1
 759 422 l 2,343,344
 766 422 766 422 767.5 421 c 128,-1,345
 769 420 769 420 769 412 c 2,346,-1
 769 387 l 2,347,348
 771 387 771 387 772.5 385.5 c 128,-1,349
 774 384 774 384 772 384 c 2,337,-1
463 772 m 2,350,-1
 463 497 l 2,351,352
 463 491 463 491 459 491 c 1,353,-1
 459 769 l 2,354,355
 461 769 461 769 461 770.5 c 128,-1,356
 461 772 461 772 463 772 c 2,350,-1
644 616 m 2,357,358
 644 619 644 619 650 619 c 2,359,-1
 763 619 l 2,360,361
 772 619 772 619 772 628 c 2,362,-1
 772 650 l 2,363,364
 772 655 772 655 771 655.5 c 128,-1,365
 770 656 770 656 766 656 c 2,366,-1
 691 656 l 2,367,368
 684 656 684 656 684 659 c 2,369,-1
 775 659 l 2,370,371
 777 659 777 659 778 658 c 2,372,-1
 778 656 l 1,373,-1
 778 619 l 1,374,-1
 659 619 l 2,375,376
 652 619 652 619 649 618.5 c 128,-1,377
 646 618 646 618 644 616 c 2,378,-1
 644 618 l 1,379,-1
 644 616 l 2,357,358
500 766 m 2,380,381
 498 764 498 764 499 761 c 2,382,-1
 500 759 l 1,383,-1
 500 538 l 1,384,385
 495 649 495 649 500 766 c 1,386,387
 498 766 498 766 498 768 c 128,-1,388
 498 770 498 770 500 772 c 2,389,-1
 500 766 l 2,380,381
566 541 m 1,390,391
 568 543 568 543 570 542 c 2,392,-1
 572 541 l 1,393,-1
 763 541 l 2,394,395
 768 541 768 541 770 542 c 128,-1,396
 772 543 772 543 772 547 c 2,397,-1
 772 575 l 2,398,399
 775 575 775 575 775 569 c 2,400,-1
 775 541 l 2,401,402
 775 538 775 538 774 536 c 128,-1,403
 773 534 773 534 769 534 c 0,404,405
 723 539 723 539 667 540 c 0,406,407
 634 541 634 541 566 541 c 1,390,391
188 344 m 1,408,-1
 263 344 l 1,409,-1
 194 344 l 2,410,411
 189 344 189 344 188.5 343 c 128,-1,412
 188 342 188 342 188 338 c 2,413,-1
 188 275 l 2,414,415
 188 270 188 270 188.5 269.5 c 128,-1,416
 189 269 189 269 194 269 c 2,417,-1
 263 269 l 1,418,-1
 191 269 l 2,419,420
 188 269 188 269 188 269.5 c 128,-1,421
 188 270 188 270 188 272 c 2,422,-1
 188 344 l 1,408,-1
619 772 m 2,423,-1
 619 769 l 2,424,425
 619 770 619 770 618 771.5 c 128,-1,426
 617 773 617 773 619 772 c 2,423,-1
647 619 m 1,427,-1
 772 619 l 1,428,-1
 647 619 l 1,427,-1
656 688 m 2,429,430
 654 688 654 688 655 690 c 2,431,-1
 656 694 l 1,432,-1
 656 775 l 2,433,434
 658 775 658 775 657 773 c 2,435,-1
 656 772 l 1,436,-1
 656 688 l 2,429,430
722 697 m 2,437,438
 722 700 722 700 725 700 c 2,439,-1
 769 700 l 2,440,441
 767 698 767 698 764 698 c 128,-1,442
 761 698 761 698 759 697 c 2,443,-1
 722 697 l 2,437,438
772 656 m 1,444,-1
 684 656 l 1,445,-1
 772 656 l 1,444,-1
341 188 m 1,446,-1
 341 266 l 1,447,-1
 341 194 l 2,448,449
 343 191 343 191 343 190.5 c 128,-1,450
 343 190 343 190 341 187 c 2,451,-1
 341 188 l 1,446,-1
772 697 m 1,452,-1
 772 728 l 2,453,454
 772 731 772 731 771 732.5 c 128,-1,455
 770 734 770 734 766 734 c 2,456,-1
 736 734 l 1,457,-1
 772 734 l 1,458,459
 774 726 774 726 773 709 c 2,460,-1
 772 697 l 1,452,-1
697 772 m 1,461,462
 699 772 699 772 698 769 c 2,463,-1
 697 766 l 1,464,-1
 697 725 l 1,465,-1
 696 722 l 1,466,-1
 694 719 l 1,467,468
 694 731 694 731 696 750 c 0,469,470
 697 765 697 765 697 772 c 1,461,462
556 528 m 1,471,472
 556 530 556 530 556.5 530.5 c 128,-1,473
 557 531 557 531 559 531 c 2,474,-1
 558 531 l 2,475,476
 556 530 556 530 556 528 c 1,471,472
534 509 m 1,477,478
 534 512 534 512 534.5 512.5 c 128,-1,479
 535 513 535 513 538 513 c 2,480,-1
 537 511 l 2,481,482
 536 509 536 509 534 509 c 1,477,478
553 525 m 2,483,484
 553 526 553 526 553 527 c 2,485,-1
 553 525 l 1,486,-1
 553 526 l 1,487,-1
 553 525 l 2,483,484
503 531 m 2,488,489
 503 530 503 530 503 529 c 2,490,-1
 503 531 l 1,491,-1
 502 530 l 1,492,-1
 503 531 l 2,488,489
559 534 m 1,493,494
 559 537 559 537 560.5 537 c 128,-1,495
 562 537 562 537 559 534 c 1,496,497
 562 537 562 537 562 535.5 c 128,-1,498
 562 534 562 534 559 534 c 1,493,494
544 519 m 1,499,500
 544 521 544 521 545 521 c 128,-1,501
 546 521 546 521 544 519 c 1,502,503
 546 521 546 521 546 520 c 128,-1,504
 546 519 546 519 544 519 c 1,499,500
522 550 m 2,505,506
 522 548 522 548 521 548 c 128,-1,507
 520 548 520 548 522 550 c 2,508,-1
 520 548 l 1,509,-1
 522 550 l 2,505,506
528 556 m 1,510,511
 528 554 528 554 527 554 c 128,-1,512
 526 554 526 554 528 556 c 2,513,-1
 526 554 l 1,514,-1
 528 556 l 1,510,511
531 506 m 1024,515,-1
528 500 m 2,516,517
 528 501 528 501 528 502 c 2,518,-1
 528 500 l 1,519,-1
 528 502 l 1,520,-1
 528 500 l 2,516,517
594 622 m 1,521,522
 594 620 594 620 592.5 620 c 128,-1,523
 591 620 591 620 594 622 c 2,524,-1
 591 620 l 1,525,-1
 594 622 l 1,521,522
506 534 m 1024,526,-1
509 538 m 2,527,528
 509 537 509 537 509 536 c 2,529,-1
 509 538 l 1,530,-1
 508 538 l 1,531,-1
 509 538 l 2,527,528
463 766 m 2,532,533
 461 766 461 766 460 766 c 2,534,-1
 463 766 l 2,532,533
772 734 m 1024,535,-1
463 438 m 1024,536,-1
550 525 m 1024,537,-1
550 522 m 1,538,539
 550 522 550 522 550 523 c 2,540,-1
 550 522 l 1,541,-1
 550 523 l 1,542,-1
 550 522 l 1,538,539
466 438 m 1024,543,-1
547 522 m 1,544,545
 547 522 547 522 548 522 c 2,546,-1
 547 522 l 1,547,-1
 548 522 l 1,548,-1
 547 522 l 1,544,545
466 441 m 1024,549,-1
544 519 m 1024,550,-1
544 516 m 1,551,552
 544 516 544 516 544 517 c 2,553,-1
 544 516 l 1,554,-1
 544 517 l 1,555,-1
 544 516 l 1,551,552
541 516 m 1,556,557
 541 516 541 516 542 516 c 2,558,-1
 541 516 l 1,559,-1
 542 516 l 1,560,-1
 541 516 l 1,556,557
466 441 m 2,561,562
 467 441 467 441 468 441 c 2,563,-1
 466 441 l 1,564,-1
 468 441 l 1,565,-1
 466 441 l 2,561,562
541 513 m 2,566,567
 541 514 541 514 541 515 c 2,568,-1
 541 513 l 1,569,-1
 541 515 l 1,570,-1
 541 513 l 2,566,567
537 513 m 2,571,572
 539 513 539 513 540 513 c 2,573,-1
 537 513 l 1,574,-1
 540 513 l 1,575,-1
 537 513 l 2,571,572
469 441 m 2,576,577
 469 442 469 442 469 443 c 2,578,-1
 469 441 l 1,579,-1
 469 443 l 1,580,-1
 469 441 l 2,576,577
469 444 m 1,581,582
 469 444 469 444 470 444 c 2,583,-1
 469 444 l 1,584,-1
 470 444 l 1,585,-1
 469 444 l 1,581,582
534 506 m 2,586,587
 534 507 534 507 534 509 c 2,588,-1
 534 506 l 1,589,-1
 534 509 l 1,590,-1
 534 506 l 2,586,587
472 447 m 2,591,592
 473 447 473 447 474 447 c 2,593,-1
 472 447 l 1,594,-1
 474 447 l 1,595,-1
 472 447 l 2,591,592
616 647 m 2,596,597
 616 646 616 646 616 645 c 2,598,-1
 616 647 l 1,599,-1
 616 645 l 1,600,-1
 616 647 l 2,596,597
488 459 m 1024,601,-1
484 459 m 1024,602,-1
484 456 m 2,603,604
 484 457 484 457 484 457 c 1,605,-1
 484 456 l 1,606,-1
 484 457 l 1,607,-1
 484 456 l 2,603,604
481 456 m 1024,608,-1
478 453 m 2,609,610
 479 453 479 453 480 453 c 2,611,-1
 478 453 l 1,612,-1
 480 453 l 1,613,-1
 478 453 l 2,609,610
478 453 m 1024,614,-1
478 450 m 2,615,616
 478 451 478 451 478 451 c 1,617,-1
 478 450 l 1,618,-1
 478 451 l 1,619,-1
 478 450 l 2,615,616
475 450 m 2,620,621
 476 450 476 450 476 450 c 1,622,-1
 475 450 l 1,623,-1
 476 450 l 1,624,-1
 475 450 l 2,620,621
581 609 m 1024,625,-1
584 613 m 2,626,627
 584 612 584 612 584 612 c 1,628,-1
 583 611 l 1,629,-1
 584 613 l 1,630,-1
 583 611 l 1,631,-1
 584 613 l 2,626,627
588 616 m 2,632,633
 586 614 586 614 585 613 c 2,634,-1
 588 616 l 1,635,-1
 585 613 l 1,636,-1
 588 616 l 2,632,633
588 616 m 1024,637,-1
588 616 m 1024,638,-1
609 637 m 1024,639,-1
591 619 m 1024,640,-1
594 622 m 1024,641,-1
594 625 m 1,642,643
 594 625 594 625 594 625 c 1,644,-1
 594 623 l 1,645,-1
 594 625 l 1,646,-1
 594 623 l 1,647,-1
 594 625 l 1,642,643
597 625 m 1024,648,-1
600 628 m 1,649,650
 600 628 600 628 599 627 c 1,651,-1
 599 627 l 1,652,-1
 600 628 l 1,653,-1
 599 627 l 1,654,-1
 600 628 l 1,649,650
600 628 m 1024,655,-1
603 631 m 1,656,657
 603 631 603 631 603 631 c 1,658,-1
 601 629 l 1,659,-1
 603 631 l 1,660,-1
 601 629 l 1,661,-1
 603 631 l 1,656,657
603 631 m 1024,662,-1
606 634 m 1,663,664
 606 634 606 634 606 634 c 1,665,-1
 605 633 l 1,666,-1
 606 634 l 1,667,-1
 605 633 l 1,668,-1
 606 634 l 1,663,664
606 634 m 1024,669,-1
609 637 m 2,670,671
 608 636 608 636 607 635 c 2,672,-1
 609 637 l 1,673,-1
 607 635 l 1,674,-1
 609 637 l 2,670,671
553 528 m 2,675,676
 554 528 554 528 554 528 c 1,677,-1
 553 528 l 1,678,-1
 554 528 l 1,679,-1
 553 528 l 2,675,676
506 534 m 1,680,681
 506 534 506 534 506 534 c 1,682,-1
 505 533 l 1,683,-1
 506 534 l 1,684,-1
 505 533 l 1,685,-1
 506 534 l 1,680,681
559 534 m 1024,686,-1
563 537 m 1024,687,-1
513 541 m 2,688,689
 512 540 512 540 512 540 c 1,690,-1
 511 539 l 1,691,-1
 513 541 l 1,692,-1
 511 539 l 1,693,-1
 513 541 l 2,688,689
513 541 m 1024,694,-1
516 544 m 1024,695,-1
519 547 m 2,696,697
 519 546 519 546 519 546 c 1,698,-1
 519 547 l 1,699,-1
 519 546 l 1,700,-1
 519 547 l 2,696,697
522 550 m 1024,701,-1
522 550 m 1024,702,-1
528 556 m 1024,703,-1
531 559 m 2,704,705
 530 558 530 558 529 557 c 2,706,-1
 531 559 l 1,707,-1
 529 557 l 1,708,-1
 531 559 l 2,704,705
531 559 m 1024,709,-1
534 562 m 1,710,711
 534 562 534 562 534 562 c 1,712,-1
 533 561 l 1,713,-1
 534 562 l 1,714,-1
 533 561 l 1,715,-1
 534 562 l 1,710,711
534 562 m 1024,716,-1
538 566 m 1024,717,-1
616 644 m 1024,718,-1
EndSplineSet
EndChar

StartChar: lock
Encoding: 57432 57432 81
Width: 1200
Flags: W
LayerCount: 2
Fore
SplineSet
819 536 m 1,0,-1
 819 245 l 1,1,-1
 382 245 l 1,2,-1
 382 536 l 1,3,-1
 455 536 l 1,4,-1
 455 608 l 2,5,6
 455 620 455 620 457 630 c 0,7,8
 462 669 462 669 486.5 699.5 c 128,-1,9
 511 730 511 730 547.5 744.5 c 128,-1,10
 584 759 584 759 624 753 c 0,11,12
 676 744 676 744 711 703 c 128,-1,13
 746 662 746 662 746 609 c 2,14,-1
 746 536 l 1,15,-1
 819 536 l 1,0,-1
673 536 m 2,16,17
 673 537 673 537 673 538 c 2,18,-1
 673 611 l 2,19,20
 673 616 673 616 672 623 c 0,21,22
 666 652 666 652 643.5 668 c 128,-1,23
 621 684 621 684 591 681 c 0,24,25
 564 679 564 679 545.5 657.5 c 128,-1,26
 527 636 527 636 527 608 c 2,27,-1
 527 536 l 1,28,-1
 673 536 l 2,16,17
EndSplineSet
EndChar

StartChar: lua
Encoding: 57433 57433 82
Width: 1000
Flags: W
LayerCount: 2
Fore
SplineSet
459 188 m 0,0,1
 386 188 386 188 323.5 224.5 c 128,-1,2
 261 261 261 261 224.5 323.5 c 128,-1,3
 188 386 188 386 188 460 c 128,-1,4
 188 534 188 534 225 597 c 128,-1,5
 262 660 262 660 324 695 c 0,6,7
 389 733 389 733 466 731 c 0,8,9
 538 730 538 730 599 693.5 c 128,-1,10
 660 657 660 657 695 596 c 0,11,12
 731 533 731 533 731 459.5 c 128,-1,13
 731 386 731 386 694.5 323.5 c 128,-1,14
 658 261 658 261 595.5 224.5 c 128,-1,15
 533 188 533 188 459 188 c 0,0,1
572 653 m 0,16,17
 539 653 539 653 515 629 c 128,-1,18
 491 605 491 605 491 572 c 128,-1,19
 491 539 491 539 514 515 c 128,-1,20
 537 491 537 491 571 491 c 128,-1,21
 605 491 605 491 629 514 c 128,-1,22
 653 537 653 537 653 571 c 128,-1,23
 653 605 653 605 629.5 629 c 128,-1,24
 606 653 606 653 572 653 c 0,16,17
731 653 m 256,25,26
 698 653 698 653 674.5 676.5 c 128,-1,27
 651 700 651 700 653 734 c 0,28,29
 653 767 653 767 676 790 c 128,-1,30
 699 813 699 813 734 813 c 0,31,32
 767 813 767 813 790 788.5 c 128,-1,33
 813 764 813 764 813 731.5 c 128,-1,34
 813 699 813 699 788.5 676 c 128,-1,35
 764 653 764 653 731 653 c 256,25,26
EndSplineSet
EndChar

StartChar: makefile
Encoding: 57434 57434 83
Width: 1000
Flags: W
LayerCount: 2
Fore
SplineSet
319 781 m 1,0,-1
 219 756 l 1,1,-1
 219 256 l 1,2,-1
 350 256 l 1,3,-1
 350 566 l 1,4,-1
 462 444 l 1,5,-1
 538 444 l 1,6,-1
 650 566 l 1,7,-1
 650 256 l 1,8,-1
 781 256 l 1,9,-1
 781 756 l 1,10,-1
 681 781 l 1,11,-1
 500 584 l 1,12,-1
 319 781 l 1,0,-1
EndSplineSet
EndChar

StartChar: markdown
Encoding: 57435 57435 84
Width: 1000
Flags: W
LayerCount: 2
Fore
SplineSet
647 791 m 1,0,-1
 647 481 l 1,1,-1
 766 481 l 1,2,3
 675 388 675 388 494 206 c 1,4,-1
 231 478 l 1,5,-1
 341 478 l 1,6,-1
 341 794 l 1,7,-1
 353 785 l 2,8,9
 408 747 408 747 436 729 c 0,10,11
 486 697 486 697 496.5 697 c 128,-1,12
 507 697 507 697 545 722 c 0,13,14
 568 736 568 736 615 769 c 2,15,-1
 647 791 l 1,0,-1
EndSplineSet
EndChar

StartChar: maven
Encoding: 57436 57436 85
Width: 1000
Flags: W
LayerCount: 2
Fore
SplineSet
506 825 m 2,0,1
 494 815 494 815 474 800 c 0,2,3
 440 773 440 773 427 761 c 0,4,5
 408 743 408 743 391 719 c 0,6,7
 375 696 375 696 371 653 c 128,-1,8
 367 610 367 610 379 570 c 0,9,10
 393 525 393 525 422 503 c 1,11,12
 412 503 412 503 377 522 c 2,13,-1
 344 541 l 1,14,-1
 390 477 l 2,15,16
 441 409 441 409 463 388 c 1,17,18
 537 280 537 280 556 156 c 1,19,20
 570 259 570 259 519 353 c 1,21,-1
 519 356 l 2,22,23
 516 369 516 369 519.5 378.5 c 128,-1,24
 523 388 523 388 534 397 c 0,25,26
 550 406 550 406 616 469 c 1,27,-1
 616 469 l 1,28,-1
 579 448 l 2,29,30
 540 427 540 427 528 425 c 1,31,-1
 551 449 l 2,32,33
 568 467 568 467 576 475 c 0,34,35
 590 488 590 488 603 497 c 0,36,37
 664 546 664 546 653 628 c 0,38,39
 653 638 653 638 648 656 c 2,40,-1
 647 662 l 1,41,42
 624 762 624 762 534 847 c 1,43,44
 527 838 527 838 513 829 c 2,45,-1
 506 825 l 2,0,1
EndSplineSet
EndChar

StartChar: mdo
Encoding: 57437 57437 86
Width: 1000
Flags: W
LayerCount: 2
Fore
SplineSet
563 447 m 1,0,1
 539 447 539 447 522.5 463.5 c 128,-1,2
 506 480 506 480 506 503.5 c 128,-1,3
 506 527 506 527 522.5 543 c 128,-1,4
 539 559 539 559 563 559 c 0,5,6
 579 559 579 559 594 550 c 128,-1,7
 609 541 609 541 616 525 c 1,8,-1
 663 525 l 1,9,10
 653 560 653 560 625.5 581.5 c 128,-1,11
 598 603 598 603 563 603 c 0,12,13
 535 603 535 603 511 589 c 128,-1,14
 487 575 487 575 473 551.5 c 128,-1,15
 459 528 459 528 459 500 c 128,-1,16
 459 472 459 472 473 448.5 c 128,-1,17
 487 425 487 425 511 411 c 128,-1,18
 535 397 535 397 563 397 c 2,19,-1
 709 397 l 1,20,-1
 709 444 l 1,21,-1
 563 444 l 1,22,-1
 563 447 l 1,0,1
391 603 m 1,23,-1
 438 603 l 1,24,-1
 438 400 l 1,25,-1
 391 400 l 1,26,-1
 391 603 l 1,23,-1
347 569 m 1,27,-1
 394 569 l 1,28,-1
 394 522 l 1,29,-1
 347 522 l 1,30,-1
 347 569 l 1,27,-1
716 716 m 2,31,-1
 294 716 l 1,32,-1
 188 500 l 1,33,-1
 241 393 l 2,34,35
 294 286 294 286 294 284 c 2,36,-1
 716 284 l 2,37,38
 755 284 755 284 784 312.5 c 128,-1,39
 813 341 813 341 813 381 c 2,40,-1
 813 622 l 2,41,42
 813 660 813 660 785 688 c 128,-1,43
 757 716 757 716 716 716 c 2,31,-1
766 378 m 2,44,45
 766 358 766 358 752 344.5 c 128,-1,46
 738 331 738 331 719 331 c 2,47,-1
 331 331 l 1,48,-1
 283 409 l 2,49,50
 234 488 234 488 234 494 c 2,51,-1
 331 666 l 1,52,-1
 719 666 l 2,53,54
 739 666 739 666 752.5 652 c 128,-1,55
 766 638 766 638 766 619 c 2,56,-1
 766 378 l 2,44,45
EndSplineSet
EndChar

StartChar: mustache
Encoding: 57438 57438 87
Width: 1000
Flags: W
LayerCount: 2
Fore
SplineSet
231 509 m 1,0,1
 231 522 231 522 228 525 c 0,2,3
 223 530 223 530 215.5 529.5 c 128,-1,4
 208 529 208 529 206 522 c 0,5,6
 199 510 199 510 205 499.5 c 128,-1,7
 211 489 211 489 225 484 c 0,8,9
 235 482 235 482 242.5 483 c 128,-1,10
 250 484 250 484 256 491 c 0,11,12
 288 516 288 516 303 531 c 2,13,-1
 312 539 l 2,14,15
 330 555 330 555 340 561 c 0,16,17
 356 573 356 573 372 578 c 0,18,19
 437 600 437 600 478 563 c 2,20,-1
 503 538 l 1,21,22
 506 544 506 544 512 550 c 0,23,24
 542 584 542 584 588 584 c 0,25,26
 639 584 639 584 678 550 c 0,27,28
 687 542 687 542 704.5 526.5 c 128,-1,29
 722 511 722 511 731 503 c 0,30,31
 746 489 746 489 762 484 c 0,32,33
 774 482 774 482 784.5 487.5 c 128,-1,34
 795 493 795 493 799.5 504 c 128,-1,35
 804 515 804 515 794 525 c 0,36,37
 785 533 785 533 775 528 c 0,38,39
 770 526 770 526 768 521.5 c 128,-1,40
 766 517 766 517 769 513 c 2,41,-1
 769 509 l 1,42,43
 756 518 756 518 756 534 c 128,-1,44
 756 550 756 550 775 556 c 0,45,46
 796 563 796 563 814.5 552.5 c 128,-1,47
 833 542 833 542 837 519 c 0,48,49
 843 484 843 484 831 459 c 0,50,51
 825 444 825 444 811 435 c 0,52,53
 800 427 800 427 781 422 c 0,54,55
 751 413 751 413 718 418 c 0,56,57
 691 421 691 421 656 434 c 2,58,-1
 572 472 l 2,59,60
 515 498 515 498 462 484 c 0,61,62
 431 475 431 475 394 459 c 2,63,-1
 374 450 l 2,64,65
 334 432 334 432 312 425 c 0,66,67
 257 405 257 405 209 422 c 0,68,69
 149 444 149 444 153 506 c 0,70,71
 156 525 156 525 162 536 c 0,72,73
 169 549 169 549 184 553 c 0,74,75
 194 558 194 558 205 558 c 128,-1,76
 216 558 216 558 225 553 c 0,77,78
 241 546 241 546 242 532.5 c 128,-1,79
 243 519 243 519 231 509 c 1,0,1
EndSplineSet
EndChar

StartChar: new-file
Encoding: 57439 57439 88
Width: 1000
Flags: W
LayerCount: 2
Fore
SplineSet
541 813 m 2,0,1
 541 811 541 811 542.5 809.5 c 128,-1,2
 544 808 544 808 544 806 c 2,3,-1
 691 659 l 2,4,5
 694 656 694 656 694 650 c 2,6,-1
 694 556 l 1,7,8
 686 560 686 560 670 566 c 2,9,-1
 653 572 l 1,10,-1
 653 619 l 1,11,-1
 538 619 l 2,12,13
 519 619 519 619 508 630 c 128,-1,14
 497 641 497 641 497 659 c 2,15,-1
 497 772 l 1,16,-1
 263 772 l 1,17,-1
 263 225 l 1,18,-1
 422 225 l 2,19,20
 428 225 428 225 431 222 c 0,21,22
 453 200 453 200 466 191 c 1,23,-1
 469 187 l 1,24,-1
 256 187 l 1,25,26
 237 192 237 192 229 205 c 0,27,28
 222 216 222 216 222 234 c 2,29,-1
 222 772 l 2,30,31
 222 799 222 799 247 809 c 0,32,33
 251 809 251 809 254.5 810.5 c 128,-1,34
 258 812 258 812 259 812 c 2,35,-1
 541 812 l 1,36,-1
 541 813 l 2,0,1
656 656 m 1,37,-1
 541 772 l 1,38,-1
 541 656 l 1,39,-1
 656 656 l 1,37,-1
584 188 m 2,40,41
 578 189 578 189 567 190.5 c 128,-1,42
 556 192 556 192 550 194 c 0,43,44
 499 208 499 208 464.5 250 c 128,-1,45
 430 292 430 292 425 344 c 0,46,47
 420 390 420 390 438.5 431.5 c 128,-1,48
 457 473 457 473 493 500.5 c 128,-1,49
 529 528 529 528 576 534.5 c 128,-1,50
 623 541 623 541 667.5 522 c 128,-1,51
 712 503 712 503 741 465 c 128,-1,52
 770 427 770 427 775 378 c 1,53,-1
 775 344 l 1,54,55
 770 292 770 292 735.5 250 c 128,-1,56
 701 208 701 208 650 194 c 0,57,58
 625 188 625 188 616 188 c 2,59,-1
 584 188 l 2,40,41
597 500 m 256,60,61
 560 500 560 500 528.5 481.5 c 128,-1,62
 497 463 497 463 478 431 c 128,-1,63
 459 399 459 399 459 362.5 c 128,-1,64
 459 326 459 326 478 294.5 c 128,-1,65
 497 263 497 263 528.5 245 c 128,-1,66
 560 227 560 227 597 227.5 c 128,-1,67
 634 228 634 228 665.5 247 c 128,-1,68
 697 266 697 266 715.5 297.5 c 128,-1,69
 734 329 734 329 734 365.5 c 128,-1,70
 734 402 734 402 715.5 433 c 128,-1,71
 697 464 697 464 665.5 482 c 128,-1,72
 634 500 634 500 597 500 c 256,60,61
619 381 m 1,73,-1
 656 381 l 2,74,75
 665 381 665 381 671.5 375.5 c 128,-1,76
 678 370 678 370 678 361.5 c 128,-1,77
 678 353 678 353 672 348.5 c 128,-1,78
 666 344 666 344 656 344 c 2,79,-1
 619 344 l 1,80,-1
 619 300 l 2,81,82
 616 293 616 293 610 288.5 c 128,-1,83
 604 284 604 284 597 284 c 128,-1,84
 590 284 590 284 584 290 c 128,-1,85
 578 296 578 296 578 303 c 2,86,-1
 578 344 l 1,87,-1
 538 344 l 2,88,89
 530 344 530 344 524.5 349.5 c 128,-1,90
 519 355 519 355 519 362.5 c 128,-1,91
 519 370 519 370 524.5 375.5 c 128,-1,92
 530 381 530 381 538 381 c 2,93,-1
 578 381 l 1,94,-1
 578 422 l 2,95,96
 578 429 578 429 584 435 c 128,-1,97
 590 441 590 441 597 441 c 128,-1,98
 604 441 604 441 610 435 c 128,-1,99
 616 429 616 429 616 422 c 2,100,-1
 616 406 l 2,101,102
 618 402 618 402 618 396 c 2,103,-1
 619 381 l 1,104,-1
 619 384 l 1,105,-1
 619 381 l 1,73,-1
EndSplineSet
EndChar

StartChar: npm
Encoding: 57440 57440 89
Width: 1000
Flags: W
LayerCount: 2
Fore
SplineSet
125 647 m 1,0,-1
 125 397 l 1,1,-1
 338 397 l 1,2,-1
 338 353 l 1,3,-1
 503 353 l 1,4,-1
 503 394 l 1,5,-1
 875 394 l 1,6,-1
 875 647 l 1,7,-1
 125 647 l 1,0,-1
331 438 m 1,8,-1
 291 438 l 1,9,-1
 291 559 l 1,10,-1
 250 559 l 1,11,-1
 250 438 l 1,12,-1
 166 438 l 1,13,-1
 166 603 l 1,14,-1
 331 603 l 1,15,-1
 331 438 l 1,8,-1
538 438 m 1,16,-1
 453 438 l 1,17,-1
 453 394 l 1,18,-1
 369 394 l 1,19,-1
 369 600 l 1,20,-1
 534 600 l 1,21,22
 538 550 538 550 537 438 c 1,23,-1
 538 438 l 1,16,-1
831 438 m 1,24,-1
 791 438 l 1,25,-1
 791 559 l 1,26,-1
 750 559 l 1,27,-1
 750 438 l 1,28,-1
 706 438 l 1,29,-1
 706 559 l 1,30,-1
 666 559 l 1,31,-1
 666 438 l 1,32,-1
 581 438 l 1,33,-1
 581 603 l 1,34,-1
 831 603 l 1,35,-1
 831 438 l 1,24,-1
497 559 m 1,36,-1
 456 559 l 1,37,-1
 456 478 l 1,38,-1
 497 478 l 1,39,-1
 497 559 l 1,36,-1
EndSplineSet
EndChar

StartChar: npm_ignored
Encoding: 57441 57441 90
Width: 1000
Flags: W
LayerCount: 2
Fore
SplineSet
125 647 m 1,0,-1
 125 397 l 1,1,-1
 338 397 l 1,2,-1
 338 353 l 1,3,-1
 503 353 l 1,4,-1
 503 394 l 1,5,-1
 875 394 l 1,6,-1
 875 647 l 1,7,-1
 125 647 l 1,0,-1
331 438 m 1,8,-1
 291 438 l 1,9,-1
 291 559 l 1,10,-1
 250 559 l 1,11,-1
 250 438 l 1,12,-1
 166 438 l 1,13,-1
 166 603 l 1,14,-1
 331 603 l 1,15,-1
 331 438 l 1,8,-1
541 438 m 1,16,-1
 456 438 l 1,17,-1
 456 394 l 1,18,-1
 372 394 l 1,19,-1
 372 600 l 1,20,-1
 538 600 l 1,21,22
 541 550 541 550 541 438 c 1,16,-1
831 438 m 1,23,-1
 791 438 l 1,24,-1
 791 559 l 1,25,-1
 750 559 l 1,26,-1
 750 438 l 1,27,-1
 706 438 l 1,28,-1
 706 559 l 1,29,-1
 666 559 l 1,30,-1
 666 438 l 1,31,-1
 581 438 l 1,32,-1
 581 603 l 1,33,-1
 831 603 l 1,34,-1
 831 438 l 1,23,-1
497 559 m 1,35,-1
 456 559 l 1,36,-1
 456 478 l 1,37,-1
 497 478 l 1,38,-1
 497 559 l 1,35,-1
EndSplineSet
EndChar

StartChar: nunjucks
Encoding: 57442 57442 91
Width: 1000
Flags: W
LayerCount: 2
Fore
SplineSet
647 606 m 1,0,-1
 609 594 l 1,1,2
 596 637 596 637 576 670 c 0,3,4
 543 722 543 722 503 722 c 128,-1,5
 463 722 463 722 429 668 c 0,6,7
 408 636 408 636 394 594 c 1,8,-1
 350 606 l 1,9,-1
 259 313 l 1,10,-1
 372 278 l 1,11,-1
 463 572 l 1,12,-1
 422 584 l 1,13,14
 431 618 431 618 452 650 c 0,15,16
 477 691 477 691 500 691 c 128,-1,17
 523 691 523 691 547 650 c 0,18,19
 566 619 566 619 575 584 c 1,20,-1
 528 569 l 1,21,-1
 619 275 l 1,22,-1
 731 309 l 1,23,-1
 647 606 l 1,0,-1
EndSplineSet
EndChar

StartChar: ocaml
Encoding: 57443 57443 92
Width: 1000
Flags: W
LayerCount: 2
Fore
SplineSet
813 253 m 1,0,-1
 813 675 l 2,1,2
 813 700 813 700 809 713 c 0,3,4
 805 738 805 738 778 759 c 0,5,6
 769 766 769 766 764 768 c 0,7,8
 755 772 755 772 747 772 c 0,9,10
 745 772 745 772 744.5 772.5 c 128,-1,11
 744 773 744 773 744 775 c 2,12,-1
 253 775 l 1,13,14
 253 769 253 769 241 769 c 1,15,16
 206 756 206 756 191 716 c 0,17,18
 188 709 188 709 188 697 c 2,19,-1
 188 553 l 2,20,21
 188 546 188 546 189 545.5 c 128,-1,22
 190 545 190 545 197 547 c 2,23,-1
 213 553 l 2,24,25
 221 555 221 555 229 568 c 0,26,27
 232 573 232 573 234 575 c 2,28,-1
 237 579 l 2,29,30
 245 592 245 592 253 597 c 0,31,32
 258 602 258 602 263 602 c 128,-1,33
 268 602 268 602 275 597 c 2,34,-1
 282 592 l 2,35,36
 291 586 291 586 297 584 c 0,37,38
 317 578 317 578 328 581 c 0,39,40
 334 581 334 581 337 586 c 0,41,42
 340 588 340 588 343 594 c 2,43,-1
 344 597 l 2,44,45
 350 609 350 609 354 612 c 128,-1,46
 358 615 358 615 361 615 c 2,47,-1
 372 616 l 2,48,49
 384 614 384 614 396 603 c 0,50,51
 403 597 403 597 416 581 c 0,52,53
 420 573 420 573 428 569 c 0,54,55
 434 566 434 566 447 553 c 0,56,57
 456 542 456 542 478 525 c 0,58,59
 493 513 493 513 500 506 c 0,60,61
 517 490 517 490 538 481 c 0,62,63
 554 476 554 476 564 477 c 0,64,65
 577 479 577 479 588 494 c 0,66,67
 608 519 608 519 613 547 c 0,68,69
 615 553 615 553 623 564 c 2,70,-1
 628 572 l 1,71,-1
 631 572 l 2,72,73
 649 575 649 575 675 569 c 0,74,75
 684 569 684 569 691 566 c 2,76,-1
 703 563 l 2,77,78
 720 560 720 560 728.5 556 c 128,-1,79
 737 552 737 552 740 543.5 c 128,-1,80
 743 535 743 535 741 525 c 0,81,82
 739 519 739 519 737.5 518 c 128,-1,83
 736 517 736 517 733 518 c 128,-1,84
 730 519 730 519 728 519 c 2,85,-1
 719 519 l 2,86,87
 706 516 706 516 681 503 c 0,88,89
 676 501 676 501 672.5 496.5 c 128,-1,90
 669 492 669 492 669 487 c 0,91,92
 664 469 664 469 650 459 c 2,93,-1
 648 457 l 2,94,95
 644 455 644 455 644 450 c 0,96,97
 641 448 641 448 637.5 443.5 c 128,-1,98
 634 439 634 439 631 437 c 0,99,100
 602 408 602 408 550 403 c 1,101,-1
 500 403 l 2,102,103
 496 403 496 403 495 401.5 c 128,-1,104
 494 400 494 400 494 397 c 0,105,106
 495 391 495 391 495 378.5 c 128,-1,107
 495 366 495 366 497.5 359.5 c 128,-1,108
 500 353 500 353 500 341 c 0,109,110
 500 322 500 322 516 306 c 0,111,112
 519 303 519 303 519 297 c 0,113,114
 519 275 519 275 522 266 c 2,115,-1
 523 259 l 2,116,117
 529 235 529 235 534 225 c 0,118,119
 538 222 538 222 540 221 c 128,-1,120
 542 220 542 220 544.5 221.5 c 128,-1,121
 547 223 547 223 553 225 c 128,-1,122
 559 227 559 227 563 228 c 0,123,124
 573 232 573 232 588 234 c 0,125,126
 597 234 597 234 616 234 c 0,127,128
 626 234 626 234 647 235 c 0,129,130
 673 237 673 237 686 236 c 0,131,132
 707 236 707 236 725 231 c 0,133,134
 731 230 731 230 742 228.5 c 128,-1,135
 753 227 753 227 759 225 c 0,136,137
 772 221 772 221 786 220 c 0,138,139
 795 219 795 219 813 219 c 0,140,141
 825 219 825 219 825 231 c 1,142,143
 816 238 816 238 814 242 c 128,-1,144
 812 246 812 246 812 251 c 2,145,-1
 813 253 l 1,0,-1
334 341 m 1,146,-1
 338 344 l 1,147,148
 343 371 343 371 359 388 c 1,149,-1
 356 388 l 2,150,151
 327 388 327 388 294 397 c 0,152,153
 263 403 263 403 247 419 c 0,154,155
 240 426 240 426 231.5 424 c 128,-1,156
 223 422 223 422 219 412 c 0,157,158
 219 411 219 411 217.5 406.5 c 128,-1,159
 216 402 216 402 216 400 c 0,160,161
 206 381 206 381 194 369 c 1,162,163
 187 356 187 356 188 347 c 2,164,-1
 188 288 l 2,165,166
 188 278 188 278 197 277 c 128,-1,167
 206 276 206 276 221 271 c 0,168,169
 232 267 232 267 237 266 c 2,170,-1
 252 261 l 2,171,172
 280 250 280 250 294 250 c 0,173,174
 303 250 303 250 305 251.5 c 128,-1,175
 307 253 307 253 309 263 c 0,176,177
 309 264 309 264 311 265.5 c 128,-1,178
 313 267 313 267 313 269 c 2,179,-1
 309 269 l 1,180,-1
 313 269 l 1,181,-1
 313 275 l 1,182,-1
 313 272 l 2,183,184
 313 273 313 273 314.5 275 c 128,-1,185
 316 277 316 277 316 278 c 2,186,-1
 316 281 l 2,187,188
 319 288 319 288 319 297 c 0,189,190
 319 309 319 309 322 313 c 2,191,-1
 322 316 l 1,192,193
 327 318 327 318 333 330 c 2,194,-1
 334 334 l 1,195,-1
 334 341 l 1,146,-1
491 281 m 0,196,197
 483 289 483 289 478 303 c 0,198,199
 478 313 478 313 475 313 c 1,200,201
 475 320 475 320 471 332 c 2,202,-1
 469 338 l 2,203,204
 459 370 459 370 431 394 c 0,205,206
 419 401 419 401 412.5 400.5 c 128,-1,207
 406 400 406 400 397 391 c 0,208,209
 395 389 395 389 393.5 386 c 128,-1,210
 392 383 392 383 391 381 c 0,211,212
 372 350 372 350 363 331 c 2,213,-1
 361 328 l 2,214,215
 356 320 356 320 356 312 c 0,216,217
 354 311 354 311 352.5 305.5 c 128,-1,218
 351 300 351 300 350 297 c 0,219,220
 342 289 342 289 332 267 c 2,221,-1
 328 259 l 2,222,223
 328 258 328 258 327 256.5 c 128,-1,224
 326 255 326 255 328 253 c 2,225,-1
 334 253 l 1,226,227
 359 259 359 259 372 266 c 0,228,229
 399 279 399 279 431 269 c 0,230,231
 444 264 444 264 456 257 c 0,232,233
 464 252 464 252 478 241 c 0,234,235
 488 234 488 234 506 228 c 1,236,-1
 513 228 l 1,237,-1
 513 231 l 1,238,239
 508 240 508 240 503 255 c 0,240,241
 496 273 496 273 491 281 c 0,196,197
EndSplineSet
EndChar

StartChar: odata
Encoding: 57444 57444 93
Width: 1000
Flags: W
LayerCount: 2
Fore
SplineSet
703 778 m 2,0,-1
 297 778 l 2,1,2
 264 778 264 778 241.5 755.5 c 128,-1,3
 219 733 219 733 219 700 c 2,4,-1
 219 300 l 2,5,6
 219 267 219 267 241.5 244.5 c 128,-1,7
 264 222 264 222 297 222 c 2,8,-1
 700 222 l 2,9,10
 733 222 733 222 755.5 244.5 c 128,-1,11
 778 267 778 267 778 300 c 2,12,-1
 778 700 l 2,13,14
 780 733 780 733 758 755.5 c 128,-1,15
 736 778 736 778 703 778 c 2,0,-1
372 284 m 0,16,17
 339 284 339 284 315 308.5 c 128,-1,18
 291 333 291 333 291 365.5 c 128,-1,19
 291 398 291 398 315 422.5 c 128,-1,20
 339 447 339 447 372 447 c 128,-1,21
 405 447 405 447 429 422.5 c 128,-1,22
 453 398 453 398 453 365 c 128,-1,23
 453 332 453 332 429.5 308 c 128,-1,24
 406 284 406 284 372 284 c 0,16,17
494 488 m 1,25,-1
 294 488 l 1,26,-1
 294 541 l 1,27,-1
 491 541 l 1,28,-1
 491 488 l 1,29,-1
 494 488 l 1,25,-1
494 566 m 1,30,-1
 294 566 l 1,31,-1
 294 619 l 1,32,-1
 491 619 l 1,33,-1
 491 566 l 1,34,-1
 494 566 l 1,30,-1
494 644 m 1,35,-1
 294 644 l 1,36,-1
 294 694 l 1,37,-1
 491 694 l 1,38,-1
 491 644 l 1,39,-1
 494 644 l 1,35,-1
706 416 m 1,40,-1
 509 416 l 1,41,-1
 509 469 l 1,42,-1
 706 469 l 1,43,-1
 706 416 l 1,40,-1
706 491 m 1,44,-1
 509 491 l 1,45,-1
 509 544 l 1,46,-1
 706 544 l 1,47,-1
 706 491 l 1,44,-1
706 569 m 1,48,-1
 509 569 l 1,49,-1
 509 622 l 1,50,-1
 706 622 l 1,51,-1
 706 569 l 1,48,-1
706 644 m 1,52,-1
 509 644 l 1,53,-1
 509 697 l 1,54,-1
 706 697 l 1,55,-1
 706 644 l 1,52,-1
EndSplineSet
EndChar

StartChar: pddl
Encoding: 57445 57445 94
Width: 1000
Flags: W
LayerCount: 2
Fore
SplineSet
231 142 m 1,0,-1
 155 142 l 1,1,2
 138 178 138 178 123.5 216 c 128,-1,3
 109 254 109 254 99 298 c 0,4,5
 89 338 89 338 83.5 388 c 128,-1,6
 78 438 78 438 78 492 c 0,7,8
 78 550 78 550 84 598 c 128,-1,9
 90 646 90 646 99 685 c 0,10,11
 109 728 109 728 123 766.5 c 128,-1,12
 137 805 137 805 155 842 c 1,13,-1
 231 842 l 1,14,-1
 231 831 l 1,15,16
 214 805 214 805 199 772.5 c 128,-1,17
 184 740 184 740 171.5 696.5 c 128,-1,18
 159 653 159 653 151 601.5 c 128,-1,19
 143 550 143 550 143 492 c 0,20,21
 143 431 143 431 150.5 381.5 c 128,-1,22
 158 332 158 332 171 288 c 0,23,24
 183 246 183 246 198.5 211.5 c 128,-1,25
 214 177 214 177 231 152 c 1,26,-1
 231 142 l 1,0,-1
912 492 m 0,27,28
 912 438 912 438 906.5 388.5 c 128,-1,29
 901 339 901 339 891 298 c 0,30,31
 881 254 881 254 866.5 216 c 128,-1,32
 852 178 852 178 835 142 c 1,33,-1
 759 142 l 1,34,-1
 759 152 l 1,35,36
 775 177 775 177 791 211.5 c 128,-1,37
 807 246 807 246 819.5 289 c 128,-1,38
 832 332 832 332 839.5 381.5 c 128,-1,39
 847 431 847 431 847 492 c 0,40,41
 847 550 847 550 839 601.5 c 128,-1,42
 831 653 831 653 818.5 696.5 c 128,-1,43
 806 740 806 740 791 772.5 c 128,-1,44
 776 805 776 805 759 831 c 1,45,-1
 759 842 l 1,46,-1
 835 842 l 1,47,48
 853 805 853 805 867 766.5 c 128,-1,49
 881 728 881 728 891 685 c 0,50,51
 900 646 900 646 906 598 c 128,-1,52
 912 550 912 550 912 492 c 0,27,28
290 561 m 0,53,54
 262 561 262 561 243.5 580.5 c 128,-1,55
 225 600 225 600 225 629.5 c 128,-1,56
 225 659 225 659 244 678 c 128,-1,57
 263 697 263 697 292 697 c 128,-1,58
 321 697 321 697 339.5 678 c 128,-1,59
 358 659 358 659 358 629 c 128,-1,60
 358 599 358 599 339 580 c 128,-1,61
 320 561 320 561 290 561 c 0,53,54
290 258 m 0,62,63
 262 258 262 258 243.5 278 c 128,-1,64
 225 298 225 298 225 327.5 c 128,-1,65
 225 357 225 357 244 376 c 128,-1,66
 263 395 263 395 292 395 c 128,-1,67
 321 395 321 395 339.5 375.5 c 128,-1,68
 358 356 358 356 358 326.5 c 128,-1,69
 358 297 358 297 339 277.5 c 128,-1,70
 320 258 320 258 290 258 c 0,62,63
744 269 m 1,71,-1
 637 269 l 1,72,-1
 637 329 l 1,73,-1
 635 329 l 1,74,75
 598 258 598 258 526 258 c 0,76,77
 473 258 473 258 442.5 293 c 128,-1,78
 412 328 412 328 412 386 c 0,79,80
 412 510 412 510 538 529 c 2,81,-1
 637 544 l 1,82,83
 637 613 637 613 572 613 c 128,-1,84
 507 613 507 613 448 568 c 1,85,-1
 448 667 l 1,86,87
 471 681 471 681 512 691.5 c 128,-1,88
 553 702 553 702 587 702 c 0,89,90
 744 702 744 702 744 522 c 2,91,-1
 744 269 l 1,71,-1
638 441 m 2,92,-1
 638 469 l 1,93,-1
 571 459 l 2,94,95
 516 451 516 451 516 402 c 0,96,97
 516 379 516 379 529.5 365 c 128,-1,98
 543 351 543 351 566 351 c 0,99,100
 597 351 597 351 617.5 376.5 c 128,-1,101
 638 402 638 402 638 441 c 2,92,-1
EndSplineSet
EndChar

